SplineFontDB: 3.0
FontName: DidactGothic
FullName: DidactGothic
FamilyName: Didact Gothic
Weight: Medium
Copyright: Copyright (c) 2010, 2011, 2013 by Daniel Johnson. Released under the terms of the SIL Open Font License.
Version: 20130125
ItalicAngle: 0
UnderlinePosition: -99
UnderlineWidth: 50
Ascent: 819
Descent: 205
sfntRevision: 0x80000000
LayerCount: 2
Layer: 0 0 "Back"  1
Layer: 1 1 "Fore"  0
XUID: [1021 959 78804293 15054903]
FSType: 0
OS2Version: 2
OS2_WeightWidthSlopeOnly: 0
OS2_UseTypoMetrics: 1
CreationTime: 1287597777
ModificationTime: 1359145899
PfmFamily: 17
TTFWeight: 500
TTFWidth: 5
LineGap: 92
VLineGap: 0
Panose: 2 0 6 3 0 0 0 0 0 0
OS2TypoAscent: 0
OS2TypoAOffset: 1
OS2TypoDescent: 0
OS2TypoDOffset: 1
OS2TypoLinegap: 92
OS2WinAscent: 0
OS2WinAOffset: 1
OS2WinDescent: 0
OS2WinDOffset: 1
HheadAscent: 0
HheadAOffset: 1
HheadDescent: 0
HheadDOffset: 1
OS2SubXSize: 666
OS2SubYSize: 716
OS2SubXOff: 0
OS2SubYOff: 143
OS2SupXSize: 666
OS2SupYSize: 716
OS2SupXOff: 0
OS2SupYOff: 490
OS2StrikeYSize: 50
OS2StrikeYPos: 264
OS2Vendor: 'PfEd'
OS2CodePages: 0000009f.00000000
OS2UnicodeRanges: e00002ff.0000000a.00000000.00000000
Lookup: 260 0 0 "'blwm' Below Base Mark lookup 0"  {"'blwm' Below Base Mark lookup 0 subtable"  } ['blwm' ('DFLT' <'dflt' > 'cyrl' <'dflt' > 'grek' <'dflt' > 'latn' <'dflt' > ) ]
Lookup: 260 0 0 "'abvm' Above Base Mark lookup 1"  {"'abvm' Above Base Mark lookup 1 subtable"  } ['abvm' ('DFLT' <'dflt' > 'cyrl' <'dflt' > 'grek' <'dflt' > 'latn' <'dflt' > ) ]
Lookup: 258 0 0 "'kern' Horizontal Kerning in Latin lookup 2"  {"'kern' Horizontal Kerning in Latin lookup 2 per glyph data 0"  "'kern' Horizontal Kerning in Latin lookup 2 kerning class 1"  } ['kern' ('latn' <'dflt' > ) ]
MarkAttachClasses: 1
DEI: 91125
KernClass2: 173+ 140 "'kern' Horizontal Kerning in Latin lookup 2 kerning class 1" 
 5 space
 2 Xi

StartChar: .notdef
Encoding: 256 -1 0
Width: 512
Flags: HMW
LayerCount: 2
Fore
SplineSet
51 0 m 1,0,-1
 51 546 l 1,1,-1
 461 546 l 1,2,-1
 461 0 l 1,3,-1
 51 0 l 1,0,-1
102 51 m 1,4,-1
 410 51 l 1,5,-1
 410 495 l 1,6,-1
 102 495 l 1,7,-1
 102 51 l 1,4,-1
EndSplineSet
Validated: 1
EndChar

StartChar: exclam
Encoding: 260 33 4
Width: 238
GlyphClass: 2
Flags: HMW
LayerCount: 2
Fore
SplineSet
65 48 m 128,-1,1
 65 71 65 71 81 87 c 128,-1,2
 97 103 97 103 120 103 c 128,-1,3
 143 103 143 103 159 87 c 128,-1,4
 175 71 175 71 175 48 c 128,-1,5
 175 25 175 25 159 8.5 c 128,-1,6
 143 -8 143 -8 120 -8 c 128,-1,7
 97 -8 97 -8 81 8.5 c 128,-1,0
 65 25 65 25 65 48 c 128,-1,1
84 190 m 1,8,-1
 84 698 l 1,9,-1
 154 698 l 1,10,-1
 154 190 l 1,11,-1
 84 190 l 1,8,-1
EndSplineSet
EndChar

StartChar: quotedbl
Encoding: 261 34 5
Width: 337
GlyphClass: 2
Flags: HMW
LayerCount: 2
Fore
SplineSet
208 434 m 1,0,-1
 208 698 l 1,1,-1
 278 698 l 1,2,-1
 278 434 l 1,3,-1
 208 434 l 1,0,-1
60 434 m 1,4,-1
 60 698 l 1,5,-1
 130 698 l 1,6,-1
 130 434 l 1,7,-1
 60 434 l 1,4,-1
EndSplineSet
Validated: 1
EndChar

StartChar: numbersign
Encoding: 262 35 6
Width: 552
GlyphClass: 2
Flags: HMW
LayerCount: 2
Fore
SplineSet
155 490 m 1,0,-1
 165 658 l 1,1,-1
 233 658 l 1,2,-1
 223 490 l 1,3,-1
 350 490 l 1,4,-1
 360 658 l 1,5,-1
 430 658 l 1,6,-1
 420 490 l 1,7,-1
 513 490 l 1,8,-1
 513 420 l 1,9,-1
 415 420 l 1,10,-1
 403 240 l 1,11,-1
 493 240 l 1,12,-1
 493 170 l 1,13,-1
 399 170 l 1,14,-1
 388 0 l 1,15,-1
 318 0 l 1,16,-1
 330 170 l 1,17,-1
 203 170 l 1,18,-1
 191 0 l 1,19,-1
 123 0 l 1,20,-1
 134 170 l 1,21,-1
 40 170 l 1,22,-1
 40 240 l 1,23,-1
 138 240 l 1,24,-1
 150 420 l 1,25,-1
 60 420 l 1,26,-1
 60 490 l 1,27,-1
 155 490 l 1,0,-1
218 420 m 1,28,-1
 207 240 l 1,29,-1
 334 240 l 1,30,-1
 345 420 l 1,31,-1
 218 420 l 1,28,-1
EndSplineSet
Validated: 1
EndChar

StartChar: dollar
Encoding: 263 36 7
Width: 485
GlyphClass: 2
Flags: HMW
LayerCount: 2
Fore
SplineSet
219 698 m 1,0,-1
 261 698 l 1,1,-1
 261 597 l 1,2,3
 387 592 387 592 433 484 c 1,4,-1
 371 453 l 1,5,6
 341 528 341 528 261 532 c 1,7,-1
 261 376 l 1,8,9
 298 370 298 370 326 362 c 128,-1,10
 354 354 354 354 385 338.5 c 128,-1,11
 416 323 416 323 432.5 297 c 128,-1,12
 449 271 449 271 449 236 c 0,13,14
 449 173 449 173 395.5 132.5 c 128,-1,15
 342 92 342 92 261 86 c 1,16,-1
 261 0 l 1,17,-1
 219 0 l 1,18,-1
 219 85 l 1,19,20
 155 87 155 87 106.5 116.5 c 128,-1,21
 58 146 58 146 36 198 c 1,22,-1
 98 229 l 1,23,24
 111 196 111 196 143 174.5 c 128,-1,25
 175 153 175 153 219 150 c 1,26,-1
 219 313 l 1,27,28
 193 318 193 318 173.5 323 c 128,-1,29
 154 328 154 328 129 338.5 c 128,-1,30
 104 349 104 349 88 362.5 c 128,-1,31
 72 376 72 376 61 397.5 c 128,-1,32
 50 419 50 419 50 446 c 0,33,34
 50 509 50 509 96.5 549 c 128,-1,35
 143 589 143 589 219 596 c 1,36,-1
 219 698 l 1,0,-1
219 383 m 1,37,-1
 219 531 l 1,38,39
 171 525 171 525 146 502.5 c 128,-1,40
 121 480 121 480 121 446 c 0,41,42
 121 417 121 417 147 403.5 c 128,-1,43
 173 390 173 390 219 383 c 1,37,-1
261 305 m 1,44,-1
 261 151 l 1,45,46
 314 156 314 156 346.5 180 c 128,-1,47
 379 204 379 204 379 236 c 0,48,49
 379 254 379 254 369.5 266.5 c 128,-1,50
 360 279 360 279 337.5 286.5 c 128,-1,51
 315 294 315 294 303 297 c 128,-1,52
 291 300 291 300 261 305 c 1,44,-1
EndSplineSet
Validated: 1
EndChar

StartChar: percent
Encoding: 264 37 8
Width: 543
GlyphClass: 2
Flags: HMW
LayerCount: 2
Fore
SplineSet
84 434 m 128,-1,1
 84 414 84 414 98 400 c 128,-1,2
 112 386 112 386 132 386 c 128,-1,3
 152 386 152 386 166 400 c 128,-1,4
 180 414 180 414 180 434 c 128,-1,5
 180 454 180 454 166 468 c 128,-1,6
 152 482 152 482 132 482 c 128,-1,7
 112 482 112 482 98 468 c 128,-1,0
 84 454 84 454 84 434 c 128,-1,1
40 434 m 128,-1,9
 40 472 40 472 67 499 c 128,-1,10
 94 526 94 526 132 526 c 128,-1,11
 170 526 170 526 197 499 c 128,-1,12
 224 472 224 472 224 434 c 128,-1,13
 224 396 224 396 197 369 c 128,-1,14
 170 342 170 342 132 342 c 128,-1,15
 94 342 94 342 67 369 c 128,-1,8
 40 396 40 396 40 434 c 128,-1,9
364 98 m 128,-1,17
 364 78 364 78 378 64 c 128,-1,18
 392 50 392 50 412 50 c 128,-1,19
 432 50 432 50 446 64 c 128,-1,20
 460 78 460 78 460 98 c 128,-1,21
 460 118 460 118 446 132 c 128,-1,22
 432 146 432 146 412 146 c 128,-1,23
 392 146 392 146 378 132 c 128,-1,16
 364 118 364 118 364 98 c 128,-1,17
319 98 m 128,-1,25
 319 136 319 136 346.5 163 c 128,-1,26
 374 190 374 190 412 190 c 128,-1,27
 450 190 450 190 477 163 c 128,-1,28
 504 136 504 136 504 98 c 128,-1,29
 504 60 504 60 477 33 c 128,-1,30
 450 6 450 6 412 6 c 128,-1,31
 374 6 374 6 346.5 33 c 128,-1,24
 319 60 319 60 319 98 c 128,-1,25
50 41 m 1,32,-1
 456 524 l 1,33,-1
 494 490 l 1,34,-1
 88 8 l 1,35,-1
 50 41 l 1,32,-1
EndSplineSet
Validated: 1
EndChar

StartChar: ampersand
Encoding: 265 38 9
Width: 548
GlyphClass: 2
Flags: HMW
LayerCount: 2
Fore
SplineSet
215 457 m 1,0,1
 290 537 290 537 290 590 c 0,2,3
 290 611 290 611 273 625.5 c 128,-1,4
 256 640 256 640 238 640 c 0,5,6
 219 640 219 640 196.5 622.5 c 128,-1,7
 174 605 174 605 174 584 c 0,8,9
 174 522 174 522 215 457 c 1,0,1
446 126 m 1,10,-1
 535 0 l 1,11,-1
 441 0 l 1,12,-1
 398 61 l 1,13,14
 328 -12 328 -12 231 -12 c 0,15,16
 148 -12 148 -12 89.5 49 c 128,-1,17
 31 110 31 110 31 196 c 0,18,19
 31 230 31 230 52 268 c 128,-1,20
 73 306 73 306 96 332 c 128,-1,21
 119 358 119 358 161 400 c 1,22,-1
 135 437 l 2,23,24
 96 492 96 492 96 586 c 0,25,26
 96 642 96 642 139.5 676 c 128,-1,27
 183 710 183 710 238 710 c 0,28,29
 292 710 292 710 330 679.5 c 128,-1,30
 368 649 368 649 368 592 c 0,31,32
 368 511 368 511 256 397 c 1,33,-1
 395 199 l 1,34,35
 421 256 421 256 437 327 c 1,36,-1
 514 310 l 1,37,38
 496 209 496 209 446 126 c 1,10,-1
202 343 m 1,39,40
 156 296 156 296 132.5 262.5 c 128,-1,41
 109 229 109 229 109 198 c 0,42,43
 109 140 109 140 144.5 99 c 128,-1,44
 180 58 180 58 231 58 c 0,45,46
 297 58 297 58 352 128 c 1,47,-1
 202 343 l 1,39,40
EndSplineSet
Validated: 1
EndChar

StartChar: quotesingle
Encoding: 266 39 10
Width: 190
GlyphClass: 2
Flags: HMW
LayerCount: 2
Fore
SplineSet
60 434 m 1,0,-1
 60 698 l 1,1,-1
 130 698 l 1,2,-1
 130 434 l 1,3,-1
 60 434 l 1,0,-1
EndSplineSet
Validated: 1
EndChar

StartChar: parenleft
Encoding: 267 40 11
Width: 240
GlyphClass: 2
Flags: HMW
LayerCount: 2
Fore
SplineSet
199 644 m 1,0,1
 172 629 172 629 147 542.5 c 128,-1,2
 122 456 122 456 122 348 c 128,-1,3
 122 240 122 240 147 154.5 c 128,-1,4
 172 69 172 69 199 54 c 1,5,-1
 199 -16 l 1,6,7
 129 -16 129 -16 86.5 89.5 c 128,-1,8
 44 195 44 195 44 348 c 128,-1,9
 44 501 44 501 86.5 607.5 c 128,-1,10
 129 714 129 714 199 714 c 1,11,-1
 199 644 l 1,0,1
EndSplineSet
Validated: 1
EndChar

StartChar: parenright
Encoding: 268 41 12
Width: 240
GlyphClass: 2
Flags: HMW
LayerCount: 2
Fore
SplineSet
42 54 m 1,0,1
 69 69 69 69 94 155.5 c 128,-1,2
 119 242 119 242 119 350 c 128,-1,3
 119 458 119 458 94 543.5 c 128,-1,4
 69 629 69 629 42 644 c 1,5,-1
 42 714 l 1,6,7
 112 714 112 714 154.5 608.5 c 128,-1,8
 197 503 197 503 197 350 c 128,-1,9
 197 197 197 197 154.5 90.5 c 128,-1,10
 112 -16 112 -16 42 -16 c 1,11,-1
 42 54 l 1,0,1
EndSplineSet
Validated: 1
EndChar

StartChar: asterisk
Encoding: 269 42 13
Width: 356
GlyphClass: 2
Flags: HMW
LayerCount: 2
Fore
SplineSet
221 605 m 1,0,-1
 309 605 l 1,1,-1
 309 557 l 1,2,-1
 220 557 l 1,3,-1
 265 479 l 1,4,-1
 223 455 l 1,5,-1
 179 531 l 1,6,-1
 134 455 l 1,7,-1
 92 479 l 1,8,-1
 137 557 l 1,9,-1
 47 557 l 1,10,-1
 47 605 l 1,11,-1
 136 605 l 1,12,-1
 92 682 l 1,13,-1
 134 706 l 1,14,-1
 179 629 l 1,15,-1
 223 706 l 1,16,-1
 265 682 l 1,17,-1
 221 605 l 1,0,-1
EndSplineSet
Validated: 1
EndChar

StartChar: plus
Encoding: 270 43 14
Width: 453
GlyphClass: 2
Flags: HMW
LayerCount: 2
Fore
SplineSet
199 218 m 1,0,-1
 39 218 l 1,1,-1
 39 274 l 1,2,-1
 199 274 l 1,3,-1
 199 434 l 1,4,-1
 255 434 l 1,5,-1
 255 274 l 1,6,-1
 415 274 l 1,7,-1
 415 218 l 1,8,-1
 255 218 l 1,9,-1
 255 58 l 1,10,-1
 199 58 l 1,11,-1
 199 218 l 1,0,-1
EndSplineSet
Validated: 1
EndChar

StartChar: comma
Encoding: 271 44 15
Width: 209
GlyphClass: 2
Flags: HMW
LayerCount: 2
Fore
SplineSet
49 48 m 128,-1,1
 49 71 49 71 65 87 c 128,-1,2
 81 103 81 103 104 103 c 128,-1,3
 127 103 127 103 143.5 87 c 128,-1,4
 160 71 160 71 160 48 c 0,5,6
 160 13 160 13 150.5 -17.5 c 128,-1,7
 141 -48 141 -48 127.5 -67 c 128,-1,8
 114 -86 114 -86 100 -100 c 0,9,10
 88 -112 88 -112 78 -118 c 2,11,-1
 68 -124 l 1,12,-1
 50 -114 l 1,13,14
 89 -75 89 -75 104 -8 c 1,15,16
 81 -8 81 -8 65 8.5 c 128,-1,0
 49 25 49 25 49 48 c 128,-1,1
EndSplineSet
Validated: 1
EndChar

StartChar: hyphen
Encoding: 272 45 16
Width: 340
GlyphClass: 2
Flags: HMW
LayerCount: 2
Fore
SplineSet
57 274 m 1,0,-1
 284 274 l 1,1,-1
 284 218 l 1,2,-1
 57 218 l 1,3,-1
 57 274 l 1,0,-1
EndSplineSet
Validated: 1
EndChar

StartChar: period
Encoding: 273 46 17
Width: 208
GlyphClass: 2
Flags: HMW
LayerCount: 2
Fore
SplineSet
49 48 m 128,-1,1
 49 71 49 71 65 87 c 128,-1,2
 81 103 81 103 104 103 c 128,-1,3
 127 103 127 103 143.5 87 c 128,-1,4
 160 71 160 71 160 48 c 128,-1,5
 160 25 160 25 143.5 8.5 c 128,-1,6
 127 -8 127 -8 104 -8 c 128,-1,7
 81 -8 81 -8 65 8.5 c 128,-1,0
 49 25 49 25 49 48 c 128,-1,1
EndSplineSet
Validated: 1
EndChar

StartChar: slash
Encoding: 274 47 18
Width: 386
GlyphClass: 2
Flags: HMW
LayerCount: 2
Fore
SplineSet
352 698 m 1,0,-1
 98 0 l 1,1,-1
 35 0 l 1,2,-1
 289 698 l 1,3,-1
 352 698 l 1,0,-1
EndSplineSet
Validated: 1
EndChar

StartChar: zero
Encoding: 275 48 19
Width: 574
GlyphClass: 2
Flags: HMW
LayerCount: 2
Back
SplineSet
109 349 m 128
 109 222 166 47 278 47 c 128
 390 47 445 222 445 349 c 128
 445 476 390 650 278 650 c 128
 166 650 109 476 109 349 c 128
40 349 m 128
 40 524 123 714 278 714 c 128
 433 714 515 525 515 349 c 128
 515 173 434 -16 279 -16 c 0
 123 -16 40 173 40 349 c 128
EndSplineSet
Fore
SplineSet
109 349 m 128,-1,1
 109 223 109 223 160 135 c 128,-1,2
 211 47 211 47 278 47 c 128,-1,3
 345 47 345 47 395 135 c 128,-1,4
 445 223 445 223 445 349 c 128,-1,5
 445 475 445 475 395 562.5 c 128,-1,6
 345 650 345 650 278 650 c 128,-1,7
 211 650 211 650 160 562.5 c 128,-1,0
 109 475 109 475 109 349 c 128,-1,1
40 349 m 128,-1,9
 40 514 40 514 112 614 c 128,-1,10
 184 714 184 714 278 714 c 128,-1,11
 372 714 372 714 443.5 614.5 c 128,-1,12
 515 515 515 515 515 349 c 128,-1,13
 515 183 515 183 444 83.5 c 128,-1,14
 373 -16 373 -16 279 -16 c 0,15,16
 184 -16 184 -16 112 84 c 128,-1,8
 40 184 40 184 40 349 c 128,-1,9
EndSplineSet
Validated: 1
EndChar

StartChar: one
Encoding: 276 49 20
Width: 574
GlyphClass: 2
Flags: HMW
LayerCount: 2
Back
SplineSet
392 0 m 1
 316 0 l 1
 316 628 l 1
 392 628 l 1
 392 0 l 1
392 599 m 1
 206 422 l 1
 163 438 l 1
 316 698 l 1
 392 698 l 1
 392 599 l 1
EndSplineSet
Fore
SplineSet
392 0 m 5,0,-1
 316 0 l 5,1,-1
 316 526 l 1,2,-1
 206 422 l 1,3,-1
 163 438 l 1,4,-1
 316 698 l 1,5,-1
 392 698 l 1,6,-1
 392 0 l 5,0,-1
EndSplineSet
Validated: 1
EndChar

StartChar: two
Encoding: 277 50 21
Width: 574
GlyphClass: 2
Flags: HMW
LayerCount: 2
Back
SplineSet
492 70 m 1
 492 0 l 1
 115 0 l 1
 115 70 l 1
 492 70 l 1
72 0 m 1
 72 44 l 2
 72 91 90 139 126 186 c 128
 162 233 213 283 278 335 c 0
 347 391 406 439 406 524 c 0
 406 604 361 644 272 644 c 0
 202 644 162 602 120 546 c 1
 63 594 l 1
 117 665 173 714 272 714 c 0
 398 714 484 649 484 524 c 0
 484 415 408 345 312 274 c 0
 250 229 142 132 142 0 c 1
 72 0 l 1
EndSplineSet
Fore
SplineSet
492 70 m 5,0,-1
 492 0 l 5,1,-1
 72 0 l 1,2,-1
 72 44 l 2,3,4
 72 115 72 115 126 186 c 128,-1,5
 180 257 180 257 278 335 c 1,6,7
 348 392 348 392 377 431.5 c 128,-1,8
 406 471 406 471 406 524 c 0,9,10
 406 644 406 644 272 644 c 0,11,12
 223 644 223 644 191 621 c 128,-1,13
 159 598 159 598 120 546 c 1,14,-1
 63 594 l 1,15,16
 112 658 112 658 159 686 c 128,-1,17
 206 714 206 714 272 714 c 0,18,19
 370 714 370 714 427 664.5 c 128,-1,20
 484 615 484 615 484 524 c 0,21,22
 484 454 484 454 446.5 400 c 128,-1,23
 409 346 409 346 312 274 c 0,24,25
 254 232 254 232 209 176.5 c 128,-1,26
 164 121 164 121 153 70 c 1,27,-1
 492 70 l 5,0,-1
EndSplineSet
Validated: 1
EndChar

StartChar: three
Encoding: 278 51 22
Width: 574
GlyphClass: 2
Flags: MW
LayerCount: 2
Back
SplineSet
206 414 m 21
 286 414 401 456 401 532 c 132
 401 605 351 645 275 645 c 4
 224 645 182 623 150 578 c 5
 94 621 l 5
 131 668 199 714 275 714 c 4
 385 714 478 644 478 534 c 4
 478 462 398 364 206 364 c 5
 206 414 l 21
502 190 m 4
 502 59 380 -16 250 -16 c 4
 170 -16 91 33 53 81 c 5
 108 124 l 5
 134 86 189 53 250 53 c 4
 349 53 425 91 425 190 c 4
 425 306 318 345 206 345 c 5
 206 399 l 5
 409 399 502 322 502 190 c 4
EndSplineSet
Fore
SplineSet
250 53 m 0,0,1
 425 53 425 53 425 195 c 0,2,3
 425 271 425 271 362.5 308 c 128,-1,4
 300 345 300 345 206 345 c 1,5,-1
 206 414 l 1,6,7
 274 414 274 414 337.5 446.5 c 128,-1,8
 401 479 401 479 401 532.5 c 128,-1,9
 401 586 401 586 367 615.5 c 128,-1,10
 333 645 333 645 275 645 c 0,11,12
 198 645 198 645 150 578 c 1,13,-1
 94 621 l 1,14,15
 125 660 125 660 173.5 687 c 128,-1,16
 222 714 222 714 275 714 c 0,17,18
 360 714 360 714 419 664 c 128,-1,19
 478 614 478 614 478 534 c 0,20,21
 478 472 478 472 408 418 c 0,22,23
 381 397 381 397 344 384 c 1,24,25
 502 343 502 343 502 190 c 0,26,27
 502 96 502 96 427.5 40 c 128,-1,28
 353 -16 353 -16 250 -16 c 0,29,30
 193 -16 193 -16 138.5 13 c 128,-1,31
 84 42 84 42 53 81 c 1,32,-1
 108 124 l 1,33,34
 129 94 129 94 167.5 73.5 c 128,-1,35
 206 53 206 53 250 53 c 0,0,1
EndSplineSet
Validated: 1
EndChar

StartChar: four
Encoding: 279 52 23
Width: 574
GlyphClass: 2
Flags: HMW
LayerCount: 2
Back
SplineSet
441 698 m 1
 441 0 l 1
 365 0 l 1
 365 650 l 1
 401 698 l 1
 441 698 l 1
423 698 m 1
 423 662 l 1
 84 180 l 1
 55 180 l 1
 55 256 l 1
 365 698 l 1
 423 698 l 1
77 256 m 1
 510 256 l 1
 510 180 l 1
 77 180 l 1
 77 256 l 1
EndSplineSet
Fore
SplineSet
365 580 m 1,0,-1
 137 256 l 1,1,-1
 365 256 l 1,2,-1
 365 580 l 1,0,-1
365 698 m 1,3,-1
 441 698 l 1,4,-1
 441 256 l 1,5,-1
 510 256 l 1,6,-1
 510 180 l 1,7,-1
 441 180 l 1,8,-1
 441 0 l 5,9,-1
 365 0 l 5,10,-1
 365 180 l 1,11,-1
 55 180 l 1,12,-1
 55 256 l 1,13,-1
 365 698 l 1,3,-1
EndSplineSet
Validated: 1
EndChar

StartChar: five
Encoding: 280 53 24
Width: 574
GlyphClass: 2
Flags: HMW
LayerCount: 2
Back
SplineSet
442 698 m 1
 442 628 l 1
 88 628 l 1
 88 698 l 1
 442 698 l 1
88 682 m 1
 164 682 l 1
 164 415 l 1
 88 415 l 1
 88 682 l 1
88 429 m 1
 119 451 210 466 270 466 c 0
 426 466 508 382 508 225 c 0
 508 80 410 -16 263 -16 c 0
 168 -16 96 15 47 76 c 1
 101 114 l 1
 136 69 190 47 265 47 c 0
 363 47 439 128 439 225 c 0
 439 332 379 402 270 402 c 0
 172 402 138 388 88 364 c 1
 88 429 l 1
EndSplineSet
Fore
SplineSet
47 76 m 1,0,-1
 101 114 l 1,1,2
 153 47 153 47 265 47 c 0,3,4
 340 47 340 47 389.5 100 c 128,-1,5
 439 153 439 153 439 225 c 0,6,7
 439 304 439 304 396 353 c 128,-1,8
 353 402 353 402 270 402 c 0,9,10
 219 402 219 402 184 396.5 c 128,-1,11
 149 391 149 391 136 385.5 c 128,-1,12
 123 380 123 380 88 364 c 1,13,-1
 88 698 l 1,14,-1
 442 698 l 1,15,-1
 442 628 l 1,16,-1
 164 628 l 1,17,-1
 164 454 l 1,18,19
 221 466 221 466 270 466 c 0,20,21
 386 466 386 466 447 405 c 128,-1,22
 508 344 508 344 508 225 c 0,23,24
 508 118 508 118 442 51 c 128,-1,25
 376 -16 376 -16 263 -16 c 0,26,27
 121 -16 121 -16 47 76 c 1,0,-1
EndSplineSet
Validated: 1
EndChar

StartChar: six
Encoding: 281 54 25
Width: 574
GlyphClass: 2
Flags: MW
LayerCount: 2
Back
SplineSet
76 234 m 21
 76 368.5 158.135 476 278 476 c 4
 404.089 476 515 359.429 515 230 c 132
 515 99.4269 402.834 -16 276 -16 c 132
 149.581 -16 40 87 40 230 c 4
 40 491 165 698 396 714 c 5
 396 648 l 5
 181.607 616.905 110 439 110 230 c 132
 110 132.597 183.598 47 278 47 c 132
 372.379 47 446 132.634 446 230 c 132
 446 327.738 372.932 412 278 412 c 132
 176.892 412 110 327.5 110 230 c 13
 76 234 l 21
EndSplineSet
Fore
SplineSet
157 358.5 m 128,-1,1
 110 305 110 305 110 230.5 c 128,-1,2
 110 156 110 156 159 101.5 c 128,-1,3
 208 47 208 47 278 47 c 128,-1,4
 348 47 348 47 397 101.5 c 128,-1,5
 446 156 446 156 446 230 c 128,-1,6
 446 304 446 304 397 358 c 128,-1,7
 348 412 348 412 276 412 c 128,-1,0
 204 412 204 412 157 358.5 c 128,-1,1
130 403 m 1,8,9
 187 476 187 476 279.5 476 c 128,-1,10
 372 476 372 476 443.5 401.5 c 128,-1,11
 515 327 515 327 515 229.5 c 128,-1,12
 515 132 515 132 443 58 c 128,-1,13
 371 -16 371 -16 275 -16 c 128,-1,14
 179 -16 179 -16 109.5 54.5 c 128,-1,15
 40 125 40 125 40 230 c 0,16,17
 40 433 40 433 134 567.5 c 128,-1,18
 228 702 228 702 396 714 c 1,19,-1
 396 648 l 1,20,21
 189 618 189 618 130 403 c 1,8,9
EndSplineSet
Validated: 1
EndChar

StartChar: seven
Encoding: 282 55 26
Width: 574
GlyphClass: 2
Flags: MW
LayerCount: 2
Back
SplineSet
67 628 m 1
 67 698 l 1
 434.6 698 l 1
 434.6 628 l 1
 67 628 l 1
488 698 m 1
 251 0 l 1
 168 0 l 1
 406 698 l 1
 488 698 l 1
EndSplineSet
Fore
SplineSet
67 628 m 1,0,-1
 67 698 l 1,1,-1
 488 698 l 1,2,-1
 251 0 l 1,3,-1
 168 0 l 1,4,-1
 382 628 l 1,5,-1
 67 628 l 1,0,-1
EndSplineSet
Validated: 1
EndChar

StartChar: eight
Encoding: 283 56 27
Width: 574
GlyphClass: 2
Flags: MW
LayerCount: 2
Back
SplineSet
278 367 m 132
 165 367 70 420.733 70 531 c 4
 70 589 91 634 133 666 c 132
 175 698 223.333 714 278 714 c 132
 332.667 714 380.833 698 422.5 666 c 132
 464.167 634 485 589 485 531 c 4
 485 420.149 391 367 278 367 c 132
144 531 m 4
 144 453.169 200.319 416 278 416 c 4
 357.13 416 410 451.78 410 531 c 132
 410 610.241 357.124 645 278 645 c 132
 198.93 645 144 610.237 144 531 c 4
114 200 m 132
 114 100.825 180.402 52 278 52 c 4
 374.438 52 440 101.806 440 200 c 132
 440 298.627 375.188 347 278 347 c 132
 180.958 347 114 298.632 114 200 c 132
40 200 m 4
 40 69.4873 144 -16 279 -16 c 4
 413 -16 515 70.0176 515 200 c 4
 515 331 409 396 278 396 c 4
 147 396 40 331 40 200 c 4
EndSplineSet
Fore
SplineSet
485 531 m 0,0,1
 485 422 485 422 375 382 c 1,2,3
 416 369 416 369 448 345 c 0,4,5
 515 294 515 294 515 199 c 128,-1,6
 515 104 515 104 448 44 c 128,-1,7
 381 -16 381 -16 278.5 -16 c 128,-1,8
 176 -16 176 -16 108 44 c 128,-1,9
 40 104 40 104 40 199 c 128,-1,10
 40 294 40 294 107 345 c 0,11,12
 139 370 139 370 181 382 c 1,13,14
 70 422 70 422 70 531 c 0,15,16
 70 618 70 618 133 666 c 128,-1,17
 196 714 196 714 278 714 c 128,-1,18
 360 714 360 714 422.5 666 c 128,-1,19
 485 618 485 618 485 531 c 0,0,1
114 200 m 128,-1,21
 114 128 114 128 158 90 c 128,-1,22
 202 52 202 52 277 52 c 128,-1,23
 352 52 352 52 396 90 c 128,-1,24
 440 128 440 128 440 200 c 128,-1,25
 440 272 440 272 396.5 309.5 c 128,-1,26
 353 347 353 347 278 347 c 128,-1,27
 203 347 203 347 158.5 309.5 c 128,-1,20
 114 272 114 272 114 200 c 128,-1,21
180 616.5 m 128,-1,29
 144 588 144 588 144 531.5 c 128,-1,30
 144 475 144 475 180.5 445.5 c 128,-1,31
 217 416 217 416 278.5 416 c 128,-1,32
 340 416 340 416 375 444.5 c 128,-1,33
 410 473 410 473 410 530.5 c 128,-1,34
 410 588 410 588 375 616.5 c 128,-1,35
 340 645 340 645 278 645 c 128,-1,28
 216 645 216 645 180 616.5 c 128,-1,29
EndSplineSet
Validated: 1
EndChar

StartChar: nine
Encoding: 284 57 28
Width: 574
GlyphClass: 2
Flags: MW
LayerCount: 2
Back
SplineSet
479 464 m 21
 479 329.5 396.865 222 277 222 c 4
 150.911 222 40 338.571 40 468 c 132
 40 598.573 152.166 714 279 714 c 132
 405.419 714 515 611 515 468 c 4
 515 207 390 0 159 -16 c 5
 159 50 l 5
 373.394 81.0957 445 259 445 468 c 132
 445 565.402 371.401 651 277 651 c 132
 182.621 651 109 565.366 109 468 c 132
 109 370.262 182.067 286 277 286 c 132
 378.107 286 445 370.5 445 468 c 13
 479 464 l 21
EndSplineSet
Fore
SplineSet
398 339.5 m 128,-1,1
 445 393 445 393 445 467.5 c 128,-1,2
 445 542 445 542 396 596.5 c 128,-1,3
 347 651 347 651 277 651 c 128,-1,4
 207 651 207 651 158 596.5 c 128,-1,5
 109 542 109 542 109 468 c 128,-1,6
 109 394 109 394 158 340 c 128,-1,7
 207 286 207 286 279 286 c 128,-1,0
 351 286 351 286 398 339.5 c 128,-1,1
425 295 m 1,8,9
 368 222 368 222 275.5 222 c 128,-1,10
 183 222 183 222 111.5 296.5 c 128,-1,11
 40 371 40 371 40 468.5 c 128,-1,12
 40 566 40 566 112 640 c 128,-1,13
 184 714 184 714 280 714 c 128,-1,14
 376 714 376 714 445.5 643.5 c 128,-1,15
 515 573 515 573 515 468 c 0,16,17
 515 265 515 265 421 130.5 c 128,-1,18
 327 -4 327 -4 159 -16 c 1,19,-1
 159 50 l 1,20,21
 366 80 366 80 425 295 c 1,8,9
EndSplineSet
Validated: 1
EndChar

StartChar: colon
Encoding: 285 58 29
Width: 225
GlyphClass: 2
Flags: HMW
LayerCount: 2
Fore
SplineSet
57 48 m 128,-1,1
 57 71 57 71 73.5 87 c 128,-1,2
 90 103 90 103 113 103 c 128,-1,3
 136 103 136 103 152 87 c 128,-1,4
 168 71 168 71 168 48 c 128,-1,5
 168 25 168 25 152 8.5 c 128,-1,6
 136 -8 136 -8 113 -8 c 128,-1,7
 90 -8 90 -8 73.5 8.5 c 128,-1,0
 57 25 57 25 57 48 c 128,-1,1
57 428 m 128,-1,9
 57 451 57 451 73.5 467 c 128,-1,10
 90 483 90 483 113 483 c 128,-1,11
 136 483 136 483 152 467 c 128,-1,12
 168 451 168 451 168 428 c 128,-1,13
 168 405 168 405 152 388.5 c 128,-1,14
 136 372 136 372 113 372 c 128,-1,15
 90 372 90 372 73.5 388.5 c 128,-1,8
 57 405 57 405 57 428 c 128,-1,9
EndSplineSet
Validated: 1
EndChar

StartChar: semicolon
Encoding: 286 59 30
Width: 225
GlyphClass: 2
Flags: HMW
LayerCount: 2
Fore
SplineSet
57 428 m 128,-1,1
 57 451 57 451 73.5 467 c 128,-1,2
 90 483 90 483 113 483 c 128,-1,3
 136 483 136 483 152 467 c 128,-1,4
 168 451 168 451 168 428 c 128,-1,5
 168 405 168 405 152 388.5 c 128,-1,6
 136 372 136 372 113 372 c 128,-1,7
 90 372 90 372 73.5 388.5 c 128,-1,0
 57 405 57 405 57 428 c 128,-1,1
57 48 m 128,-1,9
 57 71 57 71 73.5 87 c 128,-1,10
 90 103 90 103 113 103 c 128,-1,11
 136 103 136 103 152 87 c 128,-1,12
 168 71 168 71 168 48 c 0,13,14
 168 13 168 13 158.5 -17.5 c 128,-1,15
 149 -48 149 -48 135.5 -67 c 128,-1,16
 122 -86 122 -86 108 -100 c 0,17,18
 96 -112 96 -112 86 -118 c 2,19,-1
 76 -124 l 1,20,-1
 58 -114 l 1,21,22
 98 -75 98 -75 113 -8 c 1,23,24
 90 -8 90 -8 73.5 8.5 c 128,-1,8
 57 25 57 25 57 48 c 128,-1,9
EndSplineSet
Validated: 1
EndChar

StartChar: less
Encoding: 287 60 31
Width: 492
GlyphClass: 2
Flags: HMW
LayerCount: 2
Fore
SplineSet
27 292 m 1,0,-1
 394 600 l 1,1,-1
 439 546 l 1,2,-1
 136 292 l 1,3,-1
 439 38 l 1,4,-1
 394 -16 l 1,5,-1
 27 292 l 1,0,-1
EndSplineSet
Validated: 1
EndChar

StartChar: equal
Encoding: 288 61 32
Width: 408
GlyphClass: 2
Flags: HMW
LayerCount: 2
Fore
SplineSet
67 330 m 1,0,-1
 342 330 l 1,1,-1
 342 274 l 1,2,-1
 67 274 l 1,3,-1
 67 330 l 1,0,-1
67 218 m 1,4,-1
 342 218 l 1,5,-1
 342 162 l 1,6,-1
 67 162 l 1,7,-1
 67 218 l 1,4,-1
EndSplineSet
Validated: 1
EndChar

StartChar: greater
Encoding: 289 62 33
Width: 492
GlyphClass: 2
Flags: HMW
LayerCount: 2
Fore
SplineSet
466 292 m 1,0,-1
 98 -16 l 1,1,-1
 53 38 l 1,2,-1
 356 292 l 1,3,-1
 53 546 l 1,4,-1
 98 600 l 1,5,-1
 466 292 l 1,0,-1
EndSplineSet
Validated: 1
EndChar

StartChar: question
Encoding: 290 63 34
Width: 472
GlyphClass: 2
Flags: HMW
LayerCount: 2
Back
SplineSet
214 -8 m 132
 184 -8 159 18 159 48 c 132
 159 78 184 103 214 103 c 132
 244 103 270 78 270 48 c 132
 270 18 244 -8 214 -8 c 132
224 650 m 4
 155 650 112 607 94 552 c 5
 30 572 l 5
 57 646 129 714 224 714 c 4
 338 714 432 629 432 516 c 4
 432 318 250 365 250 190 c 5
 180 190 l 5
 180 410 362 348 362 516 c 4
 362 596 306 650 224 650 c 4
EndSplineSet
Fore
SplineSet
214 -8 m 128,-1,1
 192 -8 192 -8 175.5 8.5 c 128,-1,2
 159 25 159 25 159 47.5 c 128,-1,3
 159 70 159 70 175.5 86.5 c 128,-1,4
 192 103 192 103 214.5 103 c 128,-1,5
 237 103 237 103 253.5 86.5 c 128,-1,6
 270 70 270 70 270 48 c 128,-1,7
 270 26 270 26 253 9 c 128,-1,0
 236 -8 236 -8 214 -8 c 128,-1,1
324 613 m 128,-1,9
 286 650 286 650 230.5 650 c 128,-1,10
 175 650 175 650 141.5 623 c 128,-1,11
 108 596 108 596 94 552 c 1,12,-1
 30 572 l 1,13,14
 52 631 52 631 104 672.5 c 128,-1,15
 156 714 156 714 233 714 c 128,-1,16
 310 714 310 714 371 657 c 128,-1,17
 432 600 432 600 432 516 c 0,18,19
 432 470 432 470 418.5 435.5 c 128,-1,20
 405 401 405 401 385 382.5 c 128,-1,21
 365 364 365 364 341 344.5 c 128,-1,22
 317 325 317 325 297 308.5 c 128,-1,23
 277 292 277 292 263.5 261.5 c 128,-1,24
 250 231 250 231 250 190 c 1,25,-1
 180 190 l 1,26,27
 180 241 180 241 193.5 278.5 c 128,-1,28
 207 316 207 316 227 335 c 128,-1,29
 247 354 247 354 271 372.5 c 128,-1,30
 295 391 295 391 315 406 c 0,31,32
 362 441.25 362 441.25 362 508.625 c 128,-1,8
 362 576 362 576 324 613 c 128,-1,9
EndSplineSet
EndChar

StartChar: at
Encoding: 291 64 35
Width: 769
GlyphClass: 2
Flags: HMW
LayerCount: 2
Fore
SplineSet
384 56 m 0,0,1
 304 56 304 56 261.5 117 c 128,-1,2
 219 178 219 178 219 285 c 0,3,4
 219 390 219 390 261 449 c 128,-1,5
 303 508 303 508 382 508 c 0,6,7
 439 508 439 508 481 469 c 1,8,-1
 481 490 l 1,9,-1
 545 490 l 1,10,-1
 545 191 l 2,11,12
 545 159 545 159 562.5 143 c 128,-1,13
 580 127 580 127 597 127 c 0,14,15
 628 127 628 127 646 173.5 c 128,-1,16
 664 220 664 220 664 294 c 0,17,18
 664 462 664 462 594.5 555 c 128,-1,19
 525 648 525 648 382 648 c 0,20,21
 286 648 286 648 198.5 548.5 c 128,-1,22
 111 449 111 449 111 319 c 0,23,24
 111 133 111 133 194 23.5 c 128,-1,25
 277 -86 277 -86 419 -86 c 0,26,27
 479 -86 479 -86 554 -59 c 1,28,-1
 582 -119 l 1,29,30
 495 -150 495 -150 419 -150 c 0,31,32
 250 -150 250 -150 145.5 -23 c 128,-1,33
 41 104 41 104 41 316 c 0,34,35
 41 395 41 395 72 469.5 c 128,-1,36
 103 544 103 544 152 596.5 c 128,-1,37
 201 649 201 649 262 680.5 c 128,-1,38
 323 712 323 712 382 712 c 0,39,40
 556 712 556 712 645 596 c 128,-1,41
 734 480 734 480 734 278 c 0,42,43
 734 238 734 238 727 201 c 128,-1,44
 720 164 720 164 705 130.5 c 128,-1,45
 690 97 690 97 662.5 77 c 128,-1,46
 635 57 635 57 597 57 c 0,47,48
 524 57 524 57 497 112 c 1,49,50
 453 56 453 56 384 56 c 0,0,1
481 282 m 0,51,52
 481 348 481 348 454 396 c 128,-1,53
 427 444 427 444 382 444 c 128,-1,54
 337 444 337 444 309.5 396 c 128,-1,55
 282 348 282 348 282 282 c 0,56,57
 282 214 282 214 309 166.5 c 128,-1,58
 336 119 336 119 382 119 c 0,59,60
 427 119 427 119 454 165.5 c 128,-1,61
 481 212 481 212 481 282 c 0,51,52
EndSplineSet
Validated: 1
EndChar

StartChar: A
Encoding: 292 65 36
Width: 589
GlyphClass: 2
Flags: MW
AnchorPoint: "above" 295 743 basechar 0
AnchorPoint: "below" 295 0 basechar 0
AnchorPoint: "ogonek" 515 0 basechar 0
LayerCount: 2
Back
SplineSet
123 259 m 1
 485 259 l 1
 485 196 l 1
 123 196 l 1
 123 259 l 1
590 0 m 25
 508 0 l 1
 285 611 l 1
 285 698 l 1
 335 698 l 1
 590 0 l 25
301 600 m 1
 83 0 l 1
 1 0 l 1
 255 698 l 1
 301 698 l 1
 301 600 l 1
EndSplineSet
Fore
SplineSet
336 696 m 1,0,-1
 590 0 l 1,1,-1
 508 0 l 1,2,-1
 436 196 l 1,3,-1
 154 196 l 1,4,-1
 83 0 l 1,5,-1
 1 0 l 1,6,-1
 254 696 l 1,7,-1
 254 698 l 1,8,-1
 337 698 l 1,9,-1
 336 696 l 1,0,-1
295 584 m 1,10,-1
 177 259 l 1,11,-1
 414 259 l 1,12,-1
 295 584 l 1,10,-1
EndSplineSet
Validated: 1
EndChar

StartChar: B
Encoding: 293 66 37
Width: 588
GlyphClass: 2
Flags: MW
AnchorPoint: "above" 265 743 basechar 0
AnchorPoint: "below" 285 0 basechar 0
LayerCount: 2
Back
SplineSet
281 698 m 6
 135 698 l 29
 135 634 l 29
 281.5 634 l 6
 376 634 418 579.5 418 523 c 4
 418 453.5 361 411 284 411 c 6
 135 411 l 29
 135 351 l 29
 266 351 l 6
 372 351 502 391.5 502 525 c 4
 502 613.5 425 698 281 698 c 6
302 406 m 6
 135 406 l 29
 135 346 l 29
 307 346 l 6
 401 346 465 292 465 206 c 4
 465 113 395 63 302 63 c 6
 135 63 l 29
 135 0 l 29
 307 0 l 6
 424 0 549 61 549 208 c 4
 549 325 447 406 302 406 c 6
158 698 m 5
 158 0 l 5
 81 0 l 5
 81 698 l 5
 158 698 l 5
EndSplineSet
Fore
SplineSet
502 525 m 0,0,1
 502 435 502 435 420 385 c 1,2,3
 453 372 453 372 480 351 c 0,4,5
 549 296 549 296 549 208 c 0,6,7
 549 138 549 138 512 90 c 0,8,9
 444 0 444 0 307 0 c 2,10,-1
 81 0 l 1,11,-1
 81 698 l 1,12,-1
 281 698 l 2,13,14
 384 698 384 698 443 647 c 128,-1,15
 502 596 502 596 502 525 c 0,0,1
158 346 m 1,16,-1
 158 63 l 1,17,-1
 302 63 l 2,18,19
 374 63 374 63 419.5 100.5 c 128,-1,20
 465 138 465 138 465 204 c 128,-1,21
 465 270 465 270 421.5 308 c 128,-1,22
 378 346 378 346 307 346 c 2,23,-1
 158 346 l 1,16,-1
158 634 m 1,24,-1
 158 411 l 1,25,-1
 284 411 l 2,26,27
 343 411 343 411 380.5 441.5 c 128,-1,28
 418 472 418 472 418 520.5 c 128,-1,29
 418 569 418 569 383 601.5 c 128,-1,30
 348 634 348 634 282 634 c 2,31,-1
 158 634 l 1,24,-1
EndSplineSet
Validated: 1
EndChar

StartChar: C
Encoding: 294 67 38
Width: 586
GlyphClass: 2
Flags: HMW
AnchorPoint: "above" 330 743 basechar 0
AnchorPoint: "below" 327 0 basechar 0
LayerCount: 2
Back
SplineSet
123 348 m 128
 123 208 194 54 327 54 c 0
 391 54 446 97 493 183 c 1
 559 147 l 1
 496 38 419 -16 327 -16 c 0
 157 -16 45 163 45 348 c 128
 45 533 157 714 327 714 c 0
 412 714 485 666 547 570 c 1
 486 527 l 1
 439 605 386 644 327 644 c 0
 195 644 123 487 123 348 c 128
EndSplineSet
Fore
SplineSet
559 147 m 1,0,1
 465 -16 465 -16 327 -16 c 0,2,3
 210 -16 210 -16 127.5 91.5 c 128,-1,4
 45 199 45 199 45 348 c 128,-1,5
 45 497 45 497 127.5 605.5 c 128,-1,6
 210 714 210 714 327 714 c 0,7,8
 454 714 454 714 547 570 c 1,9,-1
 486 527 l 1,10,11
 415 644 415 644 327 644 c 0,12,13
 238 644 238 644 180.5 556 c 128,-1,14
 123 468 123 468 123 348 c 128,-1,15
 123 228 123 228 180 141 c 128,-1,16
 237 54 237 54 327 54 c 0,17,18
 423 54 423 54 493 183 c 1,19,-1
 559 147 l 1,0,1
EndSplineSet
Validated: 1
EndChar

StartChar: D
Encoding: 295 68 39
Width: 624
GlyphClass: 2
Flags: HMW
AnchorPoint: "above" 280 743 basechar 0
AnchorPoint: "below" 215 0 basechar 0
LayerCount: 2
Back
SplineSet
123 0 m 17
 123 70 l 1
 214 70 l 2
 350 70 498 125 498 347 c 0
 498 546 385 628 214 628 c 10
 143 628 l 25
 143 698 l 25
 232 698 l 18
 390 698 579 609 579 346 c 0
 579 115 422.648 0 230 0 c 18
 123 0 l 17
143 628 m 25
 143 698 l 25
143 628 m 25
 143 698 l 25
81 698 m 5
 158 698 l 5
 158 0 l 1
 81 0 l 1
 81 698 l 5
EndSplineSet
Fore
SplineSet
81 0 m 1,0,-1
 81 698 l 1,1,-1
 233 698 l 2,2,3
 301 698 301 698 361.5 677 c 128,-1,4
 422 656 422 656 471.5 615 c 128,-1,5
 521 574 521 574 550 505 c 128,-1,6
 579 436 579 436 579 348 c 128,-1,7
 579 260 579 260 550 191.5 c 128,-1,8
 521 123 521 123 471.5 82 c 128,-1,9
 422 41 422 41 361.5 20.5 c 128,-1,10
 301 0 301 0 233 0 c 2,11,-1
 81 0 l 1,0,-1
158 628 m 1,12,-1
 158 70 l 1,13,-1
 211 70 l 2,14,15
 348 70 348 70 423 138.5 c 128,-1,16
 498 207 498 207 498 348 c 0,17,18
 498 490 498 490 423 559 c 128,-1,19
 348 628 348 628 211 628 c 2,20,-1
 158 628 l 1,12,-1
EndSplineSet
Validated: 1
EndChar

StartChar: E
Encoding: 296 69 40
Width: 515
GlyphClass: 2
Flags: HMW
AnchorPoint: "above" 292 743 basechar 0
AnchorPoint: "below" 292 0 basechar 0
AnchorPoint: "ogonek" 427 0 basechar 0
LayerCount: 2
Back
SplineSet
81 0 m 5
 81 698 l 5
 158 698 l 5
 158 0 l 5
 81 0 l 5
130.5 63 m 5
 475 63 l 5
 475 0 l 5
 138.5 0 l 5
 130.5 63 l 5
138.5 698 m 5
 472 698 l 5
 472 634 l 5
 130.5 634 l 5
 138.5 698 l 5
130.5 411 m 5
 403 411 l 5
 403 348 l 5
 130.5 348 l 5
 130.5 411 l 5
EndSplineSet
Fore
SplineSet
81 0 m 1,0,-1
 81 698 l 1,1,-1
 472 698 l 1,2,-1
 472 634 l 1,3,-1
 158 634 l 1,4,-1
 158 411 l 1,5,-1
 403 411 l 1,6,-1
 403 348 l 1,7,-1
 158 348 l 1,8,-1
 158 63 l 1,9,-1
 475 63 l 1,10,-1
 475 0 l 1,11,-1
 81 0 l 1,0,-1
EndSplineSet
Validated: 1
EndChar

StartChar: F
Encoding: 297 70 41
Width: 490
GlyphClass: 2
Flags: HMW
AnchorPoint: "above" 289 743 basechar 0
AnchorPoint: "below" 222 0 basechar 0
LayerCount: 2
Back
SplineSet
81 698 m 1
 158 698 l 1
 158 0 l 1
 81 0 l 1
 81 698 l 1
125 698 m 1
 472 698 l 1
 472 634 l 1
 125 634 l 1
 125 698 l 1
125 411 m 1
 403 411 l 1
 403 348 l 1
 125 348 l 1
 125 411 l 1
EndSplineSet
Fore
SplineSet
81 0 m 1,0,-1
 81 698 l 1,1,-1
 472 698 l 1,2,-1
 472 634 l 1,3,-1
 158 634 l 1,4,-1
 158 411 l 1,5,-1
 403 411 l 1,6,-1
 403 348 l 1,7,-1
 158 348 l 1,8,-1
 158 0 l 1,9,-1
 81 0 l 1,0,-1
EndSplineSet
Validated: 1
EndChar

StartChar: G
Encoding: 298 71 42
Width: 621
GlyphClass: 2
Flags: HMW
AnchorPoint: "above" 331 743 basechar 0
AnchorPoint: "below" 312 0 basechar 0
LayerCount: 2
Back
SplineSet
578 298 m 2
 578 96 502 -16 312 -16 c 0
 141 -16 45 169 45 348 c 128
 45 532 155 714 332 714 c 0
 452 714 505 652 557 570 c 1
 496 527 l 1
 459 590 420 644 332 644 c 0
 195 644 123 491 123 348 c 0
 123 208 181 54 312 54 c 0
 464 54 502 142 502 298 c 1
 337 298 l 1
 337 361 l 1
 578 361 l 1
 578 298 l 2
EndSplineSet
Fore
SplineSet
337 298 m 1,0,-1
 337 361 l 1,1,-1
 578 361 l 1,2,-1
 578 298 l 2,3,4
 578 133 578 133 509.5 58.5 c 128,-1,5
 441 -16 441 -16 312 -16 c 0,6,7
 196 -16 196 -16 120.5 90.5 c 128,-1,8
 45 197 45 197 45 348 c 128,-1,9
 45 499 45 499 126 606.5 c 128,-1,10
 207 714 207 714 332 714 c 0,11,12
 411 714 411 714 460.5 678.5 c 128,-1,13
 510 643 510 643 557 570 c 1,14,-1
 496 527 l 1,15,16
 461 585 461 585 425 614.5 c 128,-1,17
 389 644 389 644 332 644 c 0,18,19
 238 644 238 644 180.5 556.5 c 128,-1,20
 123 469 123 469 123 348 c 0,21,22
 123 226 123 226 173.5 140 c 128,-1,23
 224 54 224 54 312 54 c 0,24,25
 358 54 358 54 388.5 62.5 c 128,-1,26
 419 71 419 71 447 95.5 c 128,-1,27
 475 120 475 120 488.5 170 c 128,-1,28
 502 220 502 220 502 298 c 1,29,-1
 337 298 l 1,0,-1
EndSplineSet
Validated: 1
EndChar

StartChar: H
Encoding: 299 72 43
Width: 622
GlyphClass: 2
Flags: HMW
AnchorPoint: "above" 315 743 basechar 0
AnchorPoint: "below" 314 0 basechar 0
LayerCount: 2
Back
SplineSet
118 396 m 1
 505 396 l 1
 505 333 l 1
 118 333 l 1
 118 396 l 1
465 698 m 1
 542 698 l 1
 542 0 l 1
 465 0 l 1
 465 698 l 1
158 0 m 1
 81 0 l 1
 81 698 l 1
 158 698 l 1
 158 0 l 1
EndSplineSet
Fore
SplineSet
81 0 m 1,0,-1
 81 698 l 1,1,-1
 158 698 l 1,2,-1
 158 396 l 1,3,-1
 465 396 l 1,4,-1
 465 698 l 1,5,-1
 542 698 l 1,6,-1
 542 0 l 1,7,-1
 465 0 l 1,8,-1
 465 333 l 1,9,-1
 158 333 l 1,10,-1
 158 0 l 1,11,-1
 81 0 l 1,0,-1
EndSplineSet
Validated: 1
EndChar

StartChar: I
Encoding: 300 73 44
Width: 259
GlyphClass: 2
Flags: HMW
AnchorPoint: "above" 130 743 basechar 0
AnchorPoint: "below" 130 0 basechar 0
AnchorPoint: "ogonek" 175 0 basechar 0
LayerCount: 2
Back
SplineSet
168 671 m 1
 168 28 l 1
 91 28 l 1
 91 671 l 1
 168 671 l 1
205 68 m 1
 205 0 l 1
 54 0 l 1
 54 68 l 1
 205 68 l 1
54 631 m 1
 54 698 l 1
 205 698 l 1
 205 631 l 1
 54 631 l 1
EndSplineSet
Fore
SplineSet
168 631 m 1,0,-1
 168 68 l 1,1,-1
 205 68 l 1,2,-1
 205 0 l 1,3,-1
 54 0 l 1,4,-1
 54 68 l 1,5,-1
 91 68 l 1,6,-1
 91 631 l 1,7,-1
 54 631 l 1,8,-1
 54 698 l 1,9,-1
 205 698 l 1,10,-1
 205 631 l 1,11,-1
 168 631 l 1,0,-1
EndSplineSet
Validated: 1
EndChar

StartChar: J
Encoding: 301 74 45
Width: 501
GlyphClass: 2
Flags: HMW
AnchorPoint: "above" 389 743 basechar 0
AnchorPoint: "below" 210 0 basechar 0
LayerCount: 2
Back
SplineSet
77 161 m 1
 95 104 138 55 208 55 c 0
 303 55 349 111 349 210 c 2
 349 698 l 1
 426 698 l 1
 426 210 l 2
 426 79 338 -16 210 -16 c 0
 114 -16 42 57 12 130 c 1
 77 161 l 1
EndSplineSet
Fore
SplineSet
77 161 m 1,0,1
 92 112 92 112 126.5 83.5 c 128,-1,2
 161 55 161 55 208 55 c 0,3,4
 276 55 276 55 312.5 93.5 c 128,-1,5
 349 132 349 132 349 210 c 2,6,-1
 349 698 l 1,7,-1
 426 698 l 1,8,-1
 426 210 l 2,9,10
 426 107 426 107 364 45.5 c 128,-1,11
 302 -16 302 -16 210 -16 c 0,12,13
 147 -16 147 -16 93 24.5 c 128,-1,14
 39 65 39 65 12 130 c 1,15,-1
 77 161 l 1,0,1
EndSplineSet
Validated: 1
EndChar

StartChar: K
Encoding: 302 75 46
Width: 545
GlyphClass: 2
Flags: HMW
AnchorPoint: "above" 281 743 basechar 0
AnchorPoint: "below" 296 0 basechar 0
LayerCount: 2
Back
SplineSet
148 358 m 1xd0
 433 698 l 1
 532 698 l 1
 148 240 l 1
 148 358 l 1xd0
268 394 m 1
 544 0 l 1
 451 0 l 1
 217 334 l 1
 268 394 l 1
158 0 m 1xe0
 81 0 l 1
 81 698 l 1
 158 698 l 1
 158 0 l 1xe0
EndSplineSet
Fore
SplineSet
81 0 m 1,0,-1
 81 698 l 1,1,-1
 158 698 l 1,2,-1
 158 370 l 1,3,-1
 433 698 l 1,4,-1
 532 698 l 1,5,-1
 272 388 l 1,6,-1
 544 0 l 1,7,-1
 451 0 l 1,8,-1
 221 328 l 1,9,-1
 158 252 l 1,10,-1
 158 0 l 1,11,-1
 81 0 l 1,0,-1
EndSplineSet
Validated: 1
EndChar

StartChar: L
Encoding: 303 76 47
Width: 446
GlyphClass: 2
Flags: MW
AnchorPoint: "above" 120 743 basechar 0
AnchorPoint: "below" 273 0 basechar 0
LayerCount: 2
Back
SplineSet
81 0 m 1
 81 698 l 1
 158 698 l 1
 158 0 l 1
 81 0 l 1
118 63 m 1
 431 63 l 1
 431 0 l 1
 121 0 l 1
 118 63 l 1
EndSplineSet
Fore
SplineSet
81 0 m 1,0,-1
 81 698 l 1,1,-1
 158 698 l 1,2,-1
 158 63 l 1,3,-1
 431 63 l 1,4,-1
 431 0 l 1,5,-1
 81 0 l 1,0,-1
EndSplineSet
Validated: 1
EndChar

StartChar: M
Encoding: 304 77 48
Width: 812
GlyphClass: 2
Flags: HMW
AnchorPoint: "above" 404 743 basechar 0
AnchorPoint: "below" 407 0 basechar 0
LayerCount: 2
Back
SplineSet
677 698 m 1
 731 698 l 1
 731 0 l 1
 655 0 l 1
 655 619 l 1
 677 698 l 1
127 698 m 1
 158 627 l 1
 158 0 l 1
 81 0 l 1
 81 698 l 1
 127 698 l 1
706 698 m 1
 706 642 l 1
 447 0 l 1
 403 0 l 1
 403 91 l 1
 648 698 l 1
 706 698 l 1
164 698 m 1
 429 47 l 1
 429 0 l 1
 366 0 l 1
 99 660 l 1
 99 698 l 1
 164 698 l 1
EndSplineSet
Fore
SplineSet
81 0 m 1,0,-1
 81 698 l 1,1,-1
 164 698 l 1,2,-1
 407 101 l 1,3,-1
 648 698 l 1,4,-1
 731 698 l 1,5,-1
 731 0 l 1,6,-1
 655 0 l 1,7,-1
 655 515 l 1,8,-1
 447 0 l 1,9,-1
 366 0 l 1,10,-1
 158 514 l 1,11,-1
 158 0 l 1,12,-1
 81 0 l 1,0,-1
EndSplineSet
Validated: 1
EndChar

StartChar: N
Encoding: 305 78 49
Width: 644
GlyphClass: 2
Flags: HMW
AnchorPoint: "above" 328 743 basechar 0
AnchorPoint: "below" 328 0 basechar 0
LayerCount: 2
Back
SplineSet
510 0 m 1
 487 42 l 1
 487 698 l 1
 563 698 l 1
 563 0 l 1
 510 0 l 1
130 698 m 1
 158 635 l 1
 158 0 l 1
 81 0 l 1
 81 698 l 1
 130 698 l 1
112 698 m 1
 158 698 l 1
 528 55 l 1
 528 0 l 1
 487 0 l 1
 112 650 l 1
 112 698 l 1
EndSplineSet
Fore
SplineSet
81 0 m 1,0,-1
 81 698 l 1,1,-1
 158 698 l 1,2,-1
 487 126 l 5,3,-1
 487 698 l 5,4,-1
 563 698 l 5,5,-1
 563 0 l 5,6,-1
 487 0 l 1,7,-1
 158 570 l 1,8,-1
 158 0 l 1,9,-1
 81 0 l 1,0,-1
EndSplineSet
Validated: 1
EndChar

StartChar: O
Encoding: 306 79 50
Width: 686
GlyphClass: 2
Flags: HMW
AnchorPoint: "above" 343 743 basechar 0
AnchorPoint: "below" 343 0 basechar 0
AnchorPoint: "ogonek" 375 0 basechar 0
LayerCount: 2
Back
SplineSet
124 348 m 4
 124 210 210 54 343 54 c 132
 476 54 562 210 562 348 c 4
 562 487 476 644 343 644 c 132
 210 644 124 487 124 348 c 4
43 348 m 132
 43 526 172 714 343 714 c 132
 514 714 643 526 643 348 c 132
 643 170 514 -16 343 -16 c 132
 172 -16 43 170 43 348 c 132
EndSplineSet
Fore
SplineSet
124 348 m 0,0,1
 124 231 124 231 188 142.5 c 128,-1,2
 252 54 252 54 343 54 c 128,-1,3
 434 54 434 54 498 142.5 c 128,-1,4
 562 231 562 231 562 348 c 0,5,6
 562 466 562 466 498 555 c 128,-1,7
 434 644 434 644 343 644 c 128,-1,8
 252 644 252 644 188 555 c 128,-1,9
 124 466 124 466 124 348 c 0,0,1
43 348 m 128,-1,11
 43 495 43 495 133.5 604.5 c 128,-1,12
 224 714 224 714 343 714 c 128,-1,13
 462 714 462 714 552.5 604.5 c 128,-1,14
 643 495 643 495 643 348 c 128,-1,15
 643 201 643 201 552.5 92.5 c 128,-1,16
 462 -16 462 -16 343 -16 c 128,-1,17
 224 -16 224 -16 133.5 92.5 c 128,-1,10
 43 201 43 201 43 348 c 128,-1,11
EndSplineSet
Validated: 1
EndChar

StartChar: P
Encoding: 307 80 51
Width: 570
GlyphClass: 2
Flags: HMW
AnchorPoint: "above" 287 743 basechar 0
AnchorPoint: "below" 201 0 basechar 0
LayerCount: 2
Back
SplineSet
158 0 m 5
 81 0 l 5
 81 698 l 5
 158 698 l 5
 158 0 l 5
125 698 m 5
 304 698 l 6
 433.973 698 549 624.346 549 493 c 132
 549 361.654 436.02 288 306 288 c 6
 125 288 l 5
 125 352 l 5
 304 352 l 6
 395.664 352 465 401.498 465 493 c 132
 465 584.5 395.658 634 304 634 c 6
 125 634 l 5
 125 698 l 5
EndSplineSet
Fore
SplineSet
81 0 m 1,0,-1
 81 698 l 1,1,-1
 304 698 l 2,2,3
 402 698 402 698 475.5 645 c 128,-1,4
 549 592 549 592 549 493 c 128,-1,5
 549 394 549 394 476.5 341 c 128,-1,6
 404 288 404 288 306 288 c 2,7,-1
 158 288 l 1,8,-1
 158 0 l 1,9,-1
 81 0 l 1,0,-1
158 634 m 1,10,-1
 158 352 l 1,11,-1
 304 352 l 2,12,13
 374 352 374 352 419.5 388.5 c 128,-1,14
 465 425 465 425 465 493 c 128,-1,15
 465 561 465 561 419.5 597.5 c 128,-1,16
 374 634 374 634 304 634 c 2,17,-1
 158 634 l 1,10,-1
EndSplineSet
Validated: 1
EndChar

StartChar: Q
Encoding: 308 81 52
Width: 686
GlyphClass: 2
Flags: HMW
LayerCount: 2
Back
SplineSet
375 171 m 1
 420 216 l 1
 623 14 l 1
 578 -30 l 1
 375 171 l 1
124 348 m 0
 124 210 210 54 343 54 c 128
 476 54 562 210 562 348 c 0
 562 487 476 644 343 644 c 128
 210 644 124 487 124 348 c 0
43 348 m 128
 43 526 172 714 343 714 c 128
 514 714 643 526 643 348 c 128
 643 170 514 -16 343 -16 c 128
 172 -16 43 170 43 348 c 128
EndSplineSet
Fore
SplineSet
43 348 m 128,-1,1
 43 495 43 495 133.5 604.5 c 128,-1,2
 224 714 224 714 343 714 c 128,-1,3
 462 714 462 714 552.5 604.5 c 128,-1,4
 643 495 643 495 643 348 c 0,5,6
 643 198 643 198 549 88 c 1,7,-1
 623 14 l 5,8,-1
 578 -30 l 5,9,-1
 503 44 l 1,10,11
 429 -16 429 -16 343 -16 c 0,12,13
 224 -16 224 -16 133.5 92.5 c 128,-1,0
 43 201 43 201 43 348 c 128,-1,1
124 348 m 0,14,15
 124 231 124 231 188 142.5 c 128,-1,16
 252 54 252 54 343 54 c 0,17,18
 404 54 404 54 453 94 c 1,19,-1
 375 171 l 1,20,-1
 420 216 l 1,21,-1
 497 140 l 1,22,23
 562 226 562 226 562 348 c 0,24,25
 562 466 562 466 498 555 c 128,-1,26
 434 644 434 644 343 644 c 128,-1,27
 252 644 252 644 188 555 c 128,-1,28
 124 466 124 466 124 348 c 0,14,15
EndSplineSet
Validated: 1
EndChar

StartChar: R
Encoding: 309 82 53
Width: 594
GlyphClass: 2
Flags: HMW
AnchorPoint: "above" 306 743 basechar 0
AnchorPoint: "below" 300 0 basechar 0
LayerCount: 2
Back
SplineSet
379 310 m 1
 558 0 l 1
 473 0 l 1
 300 300 l 1
 379 310 l 1
158 0 m 1
 81 0 l 1
 81 698 l 1
 158 698 l 1
 158 0 l 1
125 698 m 1
 304 698 l 2
 433.973 698 549 624.346 549 493 c 128
 549 361.654 436.02 288 306 288 c 2
 125 288 l 1
 125 352 l 1
 304 352 l 2
 395.664 352 465 401.498 465 493 c 128
 465 584.5 395.658 634 304 634 c 2
 125 634 l 1
 125 698 l 1
EndSplineSet
Fore
SplineSet
81 0 m 1,0,-1
 81 698 l 1,1,-1
 304 698 l 2,2,3
 402 698 402 698 475.5 645 c 128,-1,4
 549 592 549 592 549 493 c 0,5,6
 549 415 549 415 503.5 366 c 128,-1,7
 458 317 458 317 386 298 c 5,8,-1
 558 0 l 5,9,-1
 473 0 l 5,10,-1
 307 288 l 5,11,-1
 306 288 l 1,12,-1
 158 288 l 1,13,-1
 158 0 l 1,14,-1
 81 0 l 1,0,-1
158 634 m 1,15,-1
 158 352 l 1,16,-1
 304 352 l 2,17,18
 374 352 374 352 419.5 388.5 c 128,-1,19
 465 425 465 425 465 493 c 128,-1,20
 465 561 465 561 419.5 597.5 c 128,-1,21
 374 634 374 634 304 634 c 2,22,-1
 158 634 l 1,15,-1
EndSplineSet
Validated: 1
EndChar

StartChar: S
Encoding: 310 83 54
Width: 565
GlyphClass: 2
Flags: HMW
AnchorPoint: "above" 287 743 basechar 0
AnchorPoint: "ogonek" 269 0 basechar 0
LayerCount: 2
Back
SplineSet
526 174 m 0
 526 39 412 -16 269 -16 c 0
 162 -16 78 56 32 128 c 1
 92 171 l 1
 125 115 188 54 269 54 c 0
 374 54 449 79 449 174 c 0
 449 261 378 289 285 314 c 0
 166 346 58 391 58 524 c 0
 58 654 149 714 283 714 c 0
 370 714 445 674 506 594 c 1
 449 546 l 1
 400 611 345 644 283 644 c 0
 187 644 136 614 136 524 c 0
 136 424 227.5 417 301 390 c 0
 430.717 342.349 526 315 526 174 c 0
EndSplineSet
Fore
SplineSet
285 314 m 0,0,1
 174 344 174 344 116 392 c 128,-1,2
 58 440 58 440 58 524 c 0,3,4
 58 616 58 616 117 665 c 128,-1,5
 176 714 176 714 283 714 c 0,6,7
 414 714 414 714 506 594 c 1,8,-1
 449 546 l 1,9,10
 376 644 376 644 283 644 c 0,11,12
 205 644 205 644 170.5 615 c 128,-1,13
 136 586 136 586 136 524 c 0,14,15
 136 500 136 500 143.5 481.5 c 128,-1,16
 151 463 151 463 160 452 c 128,-1,17
 169 441 169 441 189.5 430.5 c 128,-1,18
 210 420 210 420 222 415.5 c 128,-1,19
 234 411 234 411 262 402.5 c 128,-1,20
 290 394 290 394 301 390 c 0,21,22
 404 355 404 355 435 337 c 0,23,24
 526 285 526 285 526 174 c 0,25,26
 526 82 526 82 457.5 33 c 128,-1,27
 389 -16 389 -16 269 -16 c 0,28,29
 201 -16 201 -16 137.5 23 c 128,-1,30
 74 62 74 62 32 128 c 1,31,-1
 92 171 l 1,32,33
 123 119 123 119 170.5 86.5 c 128,-1,34
 218 54 218 54 269 54 c 0,35,36
 361 54 361 54 405 83 c 128,-1,37
 449 112 449 112 449 174 c 0,38,39
 449 234 449 234 412 262 c 128,-1,40
 375 290 375 290 285 314 c 0,0,1
EndSplineSet
Validated: 1
EndChar

StartChar: T
Encoding: 311 84 55
Width: 514
GlyphClass: 2
Flags: HMW
AnchorPoint: "above" 256 743 basechar 0
AnchorPoint: "below" 258 0 basechar 0
LayerCount: 2
Back
SplineSet
219 0 m 1
 219 664.7 l 1
 295 664.7 l 1
 295 0 l 1
 219 0 l 1
19 635 m 1
 19 698 l 1
 495 698 l 1
 495 635 l 1
 19 635 l 1
EndSplineSet
Fore
SplineSet
19 635 m 1,0,-1
 19 698 l 1,1,-1
 495 698 l 1,2,-1
 495 635 l 1,3,-1
 295 635 l 1,4,-1
 295 0 l 1,5,-1
 219 0 l 1,6,-1
 219 635 l 1,7,-1
 19 635 l 1,0,-1
EndSplineSet
Validated: 1
EndChar

StartChar: U
Encoding: 312 85 56
Width: 650
GlyphClass: 2
Flags: HMW
AnchorPoint: "above" 326 743 basechar 0
AnchorPoint: "below" 327 0 basechar 0
AnchorPoint: "ogonek" 345 0 basechar 0
LayerCount: 2
Back
SplineSet
75 290 m 2
 75 698 l 1
 157 698 l 1
 157 290 l 2
 157 162 202 54 326 54 c 128
 450 54 495 162 495 290 c 2
 495 698 l 1
 575 698 l 1
 575 290 l 2
 575 111 497 -16 326 -16 c 0
 154 -16 75 110 75 290 c 2
EndSplineSet
Fore
SplineSet
75 290 m 2,0,-1
 75 698 l 1,1,-1
 157 698 l 1,2,-1
 157 290 l 2,3,4
 157 185 157 185 198 119.5 c 128,-1,5
 239 54 239 54 326 54 c 128,-1,6
 413 54 413 54 454 119.5 c 128,-1,7
 495 185 495 185 495 290 c 2,8,-1
 495 698 l 1,9,-1
 575 698 l 1,10,-1
 575 290 l 2,11,12
 575 143 575 143 509.5 63.5 c 128,-1,13
 444 -16 444 -16 326 -16 c 0,14,15
 207 -16 207 -16 141 63.5 c 128,-1,16
 75 143 75 143 75 290 c 2,0,-1
EndSplineSet
Validated: 1
EndChar

StartChar: V
Encoding: 313 86 57
Width: 586
GlyphClass: 2
Flags: MW
AnchorPoint: "above" 294 743 basechar 0
AnchorPoint: "below" 294 0 basechar 0
LayerCount: 2
Back
SplineSet
285 -0.000976562 m 5
 285 92 l 5
 506 698 l 5
 588 698 l 5
 334 0 l 5
 285 -0.000976562 l 5
315 0 m 5
 252 0 l 5
 -1 698 l 5
 81 698 l 5
 315 53 l 5
 315 0 l 5
EndSplineSet
Fore
SplineSet
334 0 m 1,0,-1
 252 0 l 1,1,-1
 -1 698 l 1,2,-1
 81 698 l 1,3,-1
 293 114 l 1,4,-1
 506 698 l 1,5,-1
 588 698 l 1,6,-1
 334 0 l 1,0,-1
EndSplineSet
Validated: 1
EndChar

StartChar: W
Encoding: 314 87 58
Width: 871
GlyphClass: 2
Flags: HMW
AnchorPoint: "above" 437 743 basechar 0
AnchorPoint: "below" 434 0 basechar 0
LayerCount: 2
Back
SplineSet
612 0 m 1
 612 107 l 1
 770 698 l 1
 849 698 l 1
 663 0 l 1
 612 0 l 1
448 698 m 1
 448 599 l 1
 288 0 l 1
 241 0 l 1
 241 117 l 1
 396 698 l 1
 448 698 l 1
630 0 m 1
 583 0 l 1
 423 596 l 1
 423 698 l 1
 475 698 l 1
 630 122 l 1
 630 0 l 1
260 0 m 1
 209 0 l 1
 23 698 l 1
 101 698 l 1
 260 106 l 1
 260 0 l 1
EndSplineSet
Fore
SplineSet
288 0 m 1,0,-1
 209 0 l 1,1,-1
 23 698 l 1,2,-1
 101 698 l 1,3,-1
 249 147 l 1,4,-1
 396 698 l 1,5,-1
 475 698 l 1,6,-1
 623 148 l 5,7,-1
 770 698 l 5,8,-1
 849 698 l 5,9,-1
 663 0 l 5,10,-1
 583 0 l 1,11,-1
 435 551 l 1,12,-1
 288 0 l 1,0,-1
EndSplineSet
Validated: 1
EndChar

StartChar: X
Encoding: 315 88 59
Width: 507
GlyphClass: 2
Flags: HMW
AnchorPoint: "above" 254 743 basechar 0
AnchorPoint: "below" 254 0 basechar 0
LayerCount: 2
Back
SplineSet
487 0 m 1
 401 0 l 1
 30 698 l 1
 116 698 l 1
 487 0 l 1
108 0 m 1
 22 0 l 1
 393 698 l 1
 479 698 l 1
 108 0 l 1
EndSplineSet
Fore
SplineSet
297 357 m 1,0,-1
 487 0 l 5,1,-1
 401 0 l 5,2,-1
 254 276 l 1,3,-1
 108 0 l 1,4,-1
 22 0 l 1,5,-1
 211 357 l 1,6,-1
 30 698 l 1,7,-1
 116 698 l 1,8,-1
 254 437 l 1,9,-1
 393 698 l 5,10,-1
 479 698 l 5,11,-1
 297 357 l 1,0,-1
EndSplineSet
Validated: 1
EndChar

StartChar: Y
Encoding: 316 89 60
Width: 484
GlyphClass: 2
Flags: HMW
AnchorPoint: "above" 243 743 basechar 0
AnchorPoint: "below" 244 0 basechar 0
AnchorPoint: "ogonek" 258 0 basechar 0
LayerCount: 2
Back
SplineSet
230 420 m 1
 396 698 l 1
 485 698 l 1
 256 315 l 1
 230 420 l 1
218 335 m 1
 0 698 l 1
 89 698 l 1
 254 424 l 1
 218 335 l 1
280 409.7 m 1
 280 0 l 1
 204 0 l 1
 204 409.7 l 1
 280 409.7 l 1
EndSplineSet
Fore
SplineSet
243 442 m 5,0,-1
 396 698 l 5,1,-1
 485 698 l 5,2,-1
 280 355 l 5,3,-1
 280 0 l 1,4,-1
 204 0 l 1,5,-1
 204 358 l 1,6,-1
 0 698 l 1,7,-1
 89 698 l 1,8,-1
 243 442 l 5,0,-1
EndSplineSet
Validated: 1
EndChar

StartChar: Z
Encoding: 317 90 61
Width: 515
GlyphClass: 2
Flags: HMW
AnchorPoint: "above" 266 743 basechar 0
AnchorPoint: "below" 264 0 basechar 0
LayerCount: 2
Back
SplineSet
68 63 m 1
 475 63 l 1
 475 0 l 1
 68 0 l 1
 68 63 l 1
454 635 m 1
 39 635 l 1
 39 698 l 1
 454 698 l 1
 454 635 l 1
39 0 m 1
 39 65 l 1
 433 698 l 1
 475 698 l 1
 475 622 l 1
 86 0 l 1
 39 0 l 1
EndSplineSet
Fore
SplineSet
39 635 m 1,0,-1
 39 698 l 1,1,-1
 475 698 l 1,2,-1
 475 622 l 1,3,-1
 126 63 l 5,4,-1
 475 63 l 5,5,-1
 475 0 l 5,6,-1
 39 0 l 5,7,-1
 39 65 l 1,8,-1
 394 635 l 1,9,-1
 39 635 l 1,0,-1
EndSplineSet
Validated: 1
EndChar

StartChar: bracketleft
Encoding: 318 91 62
Width: 265
GlyphClass: 2
Flags: HMW
LayerCount: 2
Fore
SplineSet
69 738 m 1,0,-1
 245 738 l 1,1,-1
 245 698 l 1,2,-1
 145 698 l 1,3,-1
 145 0 l 1,4,-1
 245 0 l 1,5,-1
 245 -40 l 1,6,-1
 69 -40 l 1,7,-1
 69 738 l 1,0,-1
EndSplineSet
Validated: 1
EndChar

StartChar: backslash
Encoding: 319 92 63
Width: 386
GlyphClass: 2
Flags: HMW
LayerCount: 2
Fore
SplineSet
34 698 m 1,0,-1
 97 698 l 1,1,-1
 351 0 l 1,2,-1
 288 0 l 1,3,-1
 34 698 l 1,0,-1
EndSplineSet
Validated: 1
EndChar

StartChar: bracketright
Encoding: 320 93 64
Width: 265
GlyphClass: 2
Flags: HMW
LayerCount: 2
Fore
SplineSet
197 -40 m 1,0,-1
 20 -40 l 1,1,-1
 20 0 l 1,2,-1
 121 0 l 1,3,-1
 121 698 l 1,4,-1
 20 698 l 1,5,-1
 20 738 l 1,6,-1
 197 738 l 1,7,-1
 197 -40 l 1,0,-1
EndSplineSet
Validated: 1
EndChar

StartChar: asciicircum
Encoding: 321 94 65
Width: 489
GlyphClass: 2
Flags: HMW
LayerCount: 2
Fore
SplineSet
234 487 m 1,0,-1
 422 237 l 1,1,-1
 364 195 l 1,2,-1
 233 370 l 1,3,-1
 102 195 l 1,4,-1
 46 237 l 1,5,-1
 234 487 l 1,0,-1
EndSplineSet
Validated: 1
EndChar

StartChar: underscore
Encoding: 322 95 66
Width: 468
GlyphClass: 2
Flags: HMW
LayerCount: 2
Fore
SplineSet
0 -28 m 1,0,-1
 469 -28 l 1,1,-1
 469 -88 l 1,2,-1
 0 -88 l 1,3,-1
 0 -28 l 1,0,-1
EndSplineSet
Validated: 1
EndChar

StartChar: grave
Encoding: 323 96 67
Width: 397
GlyphClass: 2
Flags: HMW
LayerCount: 2
Fore
SplineSet
296 581 m 1,0,-1
 60 700 l 1,1,-1
 95 760 l 1,2,-1
 316 615 l 1,3,-1
 296 581 l 1,0,-1
EndSplineSet
Validated: 1
EndChar

StartChar: a
Encoding: 324 97 68
Width: 574
GlyphClass: 2
Flags: MW
AnchorPoint: "above" 282 581 basechar 0
AnchorPoint: "below" 274 0 basechar 0
AnchorPoint: "ogonek" 492 0 basechar 0
LayerCount: 2
Back
SplineSet
272 496 m 4
 403 496 489 373 489 240 c 132
 489 110 411 -16 274 -16 c 4
 148 -16 35 101 35 240 c 132
 35 377 146 496 272 496 c 4
440 479 m 5
 510 479 l 5
 510 0 l 5
 440 0 l 5
 440 479 l 5
104 240 m 132
 104 142 178 47 272 47 c 132
 366 47 440 142 440 240 c 132
 440 338 366 432 272 432 c 132
 178 432 104 338 104 240 c 132
EndSplineSet
Fore
SplineSet
104 240 m 128,-1,1
 104 165 104 165 153.5 106 c 128,-1,2
 203 47 203 47 272 47 c 128,-1,3
 341 47 341 47 390.5 106 c 128,-1,4
 440 165 440 165 440 240 c 128,-1,5
 440 315 440 315 390.5 373.5 c 128,-1,6
 341 432 341 432 272 432 c 128,-1,7
 203 432 203 432 153.5 373.5 c 128,-1,0
 104 315 104 315 104 240 c 128,-1,1
106 419.5 m 128,-1,9
 177 496 177 496 276.5 496 c 128,-1,10
 376 496 376 496 440 404 c 1,11,-1
 440 479 l 1,12,-1
 510 479 l 1,13,-1
 510 0 l 1,14,-1
 440 0 l 1,15,-1
 440 73 l 1,16,17
 379 -16 379 -16 279 -16 c 128,-1,18
 179 -16 179 -16 107 60 c 128,-1,19
 35 136 35 136 35 239.5 c 128,-1,8
 35 343 35 343 106 419.5 c 128,-1,9
EndSplineSet
Validated: 1
EndChar

StartChar: b
Encoding: 325 98 69
Width: 574
GlyphClass: 2
Flags: MW
AnchorPoint: "above" 105 783 basechar 0
AnchorPoint: "below" 300 0 basechar 0
LayerCount: 2
Back
SplineSet
302 496 m 4
 428 496 540 377 540 240 c 132
 540 101 426 -16 300 -16 c 4
 163 -16 85 110 85 240 c 132
 85 373 171 496 302 496 c 4
134 743 m 5
 134 0 l 5
 65 0 l 5
 65 743 l 5
 134 743 l 5
470 240 m 132
 470 338 396 432 302 432 c 132
 208 432 134 338 134 240 c 132
 134 142 208 47 302 47 c 132
 396 47 470 142 470 240 c 132
EndSplineSet
Fore
SplineSet
470 240 m 128,-1,1
 470 315 470 315 420.5 373.5 c 128,-1,2
 371 432 371 432 302 432 c 128,-1,3
 233 432 233 432 183.5 373.5 c 128,-1,4
 134 315 134 315 134 240 c 128,-1,5
 134 165 134 165 183.5 106 c 128,-1,6
 233 47 233 47 302 47 c 128,-1,7
 371 47 371 47 420.5 106 c 128,-1,0
 470 165 470 165 470 240 c 128,-1,1
134 404 m 1,8,9
 198 496 198 496 297.5 496 c 128,-1,10
 397 496 397 496 468.5 419 c 128,-1,11
 540 342 540 342 540 239.5 c 128,-1,12
 540 137 540 137 467.5 60.5 c 128,-1,13
 395 -16 395 -16 295 -16 c 128,-1,14
 195 -16 195 -16 134 73 c 1,15,-1
 134 0 l 1,16,-1
 65 0 l 1,17,-1
 65 743 l 1,18,-1
 134 743 l 1,19,-1
 134 404 l 1,8,9
EndSplineSet
Validated: 1
EndChar

StartChar: c
Encoding: 326 99 70
Width: 488
GlyphClass: 2
Flags: HMW
AnchorPoint: "above" 274 581 basechar 0
AnchorPoint: "below" 273 0 basechar 0
LayerCount: 2
Back
SplineSet
465 76 m 1
 420 20 370 -16 274 -16 c 0
 148 -16 35 100 35 240 c 128
 35 377 146 496 272 496 c 0
 351 496 416 447 454 399 c 1
 402 359 l 1
 367 408 324 432 272 432 c 0
 178 432 104 338 104 240 c 128
 104 142 178 47 272 47 c 0
 347 47 377 69 411 114 c 1
 465 76 l 1
EndSplineSet
Fore
SplineSet
465 76 m 1,0,1
 428 30 428 30 384 7 c 128,-1,2
 340 -16 340 -16 274 -16 c 0,3,4
 183 -16 183 -16 109 60.5 c 128,-1,5
 35 137 35 137 35 240 c 128,-1,6
 35 343 35 343 108 419.5 c 128,-1,7
 181 496 181 496 272 496 c 0,8,9
 322 496 322 496 370.5 469.5 c 128,-1,10
 419 443 419 443 454 399 c 1,11,-1
 402 359 l 1,12,13
 350 432 350 432 272 432 c 0,14,15
 205 432 205 432 154.5 375.5 c 128,-1,16
 104 319 104 319 104 240 c 128,-1,17
 104 161 104 161 154.5 104 c 128,-1,18
 205 47 205 47 272 47 c 0,19,20
 325 47 325 47 354.5 63 c 128,-1,21
 384 79 384 79 411 114 c 1,22,-1
 465 76 l 1,0,1
EndSplineSet
Validated: 1
EndChar

StartChar: d
Encoding: 327 100 71
Width: 574
GlyphClass: 2
Flags: MW
AnchorPoint: "above" 475 783 basechar 0
AnchorPoint: "below" 280 0 basechar 0
LayerCount: 2
Back
SplineSet
272 496 m 4
 403 496 489 373 489 240 c 132
 489 110 411 -16 274 -16 c 4
 148 -16 35 101 35 240 c 132
 35 377 146 496 272 496 c 4
440 743 m 5
 510 743 l 5
 510 0 l 5
 440 0 l 5
 440 743 l 5
104 240 m 132
 104 142 178 47 272 47 c 132
 366 47 440 142 440 240 c 132
 440 338 366 432 272 432 c 132
 178 432 104 338 104 240 c 132
EndSplineSet
Fore
SplineSet
104 240 m 128,-1,1
 104 165 104 165 153.5 106 c 128,-1,2
 203 47 203 47 272 47 c 128,-1,3
 341 47 341 47 390.5 106 c 128,-1,4
 440 165 440 165 440 240 c 128,-1,5
 440 315 440 315 390.5 373.5 c 128,-1,6
 341 432 341 432 272 432 c 128,-1,7
 203 432 203 432 153.5 373.5 c 128,-1,0
 104 315 104 315 104 240 c 128,-1,1
106 419.5 m 128,-1,9
 177 496 177 496 276.5 496 c 128,-1,10
 376 496 376 496 440 404 c 1,11,-1
 440 743 l 1,12,-1
 510 743 l 1,13,-1
 510 0 l 1,14,-1
 440 0 l 1,15,-1
 440 73 l 1,16,17
 379 -16 379 -16 279 -16 c 128,-1,18
 179 -16 179 -16 107 60 c 128,-1,19
 35 136 35 136 35 239.5 c 128,-1,8
 35 343 35 343 106 419.5 c 128,-1,9
EndSplineSet
Validated: 1
EndChar

StartChar: e
Encoding: 328 101 72
Width: 538
GlyphClass: 2
Flags: HMW
AnchorPoint: "above" 272 581 basechar 0
AnchorPoint: "below" 284 0 basechar 0
AnchorPoint: "ogonek" 278 0 basechar 0
LayerCount: 2
Back
SplineSet
77 303 m 1
 470 303 l 1
 470 240 l 1
 77 240 l 1
 77 303 l 1
440 240 m 1
 440 355 351 432 272 432 c 128
 178 432 104 338 104 240 c 1
 104 142 178 47 272 47 c 0
 371 47 402 72 439 134 c 1
 495 97 l 1
 447 23 393 -16 274 -16 c 0
 148 -16 35 102 35 240 c 128
 35 376 146 496 272 496 c 128
 397 496 510 376 510 240 c 1
 440 240 l 1
EndSplineSet
Fore
SplineSet
104 240 m 1,0,1
 104 161 104 161 154.5 104 c 128,-1,2
 205 47 205 47 272 47 c 0,3,4
 345 47 345 47 378.5 67.5 c 128,-1,5
 412 88 412 88 439 134 c 1,6,-1
 495 97 l 1,7,8
 458 40 458 40 409 12 c 128,-1,9
 360 -16 360 -16 274 -16 c 0,10,11
 183 -16 183 -16 109 60.5 c 128,-1,12
 35 137 35 137 35 240 c 128,-1,13
 35 343 35 343 108 419.5 c 128,-1,14
 181 496 181 496 272 496 c 128,-1,15
 363 496 363 496 436.5 419.5 c 128,-1,16
 510 343 510 343 510 240 c 1,17,-1
 104 240 l 1,0,1
115 303 m 1,18,-1
 430 303 l 1,19,20
 412 360 412 360 368 396 c 128,-1,21
 324 432 324 432 272 432 c 128,-1,22
 220 432 220 432 176.5 396 c 128,-1,23
 133 360 133 360 115 303 c 1,18,-1
EndSplineSet
Validated: 1
EndChar

StartChar: f
Encoding: 329 102 73
Width: 282
GlyphClass: 2
Flags: HMW
AnchorPoint: "above" 166 787 basechar 0
AnchorPoint: "below" 127 0 basechar 0
LayerCount: 2
Back
SplineSet
160 0 m 1
 90 0 l 1
 90 608 l 2
 90 691.323 158.68 760 242 760 c 2
 270 760 l 1
 270 696 l 1
 242 696 l 2
 195.136 696 160 655.028 160 608 c 2
 160 0 l 1
29 416 m 1
 29 479 l 1
 270 479 l 1
 270 416 l 1
 29 416 l 1
EndSplineSet
Fore
SplineSet
270 696 m 1,0,-1
 242 696 l 2,1,2
 207 696 207 696 183.5 670 c 128,-1,3
 160 644 160 644 160 608 c 2,4,-1
 160 479 l 1,5,-1
 270 479 l 1,6,-1
 270 416 l 1,7,-1
 160 416 l 1,8,-1
 160 0 l 1,9,-1
 90 0 l 1,10,-1
 90 416 l 1,11,-1
 29 416 l 1,12,-1
 29 479 l 1,13,-1
 90 479 l 1,14,-1
 90 608 l 2,15,16
 90 671 90 671 134.5 715.5 c 128,-1,17
 179 760 179 760 242 760 c 2,18,-1
 270 760 l 1,19,-1
 270 696 l 1,0,-1
EndSplineSet
Validated: 1
EndChar

StartChar: g
Encoding: 330 103 74
Width: 574
GlyphClass: 2
Flags: MW
AnchorPoint: "above" 272 581 basechar 0
AnchorPoint: "below" 274 0 basechar 0
LayerCount: 2
Back
SplineSet
272 496 m 4
 403 496 489 373 489 240 c 132
 489 110 411 -16 274 -16 c 4
 148 -16 35 101 35 240 c 132
 35 377 146 496 272 496 c 4
104 240 m 132
 104 142 178 47 272 47 c 132
 366 47 440 142 440 240 c 132
 440 338 366 432 272 432 c 132
 178 432 104 338 104 240 c 132
510 18 m 6
 510 -123 435 -205 299 -205 c 6
 141 -205 l 5
 141 -141 l 5
 299 -141 l 6
 394 -141 440 -80 440 18 c 6
 440 479 l 5
 510 479 l 5
 510 18 l 6
EndSplineSet
Fore
SplineSet
106 419.5 m 128,-1,1
 177 496 177 496 276.5 496 c 128,-1,2
 376 496 376 496 440 404 c 1,3,-1
 440 479 l 1,4,-1
 510 479 l 1,5,-1
 510 18 l 2,6,7
 510 -88 510 -88 455.5 -146.5 c 128,-1,8
 401 -205 401 -205 299 -205 c 2,9,-1
 141 -205 l 1,10,-1
 141 -141 l 1,11,-1
 299 -141 l 2,12,13
 369 -141 369 -141 404.5 -99 c 128,-1,14
 440 -57 440 -57 440 18 c 2,15,-1
 440 73 l 1,16,17
 379 -16 379 -16 279 -16 c 128,-1,18
 179 -16 179 -16 107 60 c 128,-1,19
 35 136 35 136 35 239.5 c 128,-1,0
 35 343 35 343 106 419.5 c 128,-1,1
104 240 m 128,-1,21
 104 165 104 165 153.5 106 c 128,-1,22
 203 47 203 47 272 47 c 128,-1,23
 341 47 341 47 390.5 106 c 128,-1,24
 440 165 440 165 440 240 c 128,-1,25
 440 315 440 315 390.5 373.5 c 128,-1,26
 341 432 341 432 272 432 c 128,-1,27
 203 432 203 432 153.5 373.5 c 128,-1,20
 104 315 104 315 104 240 c 128,-1,21
EndSplineSet
Validated: 1
EndChar

StartChar: h
Encoding: 331 104 75
Width: 547
GlyphClass: 2
Flags: MW
AnchorPoint: "above" 114 783 basechar 0
AnchorPoint: "below" 278 0 basechar 0
LayerCount: 2
Back
SplineSet
134 134 m 5
 65 134 l 5
 65 743 l 5
 134 743 l 5
 134 134 l 5
65 202 m 6
 64 420 201 496 276 496 c 4
 397 496 488 424 488 303 c 6
 488 0 l 5
 419 0 l 5
 419 303 l 6
 419 380 355 432 276 432 c 132
 183 432 134 338 134 240 c 6
 134 0 l 5
 65 0 l 5
 65 202 l 6
EndSplineSet
Fore
SplineSet
134 421 m 1,0,1
 199 496 199 496 276 496 c 0,2,3
 369 496 369 496 428.5 444 c 128,-1,4
 488 392 488 392 488 303 c 2,5,-1
 488 0 l 1,6,-1
 419 0 l 1,7,-1
 419 303 l 2,8,9
 419 360 419 360 377.5 396 c 128,-1,10
 336 432 336 432 273 432 c 128,-1,11
 210 432 210 432 172 375.5 c 128,-1,12
 134 319 134 319 134 240 c 2,13,-1
 134 0 l 1,14,-1
 65 0 l 1,15,-1
 65 743 l 1,16,-1
 134 743 l 1,17,-1
 134 421 l 1,0,1
EndSplineSet
Validated: 1
EndChar

StartChar: i
Encoding: 332 105 76
Width: 198
GlyphClass: 2
Flags: HMW
AnchorPoint: "below" 104 0 basechar 0
AnchorPoint: "ogonek" 119 0 basechar 0
LayerCount: 2
Back
SplineSet
99 572 m 0xe0
 69 572 44 598 44 628 c 0
 44 658 69 683 99 683 c 0
 129 683 155 658 155 628 c 0
 155 598 129 572 99 572 c 0xe0
65 0 m 1xd0
 65 479 l 1
 134 479 l 1
 134 0 l 1
 65 0 l 1xd0
EndSplineSet
Fore
SplineSet
44 628 m 128,-1,1
 44 651 44 651 60 667 c 128,-1,2
 76 683 76 683 99 683 c 128,-1,3
 122 683 122 683 138.5 667 c 128,-1,4
 155 651 155 651 155 628 c 128,-1,5
 155 605 155 605 138.5 588.5 c 128,-1,6
 122 572 122 572 99 572 c 128,-1,7
 76 572 76 572 60 588.5 c 128,-1,0
 44 605 44 605 44 628 c 128,-1,1
65 0 m 1,8,-1
 65 479 l 1,9,-1
 134 479 l 1,10,-1
 134 0 l 1,11,-1
 65 0 l 1,8,-1
EndSplineSet
Validated: 1
EndChar

StartChar: j
Encoding: 333 106 77
Width: 198
GlyphClass: 2
Flags: HMW
LayerCount: 2
Back
SplineSet
99 572 m 0xe0
 69 572 44 598 44 628 c 0
 44 658 69 683 99 683 c 0
 129 683 155 658 155 628 c 0
 155 598 129 572 99 572 c 0xe0
134 -53 m 2xd0
 134 -136 66 -205 -17 -205 c 2
 -46 -205 l 1
 -46 -141 l 1
 -17 -141 l 2
 30 -141 65 -100 65 -53 c 2
 65 479 l 1
 134 479 l 1
 134 -53 l 2xd0
EndSplineSet
Fore
SplineSet
44 628 m 128,-1,1
 44 651 44 651 60 667 c 128,-1,2
 76 683 76 683 99 683 c 128,-1,3
 122 683 122 683 138.5 667 c 128,-1,4
 155 651 155 651 155 628 c 128,-1,5
 155 605 155 605 138.5 588.5 c 128,-1,6
 122 572 122 572 99 572 c 128,-1,7
 76 572 76 572 60 588.5 c 128,-1,0
 44 605 44 605 44 628 c 128,-1,1
-46 -141 m 1,8,-1
 -17 -141 l 2,9,10
 18 -141 18 -141 41.5 -115 c 128,-1,11
 65 -89 65 -89 65 -53 c 2,12,-1
 65 479 l 1,13,-1
 134 479 l 1,14,-1
 134 -53 l 2,15,16
 134 -116 134 -116 90 -160.5 c 128,-1,17
 46 -205 46 -205 -17 -205 c 2,18,-1
 -46 -205 l 1,19,-1
 -46 -141 l 1,8,-1
EndSplineSet
Validated: 1
EndChar

StartChar: k
Encoding: 334 107 78
Width: 446
GlyphClass: 2
Flags: HMW
AnchorPoint: "above" 106 783 basechar 0
AnchorPoint: "below" 250 0 basechar 0
LayerCount: 2
Back
SplineSet
134 0 m 1
 65 0 l 1
 65 743 l 1
 134 743 l 1
 134 0 l 1
236 301 m 1
 438 0 l 1
 353 0 l 1
 185 251 l 1
 236 301 l 1
103 258 m 1
 324 479 l 1
 424 479 l 1
 103 159 l 1
 103 258 l 1
EndSplineSet
Fore
SplineSet
65 0 m 5,0,-1
 65 743 l 5,1,-1
 134 743 l 5,2,-1
 134 289 l 1,3,-1
 324 479 l 1,4,-1
 424 479 l 1,5,-1
 240 295 l 1,6,-1
 438 0 l 1,7,-1
 353 0 l 1,8,-1
 189 245 l 1,9,-1
 134 190 l 1,10,-1
 134 0 l 5,11,-1
 65 0 l 5,0,-1
EndSplineSet
Validated: 1
EndChar

StartChar: l
Encoding: 335 108 79
Width: 208
GlyphClass: 2
Flags: HMW
AnchorPoint: "above" 105 783 basechar 0
AnchorPoint: "below" 105 0 basechar 0
LayerCount: 2
Fore
SplineSet
70 0 m 1,0,-1
 70 743 l 1,1,-1
 139 743 l 1,2,-1
 139 0 l 1,3,-1
 70 0 l 1,0,-1
EndSplineSet
Validated: 1
EndChar

StartChar: m
Encoding: 336 109 80
Width: 788
GlyphClass: 2
Flags: MW
AnchorPoint: "above" 398 581 basechar 0
AnchorPoint: "below" 395 0 basechar 0
LayerCount: 2
Back
SplineSet
247 496 m 4
 353 496 431 413 431 303 c 6
 431 0 l 5
 362 0 l 5
 362 303 l 6
 362 373 316 432 247 432 c 132
 167 432 134 328 134 240 c 6
 134 0 l 5
 65 0 l 5
 65 160 l 6
 65 356 136 496 247 496 c 4
134 0 m 5
 65 0 l 5
 65 479 l 5
 134 479 l 5
 134 0 l 5
544 496 m 4
 650 496 728 413 728 303 c 6
 728 0 l 5
 659 0 l 5
 659 303 l 6
 659 373 613 432 544 432 c 132
 464 432 431 328 431 240 c 6
 431 0 l 5
 362 0 l 5
 362 160 l 6
 362 356 433 496 544 496 c 4
EndSplineSet
Fore
SplineSet
410 398 m 1,0,1
 460 496 460 496 541.5 496 c 128,-1,2
 623 496 623 496 675.5 441 c 128,-1,3
 728 386 728 386 728 303 c 2,4,-1
 728 0 l 1,5,-1
 659 0 l 1,6,-1
 659 303 l 2,7,8
 659 357 659 357 627 394.5 c 128,-1,9
 595 432 595 432 542 432 c 128,-1,10
 489 432 489 432 460 373.5 c 128,-1,11
 431 315 431 315 431 240 c 2,12,-1
 431 0 l 1,13,-1
 362 0 l 1,14,-1
 362 303 l 2,15,16
 362 357 362 357 330 394.5 c 128,-1,17
 298 432 298 432 245 432 c 128,-1,18
 192 432 192 432 163 373.5 c 128,-1,19
 134 315 134 315 134 240 c 2,20,-1
 134 0 l 1,21,-1
 65 0 l 1,22,-1
 65 479 l 1,23,-1
 134 479 l 1,24,-1
 134 433 l 1,25,26
 180 496 180 496 253 496 c 128,-1,27
 326 496 326 496 378 441 c 0,28,29
 398 421 398 421 410 398 c 1,0,1
EndSplineSet
Validated: 1
EndChar

StartChar: n
Encoding: 337 110 81
Width: 547
GlyphClass: 2
Flags: MW
AnchorPoint: "above" 281 581 basechar 0
AnchorPoint: "below" 277 0 basechar 0
LayerCount: 2
Back
SplineSet
134 134 m 5
 65 134 l 5
 65 479 l 5
 134 479 l 5
 134 134 l 5
65 202 m 6
 64 420 201 496 276 496 c 4
 397 496 488 424 488 303 c 6
 488 0 l 5
 419 0 l 5
 419 303 l 6
 419 380 355 432 276 432 c 132
 183 432 134 338 134 240 c 6
 134 0 l 5
 65 0 l 5
 65 202 l 6
EndSplineSet
Fore
SplineSet
134 421 m 1,0,1
 199 496 199 496 276 496 c 0,2,3
 369 496 369 496 428.5 444 c 128,-1,4
 488 392 488 392 488 303 c 2,5,-1
 488 0 l 1,6,-1
 419 0 l 1,7,-1
 419 303 l 2,8,9
 419 360 419 360 377.5 396 c 128,-1,10
 336 432 336 432 273 432 c 128,-1,11
 210 432 210 432 172 375.5 c 128,-1,12
 134 319 134 319 134 240 c 2,13,-1
 134 0 l 1,14,-1
 65 0 l 1,15,-1
 65 479 l 1,16,-1
 134 479 l 1,17,-1
 134 421 l 1,0,1
EndSplineSet
Validated: 1
EndChar

StartChar: o
Encoding: 338 111 82
Width: 544
GlyphClass: 2
Flags: HMW
AnchorPoint: "above" 272 581 basechar 0
AnchorPoint: "below" 275 0 basechar 0
AnchorPoint: "ogonek" 276 0 basechar 0
LayerCount: 2
Back
SplineSet
104 240 m 132
 104 142 178 47 272 47 c 132
 366 47 440 142 440 240 c 132
 440 338 366 432 272 432 c 132
 178 432 104 338 104 240 c 132
35 240 m 132
 35 374 146 496 272 496 c 132
 398 496 510 378 510 240 c 4
 510 106 406 -16 274 -16 c 132
 144 -16 35 106 35 240 c 132
EndSplineSet
Fore
SplineSet
104 240 m 128,-1,1
 104 161 104 161 154.5 104 c 128,-1,2
 205 47 205 47 272 47 c 128,-1,3
 339 47 339 47 389.5 104 c 128,-1,4
 440 161 440 161 440 240 c 128,-1,5
 440 319 440 319 389.5 375.5 c 128,-1,6
 339 432 339 432 272 432 c 128,-1,7
 205 432 205 432 154.5 375.5 c 128,-1,0
 104 319 104 319 104 240 c 128,-1,1
35 240 m 128,-1,9
 35 343 35 343 108 419.5 c 128,-1,10
 181 496 181 496 272 496 c 128,-1,11
 363 496 363 496 436.5 419.5 c 128,-1,12
 510 343 510 343 510 240 c 0,13,14
 510 136 510 136 437.5 60 c 128,-1,15
 365 -16 365 -16 274 -16 c 128,-1,16
 183 -16 183 -16 109 60.5 c 128,-1,8
 35 137 35 137 35 240 c 128,-1,9
EndSplineSet
Validated: 1
EndChar

StartChar: p
Encoding: 339 112 83
Width: 574
GlyphClass: 2
Flags: MW
AnchorPoint: "above" 302 581 basechar 0
AnchorPoint: "below" 305 0 basechar 0
LayerCount: 2
Back
SplineSet
303 -17 m 4
 172 -17 86 106 86 239 c 132
 86 369 164 495 301 495 c 4
 427 495 540 378 540 239 c 132
 540 102 429 -17 303 -17 c 4
135 -205 m 5
 65 -205 l 5
 65 479 l 5
 135 479 l 5
 135 -205 l 5
471 239 m 132
 471 337 397 432 303 432 c 132
 209 432 135 337 135 239 c 132
 135 141 209 47 303 47 c 132
 397 47 471 141 471 239 c 132
EndSplineSet
Fore
SplineSet
471 239 m 128,-1,1
 471 314 471 314 421.5 373 c 128,-1,2
 372 432 372 432 303 432 c 128,-1,3
 234 432 234 432 184.5 373 c 128,-1,4
 135 314 135 314 135 239 c 128,-1,5
 135 164 135 164 184.5 105.5 c 128,-1,6
 234 47 234 47 303 47 c 128,-1,7
 372 47 372 47 421.5 105.5 c 128,-1,0
 471 164 471 164 471 239 c 128,-1,1
469 59.5 m 128,-1,9
 398 -17 398 -17 298.5 -17 c 128,-1,10
 199 -17 199 -17 135 75 c 1,11,-1
 135 -205 l 1,12,-1
 65 -205 l 1,13,-1
 65 479 l 1,14,-1
 135 479 l 1,15,-1
 135 406 l 1,16,17
 196 495 196 495 296 495 c 128,-1,18
 396 495 396 495 468 419 c 128,-1,19
 540 343 540 343 540 239.5 c 128,-1,8
 540 136 540 136 469 59.5 c 128,-1,9
EndSplineSet
Validated: 1
EndChar

StartChar: q
Encoding: 340 113 84
Width: 574
GlyphClass: 2
Flags: MW
LayerCount: 2
Back
SplineSet
273 -17 m 4
 147 -17 35 102 35 239 c 132
 35 378 149 495 275 495 c 4
 412 495 490 369 490 239 c 132
 490 106 404 -17 273 -17 c 4
441 -205 m 5
 441 479 l 5
 510 479 l 5
 510 -205 l 5
 441 -205 l 5
105 239 m 132
 105 141 179 47 273 47 c 132
 367 47 441 141 441 239 c 132
 441 337 367 432 273 432 c 132
 179 432 105 337 105 239 c 132
EndSplineSet
Fore
SplineSet
105 239 m 128,-1,1
 105 164 105 164 154.5 105.5 c 128,-1,2
 204 47 204 47 273 47 c 128,-1,3
 342 47 342 47 391.5 105.5 c 128,-1,4
 441 164 441 164 441 239 c 128,-1,5
 441 314 441 314 391.5 373 c 128,-1,6
 342 432 342 432 273 432 c 128,-1,7
 204 432 204 432 154.5 373 c 128,-1,0
 105 314 105 314 105 239 c 128,-1,1
441 75 m 1,8,9
 377 -17 377 -17 277.5 -17 c 128,-1,10
 178 -17 178 -17 106.5 59.5 c 128,-1,11
 35 136 35 136 35 239 c 128,-1,12
 35 342 35 342 107.5 418.5 c 128,-1,13
 180 495 180 495 280 495 c 128,-1,14
 380 495 380 495 441 406 c 1,15,-1
 441 479 l 1,16,-1
 510 479 l 1,17,-1
 510 -205 l 1,18,-1
 441 -205 l 1,19,-1
 441 75 l 1,8,9
EndSplineSet
Validated: 1
EndChar

StartChar: r
Encoding: 341 114 85
Width: 445
GlyphClass: 2
Flags: MW
AnchorPoint: "above" 251 581 basechar 0
AnchorPoint: "below" 100 0 basechar 0
LayerCount: 2
Back
SplineSet
134 134 m 5
 65 134 l 5
 65 479 l 5
 134 479 l 5
 134 134 l 5
384 352 m 21
 370 386 340 432 276 432 c 132
 183 432 134 338 134 240 c 6
 134 0 l 5
 65 0 l 5
 65 202 l 6
 64 420 201 496 276 496 c 4
 386 496 429 426 447 384 c 13
 384 352 l 21
EndSplineSet
Fore
SplineSet
384 352 m 1,0,1
 351 432 351 432 280.5 432 c 128,-1,2
 210 432 210 432 172 375.5 c 128,-1,3
 134 319 134 319 134 240 c 2,4,-1
 134 0 l 1,5,-1
 65 0 l 1,6,-1
 65 479 l 1,7,-1
 134 479 l 1,8,-1
 134 421 l 1,9,10
 199 496 199 496 276 496 c 0,11,12
 399 496 399 496 447 384 c 1,13,-1
 384 352 l 1,0,1
EndSplineSet
Validated: 1
EndChar

StartChar: s
Encoding: 342 115 86
Width: 475
GlyphClass: 2
Flags: HMW
AnchorPoint: "above" 246 581 basechar 0
AnchorPoint: "below" 226 0 basechar 0
LayerCount: 2
Back
SplineSet
226 48 m 0
 294 48 374 75 374 135 c 0
 374 202 252 203 198 216 c 128
 134 232 45 254 45 345 c 0
 45 447 141 496 248 496 c 0
 336 496 396 458 428 383 c 1
 366 352 l 1
 345 405 305 432 248 432 c 0
 177 432 116 408 116 345 c 0
 116 303 170 288 210 282 c 128
 302 268 443 251 443 135 c 0
 443 33 333 -16 226 -16 c 0
 131 -16 60 29 31 97 c 1
 93 128 l 1
 112 82 161 48 226 48 c 0
EndSplineSet
Fore
SplineSet
246 206 m 0,0,1
 243 207 243 207 223.5 210.5 c 128,-1,2
 204 214 204 214 197.5 215.5 c 128,-1,3
 191 217 191 217 171.5 221.5 c 128,-1,4
 152 226 152 226 144 229.5 c 128,-1,5
 136 233 136 233 119.5 240 c 128,-1,6
 103 247 103 247 95 253.5 c 128,-1,7
 87 260 87 260 75.5 269.5 c 128,-1,8
 64 279 64 279 58.5 290 c 128,-1,9
 53 301 53 301 49 315 c 128,-1,10
 45 329 45 329 45 345 c 0,11,12
 45 415 45 415 101.5 455.5 c 128,-1,13
 158 496 158 496 248 496 c 0,14,15
 380 496 380 496 428 383 c 1,16,-1
 366 352 l 1,17,18
 334 432 334 432 248 432 c 0,19,20
 184 432 184 432 150 408.5 c 128,-1,21
 116 385 116 385 116 345 c 0,22,23
 116 336 116 336 118.5 329 c 128,-1,24
 121 322 121 322 126.5 316 c 128,-1,25
 132 310 132 310 138 305.5 c 128,-1,26
 144 301 144 301 153.5 297.5 c 128,-1,27
 163 294 163 294 170.5 291.5 c 128,-1,28
 178 289 178 289 190.5 286.5 c 128,-1,29
 203 284 203 284 210.5 282.5 c 128,-1,30
 218 281 218 281 232 279 c 128,-1,31
 246 277 246 277 252 276 c 0,32,33
 290 270 290 270 318 262 c 128,-1,34
 346 254 346 254 377.5 238.5 c 128,-1,35
 409 223 409 223 426 197 c 128,-1,36
 443 171 443 171 443 135 c 0,37,38
 443 66 443 66 380.5 25 c 128,-1,39
 318 -16 318 -16 226 -16 c 0,40,41
 158 -16 158 -16 106 13.5 c 128,-1,42
 54 43 54 43 31 97 c 1,43,-1
 93 128 l 1,44,45
 108 92 108 92 143 70 c 128,-1,46
 178 48 178 48 226 48 c 0,47,48
 291 48 291 48 332.5 73 c 128,-1,49
 374 98 374 98 374 135 c 0,50,51
 374 146 374 146 370.5 155.5 c 128,-1,52
 367 165 367 165 357.5 171.5 c 128,-1,53
 348 178 348 178 341 182.5 c 128,-1,54
 334 187 334 187 318.5 191 c 128,-1,55
 303 195 303 195 295.5 197 c 128,-1,56
 288 199 288 199 269.5 202 c 128,-1,57
 251 205 251 205 246 206 c 0,0,1
EndSplineSet
Validated: 1
EndChar

StartChar: t
Encoding: 343 116 87
Width: 282
GlyphClass: 2
Flags: HMW
AnchorPoint: "above" 125 683 basechar 0
AnchorPoint: "below" 126 0 basechar 0
LayerCount: 2
Back
SplineSet
160 0 m 1
 90 0 l 1
 90 638 l 1
 160 638 l 1
 160 0 l 1
29 416 m 1
 29 479 l 1
 270 479 l 1
 270 416 l 1
 29 416 l 1
EndSplineSet
Fore
SplineSet
29 416 m 1,0,-1
 29 479 l 1,1,-1
 90 479 l 1,2,-1
 90 638 l 1,3,-1
 160 638 l 1,4,-1
 160 479 l 1,5,-1
 270 479 l 1,6,-1
 270 416 l 1,7,-1
 160 416 l 1,8,-1
 160 0 l 1,9,-1
 90 0 l 1,10,-1
 90 416 l 1,11,-1
 29 416 l 1,0,-1
EndSplineSet
Validated: 1
EndChar

StartChar: u
Encoding: 344 117 88
Width: 547
GlyphClass: 2
Flags: MW
AnchorPoint: "above" 270 581 basechar 0
AnchorPoint: "below" 271 0 basechar 0
AnchorPoint: "ogonek" 469 0 basechar 0
LayerCount: 2
Back
SplineSet
413 345 m 5
 482 345 l 5
 482 0 l 5
 413 0 l 5
 413 345 l 5
482 277 m 6
 483 59 346 -17 271 -17 c 4
 150 -17 59 55 59 176 c 6
 59 479 l 5
 128 479 l 5
 128 176 l 6
 128 99 192 47 271 47 c 132
 364 47 413 141 413 239 c 6
 413 479 l 5
 482 479 l 5
 482 277 l 6
EndSplineSet
Fore
SplineSet
413 58 m 1,0,1
 348 -17 348 -17 271 -17 c 0,2,3
 178 -17 178 -17 118.5 35 c 128,-1,4
 59 87 59 87 59 176 c 2,5,-1
 59 479 l 1,6,-1
 128 479 l 1,7,-1
 128 176 l 2,8,9
 128 119 128 119 169.5 83 c 128,-1,10
 211 47 211 47 274 47 c 128,-1,11
 337 47 337 47 375 103.5 c 128,-1,12
 413 160 413 160 413 239 c 2,13,-1
 413 479 l 1,14,-1
 482 479 l 1,15,-1
 482 0 l 1,16,-1
 413 0 l 1,17,-1
 413 58 l 1,0,1
EndSplineSet
Validated: 1
EndChar

StartChar: v
Encoding: 345 118 89
Width: 466
GlyphClass: 2
Flags: HMW
AnchorPoint: "above" 234 581 basechar 0
AnchorPoint: "below" 234 0 basechar 0
LayerCount: 2
Back
SplineSet
229 0 m 1
 229 80 l 1
 390 479 l 1
 466 479 l 1
 271 0 l 1
 229 0 l 1
250 0 m 1
 195 0 l 1
 1 479 l 1
 77 479 l 1
 250 48 l 1
 250 0 l 1
EndSplineSet
Fore
SplineSet
195 0 m 1,0,-1
 1 479 l 1,1,-1
 77 479 l 1,2,-1
 233 90 l 5,3,-1
 390 479 l 5,4,-1
 466 479 l 5,5,-1
 271 0 l 5,6,-1
 195 0 l 1,0,-1
EndSplineSet
Validated: 1
EndChar

StartChar: w
Encoding: 346 119 90
Width: 736
GlyphClass: 2
Flags: HMW
AnchorPoint: "above" 369 581 basechar 0
AnchorPoint: "below" 369 0 basechar 0
LayerCount: 2
Back
SplineSet
512 0 m 1
 512 69 l 1
 646 479 l 1
 720 479 l 1
 564 0 l 1
 512 0 l 1
386 479 m 1
 386 417 l 1
 250 0 l 1
 203 0 l 1
 203 79 l 1
 332 479 l 1
 386 479 l 1
345 479 m 1
 403 479 l 1
 540 56 l 1
 540 0 l 1
 486 0 l 1
 345 433 l 1
 345 479 l 1
221 0 m 1
 172 0 l 1
 16 479 l 1
 90 479 l 1
 221 73 l 1
 221 0 l 1
EndSplineSet
Fore
SplineSet
172 0 m 1,0,-1
 16 479 l 1,1,-1
 90 479 l 1,2,-1
 211 104 l 1,3,-1
 332 479 l 1,4,-1
 403 479 l 1,5,-1
 524 105 l 5,6,-1
 646 479 l 5,7,-1
 720 479 l 5,8,-1
 564 0 l 5,9,-1
 486 0 l 1,10,-1
 368 362 l 1,11,-1
 250 0 l 1,12,-1
 172 0 l 1,0,-1
EndSplineSet
Validated: 1
EndChar

StartChar: x
Encoding: 347 120 91
Width: 424
GlyphClass: 2
Flags: HMW
AnchorPoint: "above" 211 581 basechar 0
AnchorPoint: "below" 212 0 basechar 0
LayerCount: 2
Back
SplineSet
410 0 m 1
 327 0 l 1
 28 479 l 1
 110 479 l 1
 410 0 l 1
97 0 m 1
 15 0 l 1
 314 479 l 1
 397 479 l 1
 97 0 l 1
EndSplineSet
Fore
SplineSet
171 250 m 1,0,-1
 28 479 l 1,1,-1
 110 479 l 1,2,-1
 212 315 l 1,3,-1
 314 479 l 1,4,-1
 397 479 l 1,5,-1
 254 250 l 1,6,-1
 410 0 l 1,7,-1
 327 0 l 1,8,-1
 212 183 l 1,9,-1
 97 0 l 1,10,-1
 15 0 l 1,11,-1
 171 250 l 1,0,-1
EndSplineSet
Validated: 1
EndChar

StartChar: y
Encoding: 348 121 92
Width: 466
GlyphClass: 2
Flags: HMW
AnchorPoint: "above" 231 581 basechar 0
AnchorPoint: "below" 249 0 basechar 0
AnchorPoint: "ogonek" 357 0 basechar 0
LayerCount: 2
Back
SplineSet
390 479 m 1
 466 479 l 1
 188 -205 l 1
 114 -205 l 1
 390 479 l 1
216 -50 m 1
 1 479 l 1
 77 479 l 1
 253 41 l 1
 216 -50 l 1
EndSplineSet
Fore
SplineSet
233 90 m 1,0,-1
 390 479 l 5,1,-1
 466 479 l 5,2,-1
 188 -205 l 5,3,-1
 114 -205 l 5,4,-1
 196 -1 l 1,5,-1
 1 479 l 1,6,-1
 77 479 l 1,7,-1
 233 90 l 1,0,-1
EndSplineSet
Validated: 1
EndChar

StartChar: z
Encoding: 349 122 93
Width: 430
GlyphClass: 2
Flags: HMW
AnchorPoint: "above" 225 581 basechar 0
AnchorPoint: "below" 219 0 basechar 0
LayerCount: 2
Back
SplineSet
62 63 m 1
 392 63 l 1
 392 0 l 1
 62 0 l 1
 62 63 l 1
367 416 m 1
 38 416 l 1
 38 479 l 1
 367 479 l 1
 367 416 l 1
38 0 m 1
 38 63 l 1
 356 479 l 1
 392 479 l 1
 392 416 l 1
 74 0 l 1
 38 0 l 1
EndSplineSet
Fore
SplineSet
38 416 m 1,0,-1
 38 479 l 1,1,-1
 392 479 l 1,2,-1
 392 416 l 1,3,-1
 122 63 l 5,4,-1
 392 63 l 5,5,-1
 392 0 l 5,6,-1
 38 0 l 5,7,-1
 38 63 l 1,8,-1
 308 416 l 1,9,-1
 38 416 l 1,0,-1
EndSplineSet
Validated: 1
EndChar

StartChar: braceleft
Encoding: 350 123 94
Width: 253
GlyphClass: 2
Flags: HMW
LayerCount: 2
Fore
SplineSet
168 207 m 0,0,1
 168 173 168 173 159.5 119 c 128,-1,2
 151 65 151 65 151 47 c 0,3,4
 151 12 151 12 172.5 -9.5 c 128,-1,5
 194 -31 194 -31 218 -36 c 1,6,-1
 218 -83 l 1,7,8
 163 -75 163 -75 120 -43.5 c 128,-1,9
 77 -12 77 -12 77 48 c 0,10,11
 77 82 77 82 85.5 136.5 c 128,-1,12
 94 191 94 191 94 208 c 0,13,14
 94 236 94 236 72 262 c 128,-1,15
 50 288 50 288 28 292 c 1,16,-1
 28 339 l 1,17,18
 51 343 51 343 76 369 c 128,-1,19
 101 395 101 395 101 423 c 0,20,21
 101 440 101 440 89 494.5 c 128,-1,22
 77 549 77 549 77 583 c 0,23,24
 77 643 77 643 119.5 674.5 c 128,-1,25
 162 706 162 706 217 714 c 1,26,-1
 218 667 l 1,27,28
 194 662 194 662 173 640.5 c 128,-1,29
 152 619 152 619 152 584 c 0,30,31
 152 566 152 566 160.5 512 c 128,-1,32
 169 458 169 458 169 424 c 0,33,34
 169 352 169 352 109 315 c 1,35,36
 168 278 168 278 168 207 c 0,0,1
EndSplineSet
Validated: 1
EndChar

StartChar: bar
Encoding: 351 124 95
Width: 177
GlyphClass: 2
Flags: HMW
LayerCount: 2
Fore
SplineSet
68 -70 m 1,0,-1
 68 768 l 1,1,-1
 110 768 l 1,2,-1
 110 -70 l 1,3,-1
 68 -70 l 1,0,-1
EndSplineSet
Validated: 1
EndChar

StartChar: braceright
Encoding: 352 125 96
Width: 253
GlyphClass: 2
Flags: HMW
LayerCount: 2
Fore
SplineSet
86 424 m 0,0,1
 86 458 86 458 94.5 512 c 128,-1,2
 103 566 103 566 103 584 c 0,3,4
 103 619 103 619 81.5 640.5 c 128,-1,5
 60 662 60 662 36 667 c 1,6,-1
 36 714 l 1,7,8
 91 706 91 706 134 674.5 c 128,-1,9
 177 643 177 643 177 583 c 0,10,11
 177 549 177 549 168.5 494.5 c 128,-1,12
 160 440 160 440 160 423 c 0,13,14
 160 395 160 395 182 369 c 128,-1,15
 204 343 204 343 226 339 c 1,16,-1
 226 292 l 1,17,18
 203 288 203 288 178 262 c 128,-1,19
 153 236 153 236 153 208 c 0,20,21
 153 191 153 191 165 136.5 c 128,-1,22
 177 82 177 82 177 48 c 0,23,24
 177 -12 177 -12 134.5 -43.5 c 128,-1,25
 92 -75 92 -75 37 -83 c 1,26,-1
 36 -36 l 1,27,28
 60 -31 60 -31 81 -9.5 c 128,-1,29
 102 12 102 12 102 47 c 0,30,31
 102 65 102 65 93.5 119 c 128,-1,32
 85 173 85 173 85 207 c 0,33,34
 85 278 85 278 145 315 c 1,35,36
 86 352 86 352 86 424 c 0,0,1
EndSplineSet
Validated: 1
EndChar

StartChar: asciitilde
Encoding: 353 126 97
Width: 517
GlyphClass: 2
Flags: HMW
LayerCount: 2
Fore
SplineSet
342 329 m 0,0,1
 370 329 370 329 396 350.5 c 128,-1,2
 422 372 422 372 426 394 c 1,3,-1
 473 394 l 1,4,5
 468 348 468 348 427 304.5 c 128,-1,6
 386 261 386 261 342 261 c 0,7,8
 308 261 308 261 254.5 293.5 c 128,-1,9
 201 326 201 326 184 326 c 0,10,11
 156 326 156 326 129.5 304.5 c 128,-1,12
 103 283 103 283 99 261 c 1,13,-1
 53 261 l 1,14,15
 58 307 58 307 99 350.5 c 128,-1,16
 140 394 140 394 184 394 c 0,17,18
 218 394 218 394 271.5 361.5 c 128,-1,19
 325 329 325 329 342 329 c 0,0,1
EndSplineSet
Validated: 1
EndChar

StartChar: exclamdown
Encoding: 355 161 99
Width: 236
GlyphClass: 2
Flags: HMW
LayerCount: 2
Fore
SplineSet
172 542 m 128,-1,1
 172 519 172 519 156.5 503 c 128,-1,2
 141 487 141 487 118 487 c 128,-1,3
 95 487 95 487 78 503 c 128,-1,4
 61 519 61 519 61 542 c 128,-1,5
 61 565 61 565 78 581.5 c 128,-1,6
 95 598 95 598 118 598 c 128,-1,7
 141 598 141 598 156.5 581.5 c 128,-1,0
 172 565 172 565 172 542 c 128,-1,1
154 400 m 1,8,-1
 154 -108 l 1,9,-1
 84 -108 l 1,10,-1
 84 400 l 1,11,-1
 154 400 l 1,8,-1
EndSplineSet
EndChar

StartChar: cent
Encoding: 356 162 100
Width: 500
GlyphClass: 2
Flags: HMW
LayerCount: 2
Fore
SplineSet
241 698 m 1,0,-1
 283 698 l 1,1,-1
 283 597 l 1,2,3
 330 594 330 594 375 568 c 128,-1,4
 420 542 420 542 453 500 c 1,5,-1
 401 460 l 1,6,7
 352 528 352 528 283 534 c 1,8,-1
 283 148 l 1,9,10
 331 149 331 149 357.5 165 c 128,-1,11
 384 181 384 181 410 215 c 1,12,-1
 464 177 l 1,13,14
 428 133 428 133 386.5 109.5 c 128,-1,15
 345 86 345 86 283 85 c 1,16,-1
 283 0 l 1,17,-1
 241 0 l 1,18,-1
 241 88 l 1,19,20
 159 102 159 102 96.5 175 c 128,-1,21
 34 248 34 248 34 341 c 0,22,23
 34 435 34 435 96.5 508.5 c 128,-1,24
 159 582 159 582 241 595 c 1,25,-1
 241 698 l 1,0,-1
241 152 m 1,26,-1
 241 530 l 1,27,28
 183 517 183 517 143 463.5 c 128,-1,29
 103 410 103 410 103 341 c 128,-1,30
 103 272 103 272 143 218.5 c 128,-1,31
 183 165 183 165 241 152 c 1,26,-1
EndSplineSet
Validated: 1
EndChar

StartChar: sterling
Encoding: 357 163 101
Width: 481
GlyphClass: 2
Flags: HMW
LayerCount: 2
Fore
SplineSet
426 564 m 1,0,-1
 350 564 l 1,1,2
 350 601 350 601 318.5 626 c 128,-1,3
 287 651 287 651 248 651 c 0,4,5
 208 651 208 651 176.5 627 c 128,-1,6
 145 603 145 603 145 564 c 0,7,8
 145 539 145 539 174 480 c 128,-1,9
 203 421 203 421 211 388 c 1,10,-1
 300 388 l 1,11,-1
 300 332 l 1,12,-1
 218 332 l 1,13,14
 218 267 218 267 196 200 c 128,-1,15
 174 133 174 133 152 98 c 2,16,-1
 131 63 l 1,17,-1
 445 63 l 1,18,-1
 445 0 l 1,19,-1
 54 0 l 1,20,-1
 54 63 l 1,21,22
 58 67 58 67 63.5 75.5 c 128,-1,23
 69 84 69 84 84.5 111.5 c 128,-1,24
 100 139 100 139 111.5 168.5 c 128,-1,25
 123 198 123 198 132.5 242.5 c 128,-1,26
 142 287 142 287 142 332 c 1,27,-1
 61 332 l 1,28,-1
 61 388 l 1,29,-1
 130 388 l 1,30,31
 124 406 124 406 107 443.5 c 128,-1,32
 90 481 90 481 80 510.5 c 128,-1,33
 70 540 70 540 70 564 c 0,34,35
 70 645 70 645 120 679.5 c 128,-1,36
 170 714 170 714 248 714 c 0,37,38
 319 714 319 714 372.5 669.5 c 128,-1,39
 426 625 426 625 426 564 c 1,0,-1
EndSplineSet
Validated: 1
EndChar

StartChar: currency
Encoding: 358 164 102
Width: 523
GlyphClass: 2
Flags: HMW
LayerCount: 2
Fore
SplineSet
140 302 m 128,-1,1
 140 251 140 251 176 215 c 128,-1,2
 212 179 212 179 263 179 c 128,-1,3
 314 179 314 179 350 215 c 128,-1,4
 386 251 386 251 386 302 c 128,-1,5
 386 353 386 353 350 389 c 128,-1,6
 314 425 314 425 263 425 c 128,-1,7
 212 425 212 425 176 389 c 128,-1,0
 140 353 140 353 140 302 c 128,-1,1
372 152 m 1,8,9
 325 117 325 117 263 117 c 0,10,11
 200 117 200 117 152 154 c 1,12,-1
 91 93 l 1,13,-1
 52 132 l 1,14,-1
 113 194 l 1,15,16
 78 241 78 241 78 302 c 0,17,18
 78 364 78 364 113 411 c 1,19,-1
 52 472 l 1,20,-1
 91 511 l 1,21,-1
 153 451 l 1,22,23
 199 487 199 487 263 487 c 0,24,25
 326 487 326 487 372 453 c 1,26,-1
 431 511 l 1,27,-1
 470 472 l 1,28,-1
 412 413 l 1,29,30
 447 366 447 366 447 302 c 128,-1,31
 447 238 447 238 412 191 c 1,32,-1
 470 132 l 1,33,-1
 431 93 l 1,34,-1
 372 152 l 1,8,9
EndSplineSet
Validated: 1
EndChar

StartChar: yen
Encoding: 359 165 103
Width: 536
GlyphClass: 2
Flags: HMW
LayerCount: 2
Fore
SplineSet
268 442 m 1,0,-1
 422 698 l 1,1,-1
 511 698 l 1,2,-1
 305 355 l 1,3,-1
 305 326 l 1,4,-1
 395 326 l 1,5,-1
 395 276 l 1,6,-1
 305 276 l 1,7,-1
 305 226 l 1,8,-1
 395 226 l 1,9,-1
 395 176 l 1,10,-1
 305 176 l 1,11,-1
 305 0 l 1,12,-1
 229 0 l 1,13,-1
 229 176 l 1,14,-1
 139 176 l 1,15,-1
 139 226 l 1,16,-1
 229 226 l 1,17,-1
 229 276 l 1,18,-1
 139 276 l 1,19,-1
 139 326 l 1,20,-1
 229 326 l 1,21,-1
 229 358 l 1,22,-1
 26 698 l 1,23,-1
 115 698 l 1,24,-1
 268 442 l 1,0,-1
EndSplineSet
Validated: 1
EndChar

StartChar: brokenbar
Encoding: 360 166 104
Width: 183
GlyphClass: 2
Flags: HMW
LayerCount: 2
Fore
SplineSet
71 398 m 1,0,-1
 71 768 l 1,1,-1
 113 768 l 1,2,-1
 113 398 l 1,3,-1
 71 398 l 1,0,-1
71 -70 m 1,4,-1
 71 300 l 1,5,-1
 113 300 l 1,6,-1
 113 -70 l 1,7,-1
 71 -70 l 1,4,-1
EndSplineSet
Validated: 1
EndChar

StartChar: section
Encoding: 361 167 105
Width: 503
GlyphClass: 2
Flags: MW
LayerCount: 2
Back
SplineSet
333 189 m 5
 379 215 398 252 398 289 c 4
 398 368 309 387 243 404 c 132
 162 424 76 458 76 557 c 4
 76 657 157 714 243 714 c 4
 293 714 367 678 404 622 c 5
 358 589 l 5
 339 619 292 649 246 649 c 4
 193 649 147 611 147 560 c 4
 147 492 226 482 279 462 c 4
 364 430 467 392 467 289 c 4
 467 230 427 193 365 160 c 5
 333 189 l 5
170 445 m 5
 124 419 105 382 105 345 c 4
 105 266 194 247 260 230 c 132
 341 210 427 176 427 77 c 4
 427 -23 346 -80 260 -80 c 4
 210 -80 136 -44 99 12 c 5
 145 45 l 5
 164 15 211 -15 257 -15 c 4
 310 -15 356 23 356 74 c 4
 356 142 277 152 224 172 c 4
 139 204 36 242 36 345 c 4
 36 404 76 441 138 474 c 5
 170 445 l 5
EndSplineSet
Fore
SplineSet
116 461 m 1,0,1
 76 497 76 497 76 563 c 128,-1,2
 76 629 76 629 125.5 671.5 c 128,-1,3
 175 714 175 714 243 714 c 0,4,5
 282 714 282 714 329.5 688 c 128,-1,6
 377 662 377 662 404 622 c 1,7,-1
 358 589 l 1,8,9
 343 613 343 613 311 631 c 128,-1,10
 279 649 279 649 242.5 649 c 128,-1,11
 206 649 206 649 176.5 623.5 c 128,-1,12
 147 598 147 598 147 559 c 128,-1,13
 147 520 147 520 179.5 502 c 128,-1,14
 212 484 212 484 241 475 c 0,15,16
 379 432 379 432 426 385 c 1,17,18
 466 343 466 343 467 282 c 0,19,20
 467 222 467 222 387 173 c 1,21,22
 427 137 427 137 427 71 c 128,-1,23
 427 5 427 5 377.5 -37.5 c 128,-1,24
 328 -80 328 -80 260 -80 c 0,25,26
 221 -80 221 -80 173.5 -54 c 128,-1,27
 126 -28 126 -28 99 12 c 1,28,-1
 145 45 l 1,29,30
 160 21 160 21 192 3 c 128,-1,31
 224 -15 224 -15 260.5 -15 c 128,-1,32
 297 -15 297 -15 326.5 10.5 c 128,-1,33
 356 36 356 36 356 75 c 128,-1,34
 356 114 356 114 324 132 c 128,-1,35
 292 150 292 150 262 159 c 0,36,37
 123 201 123 201 79.5 246 c 128,-1,38
 36 291 36 291 36 345 c 0,39,40
 36 411 36 411 116 461 c 1,0,1
155 435 m 1,41,42
 104 400 104 400 104 345.5 c 128,-1,43
 104 291 104 291 154 266 c 0,44,45
 195 245 195 245 226 238 c 0,46,47
 310 219 310 219 348 199 c 1,48,49
 398 234 398 234 398 288.5 c 128,-1,50
 398 343 398 343 348 368 c 0,51,52
 307 389 307 389 277 396 c 0,53,54
 193 415 193 415 155 435 c 1,41,42
EndSplineSet
Validated: 1
EndChar

StartChar: dieresis
Encoding: 362 168 106
Width: 452
GlyphClass: 2
Flags: HMW
LayerCount: 2
Fore
SplineSet
259 628 m 128,-1,1
 259 651 259 651 275 667 c 128,-1,2
 291 683 291 683 314 683 c 128,-1,3
 337 683 337 683 354 667 c 128,-1,4
 371 651 371 651 371 628 c 128,-1,5
 371 605 371 605 354 588.5 c 128,-1,6
 337 572 337 572 314 572 c 128,-1,7
 291 572 291 572 275 588.5 c 128,-1,0
 259 605 259 605 259 628 c 128,-1,1
59 628 m 128,-1,9
 59 651 59 651 75.5 667 c 128,-1,10
 92 683 92 683 115 683 c 128,-1,11
 138 683 138 683 154.5 667 c 128,-1,12
 171 651 171 651 171 628 c 128,-1,13
 171 605 171 605 154.5 588.5 c 128,-1,14
 138 572 138 572 115 572 c 128,-1,15
 92 572 92 572 75.5 588.5 c 128,-1,8
 59 605 59 605 59 628 c 128,-1,9
EndSplineSet
Validated: 1
EndChar

StartChar: copyright
Encoding: 363 169 107
Width: 719
GlyphClass: 2
Flags: HMW
LayerCount: 2
Fore
SplineSet
499 182 m 1,0,1
 448 115 448 115 365 115 c 0,2,3
 301 115 301 115 251 167.5 c 128,-1,4
 201 220 201 220 201 290 c 0,5,6
 201 362 201 362 251.5 413.5 c 128,-1,7
 302 465 302 465 364 465 c 0,8,9
 440 465 440 465 492 395 c 1,10,-1
 449 362 l 1,11,-1
 445 366 l 1,12,13
 411 413 411 413 364 413 c 0,14,15
 321 413 321 413 289 376 c 128,-1,16
 257 339 257 339 257 290 c 0,17,18
 257 239 257 239 289.5 202.5 c 128,-1,19
 322 166 322 166 364 166 c 0,20,21
 401 166 401 166 419 177 c 128,-1,22
 437 188 437 188 455 213 c 1,23,-1
 499 182 l 1,0,1
46 293 m 0,24,25
 46 424 46 424 138 515.5 c 128,-1,26
 230 607 230 607 359 607 c 0,27,28
 490 607 490 607 582 514.5 c 128,-1,29
 674 422 674 422 674 293 c 0,30,31
 674 162 674 162 581 70 c 128,-1,32
 488 -22 488 -22 359 -22 c 0,33,34
 229 -22 229 -22 137.5 71 c 128,-1,35
 46 164 46 164 46 293 c 0,24,25
93 293 m 0,36,37
 93 181 93 181 171 104 c 128,-1,38
 249 27 249 27 359 27 c 0,39,40
 471 27 471 27 548.5 105 c 128,-1,41
 626 183 626 183 626 293 c 0,42,43
 626 405 626 405 547.5 482 c 128,-1,44
 469 559 469 559 359 559 c 0,45,46
 247 559 247 559 170 481 c 128,-1,47
 93 403 93 403 93 293 c 0,36,37
EndSplineSet
Validated: 1
EndChar

StartChar: ordfeminine
Encoding: 364 170 108
Width: 422
GlyphClass: 2
Flags: HMW
LayerCount: 2
Fore
SplineSet
356 292 m 1,0,-1
 61 292 l 1,1,-1
 61 344 l 1,2,-1
 356 344 l 1,3,-1
 356 292 l 1,0,-1
207 665 m 128,-1,5
 168 665 168 665 140.5 631 c 128,-1,6
 113 597 113 597 113 554 c 128,-1,7
 113 511 113 511 141.5 477.5 c 128,-1,8
 170 444 170 444 209 444 c 128,-1,9
 248 444 248 444 276 478.5 c 128,-1,10
 304 513 304 513 304 556 c 128,-1,11
 304 599 304 599 275 632 c 128,-1,4
 246 665 246 665 207 665 c 128,-1,5
61 555 m 128,-1,13
 61 616 61 616 105.5 664.5 c 128,-1,14
 150 713 150 713 207 713 c 0,15,16
 261 713 261 713 304 673 c 1,17,-1
 304 703 l 1,18,-1
 356 703 l 1,19,-1
 356 406 l 1,20,-1
 304 406 l 1,21,-1
 304 436 l 1,22,23
 261 396 261 396 207 396 c 0,24,25
 149 396 149 396 105 445 c 128,-1,12
 61 494 61 494 61 555 c 128,-1,13
EndSplineSet
Validated: 1
EndChar

StartChar: guillemotleft
Encoding: 365 171 109
Width: 580
GlyphClass: 2
Flags: HMW
LayerCount: 2
Fore
SplineSet
23 244 m 1,0,-1
 271 432 l 1,1,-1
 313 375 l 1,2,-1
 137 244 l 1,3,-1
 313 112 l 1,4,-1
 271 56 l 1,5,-1
 23 244 l 1,0,-1
243 244 m 1,6,-1
 492 432 l 1,7,-1
 534 375 l 1,8,-1
 357 244 l 1,9,-1
 534 112 l 1,10,-1
 492 56 l 1,11,-1
 243 244 l 1,6,-1
EndSplineSet
Validated: 1
EndChar

StartChar: logicalnot
Encoding: 366 172 110
Width: 394
GlyphClass: 2
Flags: HMW
LayerCount: 2
Fore
SplineSet
328 274 m 1,0,-1
 328 121 l 1,1,-1
 271 121 l 1,2,-1
 271 218 l 1,3,-1
 67 218 l 1,4,-1
 67 274 l 1,5,-1
 328 274 l 1,0,-1
EndSplineSet
Validated: 1
EndChar

StartChar: uni00AD
Encoding: 367 173 111
Width: 340
GlyphClass: 2
Flags: HMW
LayerCount: 2
Fore
SplineSet
57 274 m 1,0,-1
 284 274 l 1,1,-1
 284 218 l 1,2,-1
 57 218 l 1,3,-1
 57 274 l 1,0,-1
EndSplineSet
Validated: 1
EndChar

StartChar: registered
Encoding: 368 174 112
Width: 719
GlyphClass: 2
Flags: HMW
LayerCount: 2
Fore
SplineSet
242 120 m 1,0,-1
 242 460 l 1,1,-1
 374 460 l 2,2,3
 416 460 416 460 448.5 431.5 c 128,-1,4
 481 403 481 403 481 358 c 0,5,6
 481 296 481 296 428 269 c 1,7,-1
 517 120 l 1,8,-1
 452 120 l 1,9,-1
 370 256 l 1,10,-1
 298 256 l 1,11,-1
 298 120 l 1,12,-1
 242 120 l 1,0,-1
46 293 m 0,13,14
 46 424 46 424 138 515.5 c 128,-1,15
 230 607 230 607 359 607 c 0,16,17
 490 607 490 607 582 514.5 c 128,-1,18
 674 422 674 422 674 293 c 0,19,20
 674 162 674 162 581 70 c 128,-1,21
 488 -22 488 -22 359 -22 c 0,22,23
 229 -22 229 -22 137.5 71 c 128,-1,24
 46 164 46 164 46 293 c 0,13,14
93 293 m 0,25,26
 93 181 93 181 171 104 c 128,-1,27
 249 27 249 27 359 27 c 0,28,29
 471 27 471 27 548.5 105 c 128,-1,30
 626 183 626 183 626 293 c 0,31,32
 626 405 626 405 547.5 482 c 128,-1,33
 469 559 469 559 359 559 c 0,34,35
 247 559 247 559 170 481 c 128,-1,36
 93 403 93 403 93 293 c 0,25,26
298 409 m 1,37,-1
 298 308 l 1,38,-1
 354 308 l 2,39,40
 393 308 393 308 409.5 323 c 128,-1,41
 426 338 426 338 426 358 c 0,42,43
 426 380 426 380 408 394.5 c 128,-1,44
 390 409 390 409 354 409 c 2,45,-1
 298 409 l 1,37,-1
EndSplineSet
Validated: 1
EndChar

StartChar: macron
Encoding: 369 175 113
Width: 415
GlyphClass: 2
Flags: HMW
LayerCount: 2
Fore
SplineSet
60 646 m 1,0,-1
 334 646 l 1,1,-1
 334 600 l 1,2,-1
 60 600 l 1,3,-1
 60 646 l 1,0,-1
EndSplineSet
Validated: 1
EndChar

StartChar: degree
Encoding: 370 176 114
Width: 349
GlyphClass: 2
Flags: HMW
LayerCount: 2
Fore
SplineSet
37 575 m 128,-1,1
 37 632 37 632 77 673 c 128,-1,2
 117 714 117 714 174 714 c 128,-1,3
 231 714 231 714 271.5 673 c 128,-1,4
 312 632 312 632 312 575 c 128,-1,5
 312 518 312 518 271.5 478.5 c 128,-1,6
 231 439 231 439 174 439 c 128,-1,7
 117 439 117 439 77 478.5 c 128,-1,0
 37 518 37 518 37 575 c 128,-1,1
92 575 m 0,8,9
 92 541 92 541 115.5 517.5 c 128,-1,10
 139 494 139 494 174 494 c 128,-1,11
 209 494 209 494 232.5 517.5 c 128,-1,12
 256 541 256 541 256 575 c 0,13,14
 256 610 256 610 232 634.5 c 128,-1,15
 208 659 208 659 174 659 c 128,-1,16
 140 659 140 659 116 634.5 c 128,-1,17
 92 610 92 610 92 575 c 0,8,9
EndSplineSet
Validated: 1
EndChar

StartChar: plusminus
Encoding: 371 177 115
Width: 502
GlyphClass: 2
Flags: HMW
LayerCount: 2
Fore
SplineSet
63 23 m 1,0,-1
 63 79 l 1,1,-1
 439 79 l 1,2,-1
 439 23 l 1,3,-1
 63 23 l 1,0,-1
223 285 m 1,4,-1
 63 285 l 1,5,-1
 63 341 l 1,6,-1
 223 341 l 1,7,-1
 223 479 l 1,8,-1
 280 479 l 1,9,-1
 280 341 l 1,10,-1
 439 341 l 1,11,-1
 439 285 l 1,12,-1
 280 285 l 1,13,-1
 280 147 l 1,14,-1
 223 147 l 1,15,-1
 223 285 l 1,4,-1
EndSplineSet
Validated: 1
EndChar

StartChar: uni00B2
Encoding: 372 178 116
Width: 364
GlyphClass: 2
Flags: HMW
LayerCount: 2
Fore
SplineSet
41 626 m 1,0,1
 73 668 73 668 103 687 c 128,-1,2
 133 706 133 706 175 706 c 0,3,4
 237 706 237 706 273 674 c 128,-1,5
 309 642 309 642 309 585 c 0,6,7
 309 540 309 540 285.5 506.5 c 128,-1,8
 262 473 262 473 204 430 c 0,9,10
 133 376 133 376 114 319 c 1,11,-1
 314 319 l 1,12,-1
 314 264 l 1,13,-1
 48 264 l 1,14,-1
 48 297 l 2,15,16
 48 377 48 377 174 477 c 0,17,18
 216 511 216 511 233 533.5 c 128,-1,19
 250 556 250 556 250 585 c 0,20,21
 250 650 250 650 175 650 c 0,22,23
 155 650 155 650 138 640.5 c 128,-1,24
 121 631 121 631 112 621 c 128,-1,25
 103 611 103 611 86 588 c 1,26,-1
 41 626 l 1,0,1
EndSplineSet
Validated: 1
EndChar

StartChar: uni00B3
Encoding: 373 179 117
Width: 348
GlyphClass: 2
Flags: HMW
LayerCount: 2
Fore
SplineSet
49 642 m 1,0,1
 68 671 68 671 102 688.5 c 128,-1,2
 136 706 136 706 167 706 c 0,3,4
 221 706 221 706 258.5 673.5 c 128,-1,5
 296 641 296 641 296 590 c 0,6,7
 296 541 296 541 234 502 c 1,8,9
 310 462 310 462 310 388 c 0,10,11
 310 325 310 325 262 292.5 c 128,-1,12
 214 260 214 260 153 260 c 0,13,14
 117 260 117 260 82.5 278.5 c 128,-1,15
 48 297 48 297 25 326 c 1,16,-1
 69 361 l 1,17,18
 106 315 106 315 153 315 c 0,19,20
 251 315 251 315 251 388 c 0,21,22
 251 471 251 471 120 471 c 1,23,-1
 120 526 l 1,24,25
 166 526 166 526 201.5 544 c 128,-1,26
 237 562 237 562 237 590 c 0,27,28
 237 617 237 617 218.5 634 c 128,-1,29
 200 651 200 651 167 651 c 0,30,31
 125 651 125 651 93 607 c 1,32,-1
 49 642 l 1,0,1
EndSplineSet
Validated: 1
EndChar

StartChar: acute
Encoding: 374 180 118
Width: 397
GlyphClass: 2
Flags: HMW
LayerCount: 2
Fore
SplineSet
59 615 m 1,0,-1
 281 760 l 1,1,-1
 315 700 l 1,2,-1
 80 581 l 1,3,-1
 59 615 l 1,0,-1
EndSplineSet
Validated: 1
EndChar

StartChar: paragraph
Encoding: 376 182 120
Width: 537
GlyphClass: 2
Flags: HMW
LayerCount: 2
Fore
SplineSet
328 0 m 1,0,-1
 251 0 l 1,1,-1
 251 289 l 1,2,3
 160 296 160 296 96.5 348.5 c 128,-1,4
 33 401 33 401 33 493 c 0,5,6
 33 592 33 592 107 645 c 128,-1,7
 181 698 181 698 279 698 c 2,8,-1
 452 698 l 1,9,-1
 452 0 l 1,10,-1
 375 0 l 1,11,-1
 375 634 l 1,12,-1
 328 634 l 1,13,-1
 328 0 l 1,0,-1
251 354 m 1,14,-1
 251 632 l 1,15,16
 191 625 191 625 154 589.5 c 128,-1,17
 117 554 117 554 117 493 c 128,-1,18
 117 432 117 432 154 396.5 c 128,-1,19
 191 361 191 361 251 354 c 1,14,-1
EndSplineSet
Validated: 1
EndChar

StartChar: periodcentered
Encoding: 377 183 121
Width: 225
GlyphClass: 2
Flags: HMW
LayerCount: 2
Fore
SplineSet
57 260 m 128,-1,1
 57 283 57 283 73.5 299 c 128,-1,2
 90 315 90 315 113 315 c 128,-1,3
 136 315 136 315 152 299 c 128,-1,4
 168 283 168 283 168 260 c 128,-1,5
 168 237 168 237 152 220.5 c 128,-1,6
 136 204 136 204 113 204 c 128,-1,7
 90 204 90 204 73.5 220.5 c 128,-1,0
 57 237 57 237 57 260 c 128,-1,1
EndSplineSet
Validated: 1
EndChar

StartChar: cedilla
Encoding: 378 184 122
Width: 353
GlyphClass: 2
Flags: HMW
LayerCount: 2
Fore
SplineSet
141 0 m 1,0,-1
 194 0 l 1,1,-1
 160 -70 l 1,2,3
 215 -70 215 -70 242 -88 c 128,-1,4
 269 -106 269 -106 269 -128 c 0,5,6
 269 -205 269 -205 59 -205 c 1,7,-1
 59 -177 l 1,8,9
 110 -177 110 -177 156.5 -165.5 c 128,-1,10
 203 -154 203 -154 203 -134 c 0,11,12
 203 -124 203 -124 195.5 -118 c 128,-1,13
 188 -112 188 -112 163.5 -108.5 c 128,-1,14
 139 -105 139 -105 92 -105 c 1,15,-1
 141 0 l 1,0,-1
EndSplineSet
Validated: 1
EndChar

StartChar: uni00B9
Encoding: 379 185 123
Width: 227
GlyphClass: 2
Flags: HMW
LayerCount: 2
Fore
SplineSet
111 698 m 1,0,-1
 166 698 l 1,1,-1
 166 266 l 1,2,-1
 108 266 l 1,3,-1
 108 572 l 1,4,-1
 49 518 l 1,5,-1
 12 532 l 1,6,-1
 111 698 l 1,0,-1
EndSplineSet
Validated: 1
EndChar

StartChar: ordmasculine
Encoding: 380 186 124
Width: 417
GlyphClass: 2
Flags: HMW
LayerCount: 2
Fore
SplineSet
209 396 m 128,-1,1
 150 396 150 396 105.5 445 c 128,-1,2
 61 494 61 494 61 555 c 128,-1,3
 61 616 61 616 105.5 664.5 c 128,-1,4
 150 713 150 713 209 713 c 128,-1,5
 268 713 268 713 312 664.5 c 128,-1,6
 356 616 356 616 356 555 c 0,7,8
 356 493 356 493 312 444.5 c 128,-1,0
 268 396 268 396 209 396 c 128,-1,1
207 665 m 128,-1,10
 168 665 168 665 140.5 631 c 128,-1,11
 113 597 113 597 113 554 c 128,-1,12
 113 511 113 511 141.5 477.5 c 128,-1,13
 170 444 170 444 209 444 c 128,-1,14
 248 444 248 444 276 478.5 c 128,-1,15
 304 513 304 513 304 556 c 128,-1,16
 304 599 304 599 275 632 c 128,-1,9
 246 665 246 665 207 665 c 128,-1,10
356 292 m 1,17,-1
 61 292 l 1,18,-1
 61 344 l 1,19,-1
 356 344 l 1,20,-1
 356 292 l 1,17,-1
EndSplineSet
Validated: 1
EndChar

StartChar: guillemotright
Encoding: 381 187 125
Width: 581
GlyphClass: 2
Flags: HMW
LayerCount: 2
Fore
SplineSet
339 244 m 1,0,-1
 90 56 l 1,1,-1
 48 113 l 1,2,-1
 223 244 l 1,3,-1
 48 376 l 1,4,-1
 90 432 l 1,5,-1
 339 244 l 1,0,-1
559 244 m 1,6,-1
 310 56 l 1,7,-1
 268 113 l 1,8,-1
 443 244 l 1,9,-1
 268 376 l 1,10,-1
 310 432 l 1,11,-1
 559 244 l 1,6,-1
EndSplineSet
Validated: 1
EndChar

StartChar: onequarter
Encoding: 382 188 126
Width: 707
GlyphClass: 2
Flags: HMW
LayerCount: 2
Fore
SplineSet
483 698 m 1,0,-1
 229 0 l 1,1,-1
 166 0 l 1,2,-1
 420 698 l 1,3,-1
 483 698 l 1,0,-1
128 698 m 1,4,-1
 183 698 l 1,5,-1
 183 266 l 1,6,-1
 125 266 l 1,7,-1
 125 572 l 1,8,-1
 67 518 l 1,9,-1
 30 532 l 1,10,-1
 128 698 l 1,4,-1
565 332 m 1,11,-1
 450 167 l 1,12,-1
 565 167 l 1,13,-1
 565 332 l 1,11,-1
568 432 m 1,14,-1
 626 432 l 1,15,-1
 626 167 l 1,16,-1
 667 167 l 1,17,-1
 667 108 l 1,18,-1
 626 108 l 1,19,-1
 626 0 l 1,20,-1
 565 0 l 1,21,-1
 565 108 l 1,22,-1
 380 108 l 1,23,-1
 380 162 l 1,24,-1
 568 432 l 1,14,-1
EndSplineSet
Validated: 1
EndChar

StartChar: onehalf
Encoding: 383 189 127
Width: 750
GlyphClass: 2
Flags: HMW
LayerCount: 2
Fore
SplineSet
432 362 m 1,0,1
 464 404 464 404 494 423 c 128,-1,2
 524 442 524 442 566 442 c 0,3,4
 628 442 628 442 664 410 c 128,-1,5
 700 378 700 378 700 321 c 0,6,7
 700 276 700 276 676.5 242.5 c 128,-1,8
 653 209 653 209 595 166 c 0,9,10
 523 112 523 112 505 56 c 1,11,-1
 706 56 l 1,12,-1
 706 0 l 1,13,-1
 439 0 l 1,14,-1
 439 33 l 2,15,16
 439 113 439 113 565 213 c 0,17,18
 607 247 607 247 624 269.5 c 128,-1,19
 641 292 641 292 641 321 c 0,20,21
 641 386 641 386 566 386 c 0,22,23
 546 386 546 386 529 376.5 c 128,-1,24
 512 367 512 367 503 357 c 128,-1,25
 494 347 494 347 477 324 c 1,26,-1
 432 362 l 1,0,1
483 698 m 1,27,-1
 229 0 l 1,28,-1
 166 0 l 1,29,-1
 420 698 l 1,30,-1
 483 698 l 1,27,-1
128 698 m 1,31,-1
 183 698 l 1,32,-1
 183 266 l 1,33,-1
 125 266 l 1,34,-1
 125 572 l 1,35,-1
 67 518 l 1,36,-1
 30 532 l 1,37,-1
 128 698 l 1,31,-1
EndSplineSet
Validated: 1
EndChar

StartChar: threequarters
Encoding: 384 190 128
Width: 791
GlyphClass: 2
Flags: HMW
LayerCount: 2
Fore
SplineSet
56 642 m 1,0,1
 75 671 75 671 109 688.5 c 128,-1,2
 143 706 143 706 174 706 c 0,3,4
 228 706 228 706 265.5 673.5 c 128,-1,5
 303 641 303 641 303 590 c 0,6,7
 303 540 303 540 242 502 c 1,8,9
 317 463 317 463 317 388 c 0,10,11
 317 325 317 325 269 292.5 c 128,-1,12
 221 260 221 260 160 260 c 0,13,14
 124 260 124 260 89.5 278.5 c 128,-1,15
 55 297 55 297 32 326 c 1,16,-1
 76 361 l 1,17,18
 113 315 113 315 160 315 c 0,19,20
 258 315 258 315 258 388 c 0,21,22
 258 471 258 471 127 471 c 1,23,-1
 127 526 l 1,24,25
 173 526 173 526 208.5 544 c 128,-1,26
 244 562 244 562 244 590 c 0,27,28
 244 617 244 617 225.5 634 c 128,-1,29
 207 651 207 651 174 651 c 0,30,31
 132 651 132 651 100 607 c 1,32,-1
 56 642 l 1,0,1
571 698 m 1,33,-1
 317 0 l 1,34,-1
 254 0 l 1,35,-1
 508 698 l 1,36,-1
 571 698 l 1,33,-1
653 332 m 1,37,-1
 538 167 l 1,38,-1
 653 167 l 1,39,-1
 653 332 l 1,37,-1
656 432 m 1,40,-1
 714 432 l 1,41,-1
 714 167 l 1,42,-1
 755 167 l 1,43,-1
 755 108 l 1,44,-1
 714 108 l 1,45,-1
 714 0 l 1,46,-1
 653 0 l 1,47,-1
 653 108 l 1,48,-1
 468 108 l 1,49,-1
 468 162 l 1,50,-1
 656 432 l 1,40,-1
EndSplineSet
Validated: 1
EndChar

StartChar: questiondown
Encoding: 385 191 129
Width: 472
GlyphClass: 2
Flags: HMW
LayerCount: 2
Back
SplineSet
313 558 m 128
 313 542.667 307.667 529.667 297 519 c 128
 286.333 508.333 273.333 503 258 503 c 128
 242.667 503 229.667 508.333 219 519 c 128
 208.333 529.667 203 542.667 203 558 c 128
 203 573.333 208.333 586.5 219 597.5 c 128
 229.667 608.5 242.667 614 258 614 c 128
 273.333 614 286.333 608.5 297 597.5 c 128
 307.667 586.5 313 573.333 313 558 c 128
442 34 m 1
 426.667 -8.66667 401 -43 365 -69 c 128
 329 -95 290.333 -108 249 -108 c 0
 189.667 -108 140 -89 100 -51 c 128
 60 -13 40 34 40 90 c 0
 40 121.333 44.5 149 53.5 173 c 128
 62.5 197 73.6667 215.833 87 229.5 c 128
 100.333 243.167 115 257.333 131 272 c 128
 147 286.667 161.667 300.167 175 312.5 c 128
 188.333 324.834 199.5 341.667 208.5 363 c 128
 217.5 384.334 222 408.667 222 436 c 1
 293 436 l 1
 293 404.667 288.5 377 279.5 353 c 128
 270.5 329 259.333 310.167 246 296.5 c 128
 232.667 282.832 218 268.666 202 254 c 128
 186 239.333 171.333 225.833 158 213.5 c 128
 144.667 201.166 133.5 184.333 124.5 163 c 128
 115.5 141.667 111 117.333 111 90 c 0
 111 51.3333 123.333 19.3333 148 -6 c 128
 172.667 -31.3333 206.333 -44 249 -44 c 0
 279.667 -44 306.5 -35.5 329.5 -18.5 c 128
 352.5 -1.5 369 22.6667 379 54 c 1
 442 34 l 1
EndSplineSet
Fore
SplineSet
257 614 m 128,-1,1
 279 614 279 614 295.5 597.5 c 128,-1,2
 312 581 312 581 312 558.5 c 128,-1,3
 312 536 312 536 295.5 519.5 c 128,-1,4
 279 503 279 503 256.5 503 c 128,-1,5
 234 503 234 503 217.5 519.5 c 128,-1,6
 201 536 201 536 201 558 c 128,-1,7
 201 580 201 580 218 597 c 128,-1,0
 235 614 235 614 257 614 c 128,-1,1
147 -7 m 128,-1,9
 185 -44 185 -44 240.5 -44 c 128,-1,10
 296 -44 296 -44 329.5 -17 c 128,-1,11
 363 10 363 10 377 54 c 1,12,-1
 441 34 l 1,13,14
 419 -25 419 -25 367 -66.5 c 128,-1,15
 315 -108 315 -108 238 -108 c 128,-1,16
 161 -108 161 -108 100 -51 c 128,-1,17
 39 6 39 6 39 90 c 0,18,19
 39 136 39 136 52.5 170.5 c 128,-1,20
 66 205 66 205 86 223.5 c 128,-1,21
 106 242 106 242 130 261.5 c 128,-1,22
 154 281 154 281 174 297.5 c 128,-1,23
 194 314 194 314 207.5 344.5 c 128,-1,24
 221 375 221 375 221 416 c 1,25,-1
 291 416 l 1,26,27
 291 365 291 365 277.5 327.5 c 128,-1,28
 264 290 264 290 244 271 c 128,-1,29
 224 252 224 252 200 233.5 c 128,-1,30
 176 215 176 215 156 200 c 0,31,32
 109 164.75 109 164.75 109 97.375 c 128,-1,8
 109 30 109 30 147 -7 c 128,-1,9
EndSplineSet
EndChar

StartChar: AE
Encoding: 392 198 136
Width: 790
GlyphClass: 2
Flags: HMW
AnchorPoint: "above" 413 743 basechar 0
LayerCount: 2
Fore
SplineSet
167 196 m 1,0,-1
 61 0 l 1,1,-1
 -20 0 l 1,2,-1
 356 696 l 1,3,-1
 356 698 l 1,4,-1
 748 698 l 1,5,-1
 748 634 l 1,6,-1
 432 634 l 1,7,-1
 432 411 l 1,8,-1
 678 411 l 1,9,-1
 678 348 l 1,10,-1
 432 348 l 1,11,-1
 432 63 l 1,12,-1
 751 63 l 1,13,-1
 751 0 l 1,14,-1
 356 0 l 1,15,-1
 356 196 l 1,16,-1
 167 196 l 1,0,-1
202 259 m 1,17,-1
 356 259 l 1,18,-1
 356 545 l 1,19,-1
 202 259 l 1,17,-1
EndSplineSet
Validated: 1
EndChar

StartChar: Eth
Encoding: 402 208 146
Width: 626
GlyphClass: 2
UnlinkRmOvrlpSave: 1
Flags: HMW
LayerCount: 2
Back
SplineSet
160 316 m 1
 160 70 l 1
 213 70 l 2
 304.333 70 375 92.8334 425 138.5 c 128
 475 184.167 500 254 500 348 c 0
 500 442.667 475 513 425 559 c 128
 375 605 304.333 628 213 628 c 2
 160 628 l 1
 160 380 l 1
 290 380 l 5
 290 316 l 5
 160 316 l 1
83 316 m 1
 22 316 l 1
 22 380 l 1
 83 380 l 1
 83 698 l 1
 236 698 l 2
 281.334 698 324.167 691 364.5 677 c 128
 404.833 663 441.333 642.333 474 615 c 128
 506.667 587.667 532.667 551 552 505 c 128
 571.333 459 581 406.667 581 348 c 128
 581 289.333 571.333 237.167 552 191.5 c 128
 532.667 145.833 506.667 109.333 474 82 c 128
 441.333 54.6667 404.833 34.1667 364.5 20.5 c 128
 324.167 6.83333 281.333 0 236 0 c 2
 83 0 l 1
 83 316 l 1
EndSplineSet
Fore
SplineSet
22 316 m 1
 22 380 l 1
 290 380 l 1
 290 316 l 1
 22 316 l 1
EndSplineSet
Refer: 39 68 N 1 0 0 1 2 0 2
EndChar

StartChar: multiply
Encoding: 409 215 153
Width: 440
GlyphClass: 2
Flags: HMW
LayerCount: 2
Fore
SplineSet
180 246 m 1,0,-1
 53 373 l 1,1,-1
 93 413 l 1,2,-1
 220 286 l 1,3,-1
 347 413 l 1,4,-1
 387 373 l 1,5,-1
 260 246 l 1,6,-1
 387 119 l 1,7,-1
 347 79 l 1,8,-1
 220 206 l 1,9,-1
 93 79 l 1,10,-1
 53 119 l 1,11,-1
 180 246 l 1,0,-1
EndSplineSet
Validated: 1
EndChar

StartChar: Oslash
Encoding: 410 216 154
Width: 686
GlyphClass: 2
UnlinkRmOvrlpSave: 1
Flags: HMW
AnchorPoint: "above" 343 743 basechar 0
LayerCount: 2
Back
SplineSet
519 523 m 1
 197 132 l 1
 239 80 288 54 344 54 c 0
 404.667 54 456.333 83.5 499 142.5 c 128
 541.667 201.5 563 270 563 348 c 0
 563 412 548.333 470.333 519 523 c 1
489 566 m 1
 445.667 618 397.333 644 344 644 c 0
 283.333 644 231.667 614.333 189 555 c 128
 146.333 495.667 125 426.667 125 348 c 0
 125 282.667 139.333 225 168 175 c 1
 489 566 l 1
44 348 m 0
 44 446 74.1667 531.5 134.5 604.5 c 128
 194.833 677.5 264.667 714 344 714 c 0
 416 714 480.333 684 537 624 c 1
 598 698 l 5
 663 698 l 5
 568 585 l 1
 618.667 513.666 644 434.666 644 348 c 0
 644 250 613.833 164.833 553.5 92.5 c 128
 493.167 20.1667 423.333 -16 344 -16 c 0
 273.333 -16 209 14.6667 151 76 c 1
 88 0 l 5
 25 0 l 5
 119 114 l 1
 69 182.667 44 260.667 44 348 c 0
EndSplineSet
Fore
SplineSet
496 748 m 1
 543 726 l 1
 183 -46 l 1
 136 -24 l 1
 496 748 l 1
EndSplineSet
Refer: 50 79 N 1 0 0 1 0 0 2
EndChar

StartChar: Thorn
Encoding: 416 222 160
Width: 525
GlyphClass: 2
Flags: MW
LayerCount: 2
Back
SplineSet
126 238 m 5
 293 238 l 6
 366 238 423 282 423 350 c 4
 423 417 366 461 293 461 c 6
 126 461 l 5
 126 525 l 5
 293 525 l 6
 405 525 507 458 507 350 c 132
 507 242 407 175 295 175 c 6
 126 175 l 5
 126 238 l 5
158 0 m 5
 81 0 l 5
 81 698 l 5
 158 698 l 5
 158 0 l 5
EndSplineSet
Fore
SplineSet
158 0 m 1,0,-1
 81 0 l 1,1,-1
 81 698 l 1,2,-1
 158 698 l 1,3,-1
 158 525 l 1,4,-1
 293 525 l 2,5,6
 381 525 381 525 444 476.5 c 128,-1,7
 507 428 507 428 507 350 c 128,-1,8
 507 272 507 272 444.5 223.5 c 128,-1,9
 382 175 382 175 295 175 c 2,10,-1
 158 175 l 1,11,-1
 158 0 l 1,0,-1
158 461 m 1,12,-1
 158 238 l 1,13,-1
 293 238 l 2,14,15
 349 238 349 238 386 269 c 128,-1,16
 423 300 423 300 423 349.5 c 128,-1,17
 423 399 423 399 386 430 c 128,-1,18
 349 461 349 461 293 461 c 2,19,-1
 158 461 l 1,12,-1
EndSplineSet
Validated: 1
EndChar

StartChar: germandbls
Encoding: 417 223 161
Width: 500
GlyphClass: 2
Flags: MW
LayerCount: 2
Back
SplineSet
209 433 m 4
 381 433 477 314 477 215 c 4
 477 44 397 -16 317 -16 c 4
 271 -16 205 27 176 97 c 5
 227 120.5 l 5
 244 82 289 48 317 48 c 4
 367 48 407 92 407 215 c 4
 407 314 295 390 209 390 c 4
 209 433 l 4
209 440 m 132
 294 440 367 535 367 576 c 4
 367 634 326 695 244 695 c 4
 170 695 134 643 134 564 c 6
 134 0 l 5
 65 0 l 5
 65 546 l 6
 65 688 125 759 244 759 c 4
 372 759 437 686 437 576 c 4
 437 470 309 398 209 398 c 132
 209 440 l 132
EndSplineSet
Fore
SplineSet
209 440 m 1,0,1
 267 440 267 440 317 490 c 128,-1,2
 367 540 367 540 367 576 c 0,3,4
 367 624 367 624 334.5 659.5 c 128,-1,5
 302 695 302 695 246 695 c 128,-1,6
 190 695 190 695 162 660 c 128,-1,7
 134 625 134 625 134 564 c 2,8,-1
 134 0 l 1,9,-1
 65 0 l 1,10,-1
 65 546 l 2,11,12
 65 759 65 759 244 759 c 0,13,14
 338 759 338 759 388 710 c 128,-1,15
 438 661 438 661 438 581 c 128,-1,16
 438 501 438 501 364 450 c 0,17,18
 337 431 337 431 309 419 c 1,19,20
 364 402 364 402 404 365 c 0,21,22
 477 298 477 298 477 217 c 0,23,24
 477 216 477 216 477 215 c 0,25,26
 477 96 477 96 431 40 c 128,-1,27
 385 -16 385 -16 317 -16 c 0,28,29
 280 -16 280 -16 238.5 15.5 c 128,-1,30
 197 47 197 47 176 97 c 1,31,-1
 227 120 l 1,32,33
 239 92 239 92 267.5 70 c 128,-1,34
 296 48 296 48 317 48 c 0,35,36
 407 48 407 48 407 215 c 0,37,38
 407 286 407 286 342.5 338 c 128,-1,39
 278 390 278 390 209 390 c 1,40,-1
 209 440 l 1,0,1
EndSplineSet
Validated: 1
EndChar

StartChar: ae
Encoding: 424 230 168
Width: 887
GlyphClass: 2
Flags: MW
AnchorPoint: "above" 419 581 basechar 0
LayerCount: 2
Back
SplineSet
484 82 m 5
 425.333 33.333 336 -16 213 -16 c 4
 114.589 -16 28 35.9503 28 131 c 4
 28 254.522 158 297 263 297 c 4
 310.667 297 407 271 421 266 c 5
 412 216 l 5
 370 229.5 325.333 237 264 237 c 4
 196 237 104 215.054 104 130 c 4
 104 70.2341 157.582 47 216 47 c 4
 296.667 47 388 76 442 120 c 5
 484 82 l 5
388 248 m 5
 388 340.5 333 431 243 431 c 4
 170.986 431 145.967 405.379 114 365 c 5
 59 398 l 5
 102.726 453.499 144.634 495 243 495 c 4
 368 495 436 391 436 264.5 c 5
 388 248 l 5
426 303 m 5
 819 303 l 5
 819 240 l 5
 426 240 l 5
 426 303 l 5
789 240 m 5
 789 355 700 432 621 432 c 132
 527 432 453 338 453 240 c 5
 453 142 527 47 621 47 c 4
 720 47 751 72 788 134 c 5
 844 97 l 5
 796 23 742 -16 623 -16 c 4
 497 -16 384 102 384 240 c 132
 384 376 495 496 621 496 c 132
 746 496 859 376 859 240 c 5
 789 240 l 5
EndSplineSet
Fore
SplineSet
154.5 282 m 128,-1,1
 205 297 205 297 254 297 c 128,-1,2
 303 297 303 297 386 276 c 1,3,4
 386 277 l 1,5,6
 380 333 380 333 348 376 c 0,7,8
 308 431 308 431 243 431 c 0,9,10
 194 431 194 431 168 415.5 c 128,-1,11
 142 400 142 400 114 365 c 1,12,-1
 59 398 l 1,13,14
 98 447 98 447 137 471 c 128,-1,15
 176 495 176 495 243 495 c 0,16,17
 244 495 244 495 246 495 c 0,18,19
 333 495 333 495 384 430 c 0,20,21
 405 403 405 403 418 369 c 1,22,23
 434 395 434 395 456 419 c 0,24,25
 528 496 528 496 621.5 496 c 128,-1,26
 715 496 715 496 787 419 c 128,-1,27
 859 342 859 342 859 240 c 1,28,-1
 453 240 l 1,29,30
 453 165 453 165 502.5 106 c 128,-1,31
 552 47 552 47 622 47 c 128,-1,32
 692 47 692 47 725.5 66 c 128,-1,33
 759 85 759 85 788 134 c 1,34,-1
 844 97 l 1,35,36
 806 38 806 38 757 11 c 128,-1,37
 708 -16 708 -16 618 -16 c 128,-1,38
 528 -16 528 -16 456 60 c 1,39,40
 348 -16 348 -16 213 -16 c 0,41,42
 135 -16 135 -16 81.5 23.5 c 128,-1,43
 28 63 28 63 28 126 c 128,-1,44
 28 189 28 189 66 228 c 128,-1,0
 104 267 104 267 154.5 282 c 128,-1,1
780 303 m 1,45,46
 766 345 766 345 736 377 c 0,47,48
 684 432 684 432 618 432 c 128,-1,49
 552 432 552 432 502 374 c 0,50,51
 474 341 474 341 463 303 c 1,52,-1
 780 303 l 1,45,46
422 105 m 1,53,54
 389 159 389 159 384 224 c 1,55,56
 329 237 329 237 277 237 c 128,-1,57
 225 237 225 237 191.5 228.5 c 128,-1,58
 158 220 158 220 131 195 c 128,-1,59
 104 170 104 170 104 129 c 128,-1,60
 104 88 104 88 136 67.5 c 128,-1,61
 168 47 168 47 222.5 47 c 128,-1,62
 277 47 277 47 332 64.5 c 128,-1,63
 387 82 387 82 422 105 c 1,53,54
EndSplineSet
Validated: 1
EndChar

StartChar: ccedilla
Encoding: 425 231 169
Width: 488
GlyphClass: 2
UnlinkRmOvrlpSave: 1
Flags: HMW
LayerCount: 2
Back
SplineSet
252 -15 m 1
 195.333 -8.33333 145.167 19.8333 101.5 69.5 c 128
 57.8333 119.167 36 176 36 240 c 0
 36 308.667 60.3333 368.5 109 419.5 c 128
 157.667 470.5 212.333 496 273 496 c 0
 306.334 496 339.167 487.167 371.5 469.5 c 128
 403.834 451.833 431.667 428.333 455 399 c 1
 403 359 l 1
 368.333 407.667 325 432 273 432 c 0
 228.333 432 189.167 413.167 155.5 375.5 c 128
 121.833 337.833 105 292.667 105 240 c 128
 105 187.333 121.833 142 155.5 104 c 128
 189.167 66 228.333 47 273 47 c 0
 308.333 47 335.833 52.3333 355.5 63 c 128
 375.167 73.6667 394 90.6667 412 114 c 1
 466 76 l 1
 421.333 20 367.333 -10.3333 304 -15 c 1
 278 -70 l 1
 314.667 -70 342 -76 360 -88 c 128
 378 -100 387 -113.333 387 -128 c 0
 387 -179.333 317 -205 177 -205 c 1
 177 -177 l 1
 211 -177 243.5 -173.167 274.5 -165.5 c 128
 305.5 -157.833 321 -147.333 321 -134 c 0
 321 -127.333 318.5 -122 313.5 -118 c 128
 308.5 -114 297.833 -110.833 281.5 -108.5 c 128
 265.167 -106.167 241.333 -105 210 -105 c 1
 252 -15 l 1
EndSplineSet
Fore
Refer: 476 807 N 1 0 0 1 611 0 2
Refer: 70 99 N 1 0 0 1 0 0 2
EndChar

StartChar: eth
Encoding: 434 240 178
Width: 557
GlyphClass: 2
Flags: MW
LayerCount: 2
Back
SplineSet
202.169 548 m 5
 165.829 593.973 l 5
 359.131 742.399 l 5
 395.471 696.428 l 5
 202.169 548 l 5
103 240 m 132
 103 136.4 178.3 47 272 47 c 132
 364.3 47 440 142.4 440 240 c 132
 440 488.4 324.3 586.4 165 696 c 5
 200.3 743 l 5
 444.3 586.4 510 434.4 510 240 c 4
 510 104.4 398.3 -16 274 -16 c 132
 124.3 -16 35 126.4 35 240 c 132
 35 354.4 128.3 496 272 496 c 4
 376.3 496 462.3 380.4 476.3 348.4 c 13
 444.3 322.4 l 29
 444.3 322.4 372.3 431 272 431 c 132
 178.3 431 103 340.4 103 240 c 132
EndSplineSet
Fore
SplineSet
153 373.5 m 128,-1,1
 103 316 103 316 103 239 c 128,-1,2
 103 162 103 162 152.5 104.5 c 128,-1,3
 202 47 202 47 271 47 c 128,-1,4
 340 47 340 47 390 106 c 128,-1,5
 440 165 440 165 440 240 c 0,6,7
 440 292 440 292 434 337 c 1,8,9
 386 396 386 396 329 419 c 0,10,11
 301 431 301 431 272 431 c 0,12,0
 203 431 203 431 153 373.5 c 128,-1,1
202 548 m 1,13,-1
 166 594 l 1,14,-1
 234 646 l 1,15,16
 204 669 204 669 165 696 c 1,17,-1
 200 743 l 1,18,19
 245 714 245 714 284 684 c 1,20,-1
 359 742 l 1,21,-1
 395 696 l 1,22,-1
 330 646 l 1,23,24
 462 529 462 529 496 379 c 0,25,26
 510 316 510 316 510 240 c 0,27,28
 510 138 510 138 438.5 61 c 128,-1,29
 367 -16 367 -16 268 -16 c 128,-1,30
 169 -16 169 -16 102 65 c 128,-1,31
 35 146 35 146 35 239.5 c 128,-1,32
 35 333 35 333 102.5 414.5 c 128,-1,33
 170 496 170 496 272 496 c 0,34,35
 308 496 308 496 345 478 c 128,-1,36
 382 460 382 460 410 432 c 1,37,38
 375 526 375 526 281 609 c 1,39,-1
 202 548 l 1,13,-1
EndSplineSet
Validated: 1
EndChar

StartChar: divide
Encoding: 441 247 185
Width: 457
GlyphClass: 2
Flags: HMW
LayerCount: 2
Fore
SplineSet
170 78 m 128,-1,1
 170 101 170 101 186 117 c 128,-1,2
 202 133 202 133 225 133 c 128,-1,3
 248 133 248 133 265 117 c 128,-1,4
 282 101 282 101 282 78 c 128,-1,5
 282 55 282 55 265 38.5 c 128,-1,6
 248 22 248 22 225 22 c 128,-1,7
 202 22 202 22 186 38.5 c 128,-1,0
 170 55 170 55 170 78 c 128,-1,1
170 398 m 128,-1,9
 170 421 170 421 186 437 c 128,-1,10
 202 453 202 453 225 453 c 128,-1,11
 248 453 248 453 265 437 c 128,-1,12
 282 421 282 421 282 398 c 128,-1,13
 282 375 282 375 265 358.5 c 128,-1,14
 248 342 248 342 225 342 c 128,-1,15
 202 342 202 342 186 358.5 c 128,-1,8
 170 375 170 375 170 398 c 128,-1,9
54 274 m 1,16,-1
 402 274 l 1,17,-1
 402 218 l 1,18,-1
 54 218 l 1,19,-1
 54 274 l 1,16,-1
EndSplineSet
Validated: 1
EndChar

StartChar: oslash
Encoding: 442 248 186
Width: 544
GlyphClass: 2
UnlinkRmOvrlpSave: 1
Flags: HMW
AnchorPoint: "above" 272 581 basechar 0
LayerCount: 2
Back
SplineSet
36 240 m 0
 36 308.667 60.3333 368.5 109 419.5 c 128
 157.667 470.5 212.333 496 273 496 c 0
 327.667 496 377.667 475.333 423 434 c 1
 465 479 l 1
 529 479 l 1
 455 400 l 1
 492.333 352 511 298.667 511 240 c 0
 511 170.667 486.833 110.667 438.5 60 c 128
 390.167 9.33333 335.667 -16 275 -16 c 0
 220.333 -16 170.333 4.66667 125 46 c 1
 82 0 l 1
 18 0 l 1
 93 80 l 1
 55 128 36 181.333 36 240 c 0
379 387 m 1
 347 417 311.667 432 273 432 c 0
 228.333 432 189.167 413.167 155.5 375.5 c 128
 121.833 337.833 105 292.667 105 240 c 0
 105 200.667 116 163.333 138 128 c 1
 379 387 l 1
409 350 m 1
 168 92 l 1
 199.333 62 234.333 47 273 47 c 0
 317.667 47 356.833 66 390.5 104 c 128
 424.167 142 441 187.333 441 240 c 0
 441 280 430.333 316.667 409 350 c 1
EndSplineSet
Fore
SplineSet
390 557 m 1
 438 535 l 1
 160 -62 l 1
 112 -40 l 1
 390 557 l 1
EndSplineSet
Refer: 82 111 N 1 0 0 1 0 0 2
EndChar

StartChar: thorn
Encoding: 448 254 192
Width: 513
GlyphClass: 2
Flags: MW
LayerCount: 2
Back
SplineSet
98.4004 26.7002 m 5
 222.4 39.4004 410 161.7 410 323.7 c 4
 410 394.7 357.7 431 322.7 431 c 4
 241.7 431 177 380 118 305 c 5
 89 337 l 5
 125 394 183.7 496 322.7 496 c 4
 411.7 496 485 430.7 485 320.7 c 4
 485 110.7 272.4 11.4004 114.7 -23.2998 c 5
 98.4004 26.7002 l 5
134 -205 m 5
 65 -205 l 5
 65 638 l 5
 134 638 l 5
 134 -205 l 5
EndSplineSet
Fore
SplineSet
134 -205 m 1,0,-1
 65 -205 l 1,1,-1
 65 638 l 1,2,-1
 134 638 l 1,3,-1
 134 402 l 1,4,5
 168 442 168 442 192 458 c 0,6,7
 251 496 251 496 321.5 496 c 128,-1,8
 392 496 392 496 438.5 448.5 c 128,-1,9
 485 401 485 401 485 321 c 0,10,11
 485 261 485 261 461.5 208 c 128,-1,12
 438 155 438 155 400 119 c 1,13,14
 303 23 303 23 134 -19 c 1,15,-1
 134 -205 l 1,0,-1
134 324 m 1,16,-1
 134 33 l 1,17,18
 219 54 219 54 301 119 c 0,19,20
 348 157 348 157 379 211.5 c 128,-1,21
 410 266 410 266 410 319.5 c 128,-1,22
 410 373 410 373 381.5 402 c 128,-1,23
 353 431 353 431 323 431 c 0,24,25
 226 431 226 431 134 324 c 1,16,-1
EndSplineSet
Validated: 1
EndChar

StartChar: Aogonek
Encoding: 454 260 198
Width: 589
GlyphClass: 2
UnlinkRmOvrlpSave: 1
Flags: HMW
AnchorPoint: "above" 295 743 basechar 0
LayerCount: 2
Back
SplineSet
524 0 m 1
 497.333 -8.66667 479.5 -18 470.5 -28 c 128
 461.5 -38 457 -56.6667 457 -84 c 0
 457 -130.667 492 -154 562 -154 c 0
 576.667 -154 595 -151.667 617 -147 c 1
 625 -174 l 1
 586.333 -184.667 551 -190 519 -190 c 0
 433 -190 390 -157.667 390 -93 c 0
 390 -32.3333 427 6 501 22 c 1
 436 196 l 1
 154 196 l 1
 83 0 l 1
 1 0 l 1
 254 697 l 1
 254 698 l 1
 337 698 l 1
 336 697 l 1
 590 0 l 1
 524 0 l 1
296 584 m 1
 177 259 l 1
 414 259 l 1
 296 584 l 1
EndSplineSet
Fore
Refer: 477 808 S 1 0 0 1 825 0 2
Refer: 36 65 N 1 0 0 1 0 0 2
EndChar

StartChar: aogonek
Encoding: 455 261 199
Width: 574
GlyphClass: 2
UnlinkRmOvrlpSave: 1
Flags: HMW
AnchorPoint: "above" 282 581 basechar 0
LayerCount: 2
Back
SplineSet
442 -84 m 0
 442 -130.667 477.333 -154 548 -154 c 0
 566 -154 584.333 -151.667 603 -147 c 1
 610 -174 l 1
 570 -184.667 534.667 -190 504 -190 c 0
 418 -190 375 -157.667 375 -93 c 0
 375 -48.3333 396.667 -15.6667 440 5 c 1
 440 62 l 1
 392 10 336.667 -16 274 -16 c 0
 213.333 -16 158.333 9.5 109 60.5 c 128
 59.6667 111.5 35 171.333 35 240 c 128
 35 308.667 59.3333 368.5 108 419.5 c 128
 156.667 470.5 211.333 496 272 496 c 0
 335.333 496 391.333 469.333 440 416 c 1
 440 479 l 1
 510 479 l 1
 510 0 l 1
 482 -8.66667 463.667 -18.6667 455 -30 c 128
 446.333 -41.3333 442 -59.3333 442 -84 c 0
104 240 m 128
 104 187.333 120.833 142 154.5 104 c 128
 188.167 66 227.333 47 272 47 c 128
 316.667 47 355.833 66 389.5 104 c 128
 423.167 142 440 187.333 440 240 c 128
 440 292.667 423.167 337.833 389.5 375.5 c 128
 355.833 413.167 316.666 432 272 432 c 128
 227.333 432 188.167 413.167 154.5 375.5 c 128
 120.833 337.833 104 292.667 104 240 c 128
EndSplineSet
Fore
Refer: 477 808 S 1 0 0 1 810 0 2
Refer: 68 97 N 1 0 0 1 0 0 2
EndChar

StartChar: dcroat
Encoding: 467 273 211
Width: 574
GlyphClass: 2
UnlinkRmOvrlpSave: 1
Flags: HMW
LayerCount: 2
Back
SplineSet
104 240 m 128
 104 187.333 120.833 142 154.5 104 c 128
 188.167 66 227.333 47 272 47 c 128
 316.667 47 355.833 66 389.5 104 c 128
 423.167 142 440 187.333 440 240 c 128
 440 292.667 423.167 337.833 389.5 375.5 c 128
 355.833 413.167 316.666 432 272 432 c 128
 227.333 432 188.167 413.167 154.5 375.5 c 128
 120.833 337.833 104 292.667 104 240 c 128
35 240 m 128
 35 308.667 59.3333 368.5 108 419.5 c 128
 156.667 470.5 211.333 496 272 496 c 0
 335.333 496 391.333 469.333 440 416 c 1
 440 581 l 1
 296 581 l 5
 296 645 l 5
 440 645 l 1
 440 743 l 1
 510 743 l 1
 510 645 l 1
 564 645 l 5
 564 581 l 5
 510 581 l 1
 510 0 l 1
 440 0 l 1
 440 62 l 1
 392 10 336.667 -16 274 -16 c 0
 213.333 -16 158.333 9.5 109 60.5 c 128
 59.6667 111.5 35 171.333 35 240 c 128
EndSplineSet
Fore
SplineSet
296 581 m 1
 296 645 l 1
 564 645 l 1
 564 581 l 1
 296 581 l 1
EndSplineSet
Refer: 71 100 N 1 0 0 1 0 0 2
EndChar

StartChar: Eogonek
Encoding: 474 280 218
Width: 515
GlyphClass: 2
UnlinkRmOvrlpSave: 1
Flags: HMW
AnchorPoint: "above" 292 743 basechar 0
LayerCount: 2
Back
SplineSet
345 -84 m 0
 345 -130.667 380.333 -154 451 -154 c 0
 469 -154 487.333 -151.667 506 -147 c 1
 513 -174 l 1
 473 -184.667 437.667 -190 407 -190 c 0
 321 -190 278 -157.667 278 -93 c 0
 278 -51.6667 296.333 -20.6667 333 0 c 1
 81 0 l 1
 81 698 l 1
 472 698 l 1
 472 634 l 1
 158 634 l 1
 158 411 l 1
 403 411 l 1
 403 348 l 1
 158 348 l 1
 158 63 l 1
 475 63 l 1
 475 0 l 1
 413 0 l 1
 385 -8.66667 366.667 -18.6667 358 -30 c 128
 349.333 -41.3333 345 -59.3333 345 -84 c 0
EndSplineSet
Fore
Refer: 477 808 N 1 0 0 1 713 0 2
Refer: 40 69 N 1 0 0 1 0 0 2
EndChar

StartChar: eogonek
Encoding: 475 281 219
Width: 538
GlyphClass: 2
UnlinkRmOvrlpSave: 1
Flags: HMW
AnchorPoint: "above" 272 581 basechar 0
LayerCount: 2
Back
SplineSet
291 -84 m 0
 291 -130.667 326 -154 396 -154 c 0
 414.667 -154 433.333 -151.667 452 -147 c 1
 459 -174 l 1
 419 -184.667 383.333 -190 352 -190 c 0
 266 -190 223 -157.667 223 -93 c 0
 223 -59.6667 234.333 -33.6667 257 -15 c 1
 199 -9 147.667 18.6667 103 68 c 128
 58.3333 117.333 36 174.667 36 240 c 0
 36 308.667 60.3333 368.5 109 419.5 c 128
 157.667 470.5 212.333 496 273 496 c 128
 333.667 496 388.5 470.5 437.5 419.5 c 128
 486.5 368.5 511 308.667 511 240 c 1
 105 240 l 1
 105 187.333 121.833 142 155.5 104 c 128
 189.167 66 228.333 47 273 47 c 0
 321.667 47 357.167 53.8333 379.5 67.5 c 128
 401.833 81.1667 422 103.333 440 134 c 1
 496 97 l 1
 474 64.3333 450.167 39 424.5 21 c 128
 398.833 3 365.333 -8.33333 324 -13 c 1
 310.667 -20.3333 301.833 -29.1667 297.5 -39.5 c 128
 293.167 -49.8333 291 -64.6667 291 -84 c 0
116 303 m 1
 431 303 l 1
 419 341 398.333 372 369 396 c 128
 339.667 420 307.667 432 273 432 c 128
 238.333 432 206.5 420 177.5 396 c 128
 148.5 372 128 341 116 303 c 1
EndSplineSet
Fore
Refer: 477 808 S 1 0 0 1 659 0 2
Refer: 72 101 N 1 0 0 1 0 0 2
EndChar

StartChar: Hbar
Encoding: 488 294 232
Width: 622
GlyphClass: 2
UnlinkRmOvrlpSave: 1
Flags: HMW
LayerCount: 2
Back
SplineSet
542 542 m 1
 542 0 l 1
 465 0 l 1
 465 333 l 1
 158 333 l 1
 158 0 l 1
 81 0 l 1
 81 542 l 1
 37 542 l 5
 37 581 l 5
 81 581 l 1
 81 698 l 1
 158 698 l 1
 158 581 l 1
 465 581 l 1
 465 698 l 1
 542 698 l 1
 542 581 l 1
 588 581 l 5
 588 542 l 5
 542 542 l 1
465 542 m 1
 158 542 l 1
 158 396 l 1
 465 396 l 1
 465 542 l 1
EndSplineSet
Fore
SplineSet
37 542 m 1
 37 581 l 1
 588 581 l 1
 588 542 l 1
 37 542 l 1
EndSplineSet
Refer: 43 72 N 1 0 0 1 0 0 2
EndChar

StartChar: hbar
Encoding: 489 295 233
Width: 547
GlyphClass: 2
UnlinkRmOvrlpSave: 1
Flags: HMW
LayerCount: 2
Back
SplineSet
488 303 m 2
 488 0 l 1
 419 0 l 1
 419 303 l 2
 419 339 405.833 369.5 379.5 394.5 c 128
 353.167 419.5 318.667 432 276 432 c 128
 233.333 432 199 413.667 173 377 c 128
 147 340.333 134 294.667 134 240 c 2
 134 0 l 1
 65 0 l 1
 65 581 l 1
 19 581 l 5
 19 645 l 5
 65 645 l 1
 65 743 l 1
 134 743 l 1
 134 645 l 1
 287 645 l 5
 287 581 l 5
 134 581 l 1
 134 435 l 1
 173.333 475.667 220.667 496 276 496 c 0
 337.333 496 388 478.833 428 444.5 c 128
 468 410.167 488 363 488 303 c 2
EndSplineSet
Fore
SplineSet
19 581 m 1
 19 645 l 1
 287 645 l 1
 287 581 l 1
 19 581 l 1
EndSplineSet
Refer: 75 104 N 1 0 0 1 0 0 2
EndChar

StartChar: Iogonek
Encoding: 496 302 240
Width: 259
GlyphClass: 2
UnlinkRmOvrlpSave: 1
Flags: HMW
AnchorPoint: "above" 130 743 basechar 0
LayerCount: 2
Back
SplineSet
137 -84 m 0
 137 -130.667 172.333 -154 243 -154 c 0
 261 -154 279.333 -151.667 298 -147 c 1
 305 -174 l 1
 265 -184.667 229.667 -190 199 -190 c 0
 113 -190 70 -157.667 70 -93 c 0
 70 -51.6667 88.6667 -20.6667 126 0 c 1
 54 0 l 1
 54 68 l 1
 91 68 l 1
 91 631 l 1
 54 631 l 1
 54 698 l 1
 205 698 l 1
 205 631 l 1
 168 631 l 1
 168 68 l 1
 205 68 l 1
 205 0 l 1
 177 -8.66667 158.667 -18.6667 150 -30 c 128
 141.333 -41.3333 137 -59.3333 137 -84 c 0
EndSplineSet
Fore
Refer: 477 808 N 1 0 0 1 505 0 2
Refer: 44 73 N 1 0 0 1 0 0 2
EndChar

StartChar: iogonek
Encoding: 497 303 241
Width: 198
GlyphClass: 2
UnlinkRmOvrlpSave: 1
Flags: HMW
LayerCount: 2
Back
SplineSet
67 -84 m 0
 67 -130.667 102 -154 172 -154 c 0
 190 -154 208.333 -151.667 227 -147 c 1
 234 -174 l 1
 194 -184.667 158.667 -190 128 -190 c 0
 42 -190 -1 -157.667 -1 -93 c 0
 -1 -48.3333 21 -15.6667 65 5 c 1
 65 479 l 1
 134 479 l 1
 134 0 l 1
 106 -8.66667 87.8333 -18.6667 79.5 -30 c 128
 71.1667 -41.3333 67 -59.3333 67 -84 c 0
44 628 m 128
 44 643.333 49.3333 656.333 60 667 c 128
 70.6667 677.667 83.6667 683 99 683 c 128
 114.333 683 127.5 677.667 138.5 667 c 128
 149.5 656.333 155 643.333 155 628 c 128
 155 612.667 149.5 599.5 138.5 588.5 c 128
 127.5 577.5 114.333 572 99 572 c 128
 83.6667 572 70.6667 577.5 60 588.5 c 128
 49.3333 599.5 44 612.667 44 628 c 128
EndSplineSet
Fore
Refer: 477 808 N 1 0 0 1 434 0 2
Refer: 76 105 N 1 0 0 1 0 0 2
EndChar

StartChar: dotlessi
Encoding: 499 305 243
Width: 198
GlyphClass: 2
Flags: HMW
AnchorPoint: "above" 99 581 basechar 0
LayerCount: 2
Fore
SplineSet
65 0 m 1,0,-1
 65 479 l 1,1,-1
 134 479 l 1,2,-1
 134 0 l 1,3,-1
 65 0 l 1,0,-1
EndSplineSet
Validated: 1
EndChar

StartChar: Lslash
Encoding: 513 321 257
Width: 451
GlyphClass: 2
UnlinkRmOvrlpSave: 1
Flags: HMW
LayerCount: 2
Back
SplineSet
163 401 m 1
 163 63 l 1
 436 63 l 1
 436 0 l 1
 86 0 l 1
 86 347 l 1
 29 307 l 1
 5 340 l 1
 86 397 l 1
 86 698 l 1
 163 698 l 1
 163 451 l 1
 249 511 l 1
 272 478 l 1
 163 401 l 1
EndSplineSet
Fore
Refer: 485 823 S 1 0 0 1 353 0 2
Refer: 47 76 N 1 0 0 1 5 0 2
EndChar

StartChar: lslash
Encoding: 514 322 258
Width: 231
GlyphClass: 2
UnlinkRmOvrlpSave: 1
Flags: HMW
LayerCount: 2
Back
SplineSet
152 406 m 1
 152 0 l 1
 82 0 l 1
 82 357 l 1
 10 307 l 1
 -13 340 l 1
 82 407 l 1
 82 743 l 1
 152 743 l 1
 152 456 l 1
 230 511 l 1
 254 478 l 1
 152 406 l 1
EndSplineSet
Fore
Refer: 485 823 N 1 0 0 1 335 0 2
Refer: 79 108 N 1 0 0 1 12 0 2
EndChar

StartChar: Eng
Encoding: 521 330 265
Width: 635
GlyphClass: 2
Flags: MW
LayerCount: 2
Back
SplineSet
124 595 m 5
 156 651 234.5 714 332 714 c 4
 502.72 714 582 587.318 582 408 c 6
 582 312 l 6
 582 142.683 518.525 0 358 0 c 6
 330 0 l 5
 330 55.0996 l 5
 358 55.0996 l 6
 463.447 55.0996 501 192.458 501 312 c 6
 501 408 l 6
 501 536.381 455.829 644 332 644 c 132
 208.191 644 150.5 559.1 124.5 443.1 c 4
 124 595 l 5
163 0 m 5
 81 0 l 5
 81 698 l 5
 163 698 l 5
 163 0 l 5
EndSplineSet
Fore
SplineSet
163 644 m 1,0,1
 237 714 237 714 332 714 c 0,2,3
 456 714 456 714 519 631 c 128,-1,4
 582 548 582 548 582 408 c 2,5,-1
 582 312 l 2,6,7
 582 124 582 124 486 44 c 0,8,9
 434 0 434 0 358 0 c 2,10,-1
 330 0 l 1,11,-1
 330 55 l 1,12,-1
 358 55 l 2,13,14
 396 55 396 55 424.5 78 c 128,-1,15
 453 101 453 101 469 139 c 0,16,17
 501 214 501 214 501 312 c 2,18,-1
 501 408 l 2,19,20
 501 513 501 513 460 578.5 c 128,-1,21
 419 644 419 644 332 644 c 0,22,23
 219 644 219 644 163 547 c 1,24,-1
 163 0 l 1,25,-1
 81 0 l 1,26,-1
 81 698 l 1,27,-1
 163 698 l 1,28,-1
 163 644 l 1,0,1
EndSplineSet
Validated: 1
EndChar

StartChar: eng
Encoding: 522 331 266
Width: 547
GlyphClass: 2
Flags: MW
LayerCount: 2
Back
SplineSet
134 134 m 5
 65 134 l 5
 65 479 l 5
 134 479 l 5
 134 134 l 5
488 -22 m 6
 488 -105.323 420.346 -174 337 -174 c 6
 255 -174 l 5
 255 -118 l 5
 337 -118 l 6
 383.864 -118 419 -69.0279 419 -22 c 6
 419 303 l 6
 419 380 355 432 276 432 c 132
 183 432 134 338 134 240 c 6
 134 0 l 5
 65 0 l 5
 65 202 l 6
 64 420 201 496 276 496 c 4
 397 496 488 424 488 303 c 6
 488 -22 l 6
EndSplineSet
Fore
SplineSet
488 -22 m 2,0,1
 488 -85 488 -85 443.5 -129.5 c 128,-1,2
 399 -174 399 -174 337 -174 c 2,3,-1
 255 -174 l 1,4,-1
 255 -118 l 1,5,-1
 337 -118 l 2,6,7
 371 -118 371 -118 395 -88.5 c 128,-1,8
 419 -59 419 -59 419 -22 c 2,9,-1
 419 303 l 2,10,11
 419 360 419 360 377.5 396 c 128,-1,12
 336 432 336 432 273 432 c 128,-1,13
 210 432 210 432 172 375.5 c 128,-1,14
 134 319 134 319 134 240 c 2,15,-1
 134 0 l 1,16,-1
 65 0 l 1,17,-1
 65 479 l 1,18,-1
 134 479 l 1,19,-1
 134 421 l 1,20,21
 199 496 199 496 276 496 c 0,22,23
 369 496 369 496 428.5 444 c 128,-1,24
 488 392 488 392 488 303 c 2,25,-1
 488 -22 l 2,0,1
EndSplineSet
Validated: 1
EndChar

StartChar: OE
Encoding: 529 338 273
Width: 849
GlyphClass: 2
Flags: MW
AnchorPoint: "above" 477 743 basechar 0
LayerCount: 2
Back
SplineSet
452 644 m 1
 420 644 377 644 343 644 c 128
 210 644 124 487 124 348 c 0
 124 210 210 54 343 54 c 128
 376 54 420 54 450 54 c 1
 456 13 l 1
 421 -5 383 -16 343 -16 c 128
 172 -16 43 170 43 348 c 128
 43 526 172 714 343 714 c 128
 386 714 427 700 463 681 c 1
 452 644 l 1
416 0 m 1
 416 698 l 1
 493 698 l 1
 493 0 l 1
 416 0 l 1
466 63 m 1
 810 63 l 1
 810 0 l 1
 474 0 l 1
 466 63 l 1
474 698 m 1
 807 698 l 1
 807 634 l 1
 466 634 l 1
 474 698 l 1
466 411 m 1
 738 411 l 1
 738 348 l 1
 466 348 l 1
 466 411 l 1
EndSplineSet
Fore
SplineSet
810 0 m 1,0,-1
 427 0 l 1,1,2
 385 -16 385 -16 343 -16 c 0,3,4
 261 -16 261 -16 190.5 38 c 128,-1,5
 120 92 120 92 81.5 175.5 c 128,-1,6
 43 259 43 259 43 348 c 128,-1,7
 43 437 43 437 81.5 521 c 128,-1,8
 120 605 120 605 190.5 659.5 c 128,-1,9
 261 714 261 714 343 714 c 0,10,11
 383 714 383 714 425 698 c 1,12,-1
 807 698 l 1,13,-1
 807 634 l 1,14,-1
 493 634 l 1,15,-1
 493 411 l 1,16,-1
 738 411 l 1,17,-1
 738 348 l 1,18,-1
 493 348 l 1,19,-1
 493 63 l 1,20,-1
 810 63 l 1,21,-1
 810 0 l 1,0,-1
416 54 m 1,22,-1
 416 644 l 1,23,-1
 343 644 l 2,24,25
 279 644 279 644 228 598.5 c 128,-1,26
 177 553 177 553 150.5 486 c 128,-1,27
 124 419 124 419 124 348.5 c 128,-1,28
 124 278 124 278 150.5 211 c 128,-1,29
 177 144 177 144 228 99 c 128,-1,30
 279 54 279 54 343 54 c 2,31,-1
 416 54 l 1,22,-1
EndSplineSet
Validated: 1
EndChar

StartChar: oe
Encoding: 530 339 274
Width: 944
GlyphClass: 2
Flags: MW
AnchorPoint: "above" 472 581 basechar 0
LayerCount: 2
Back
SplineSet
104 240 m 132
 104 142 178 47 272 47 c 132
 366 47 440 142 440 240 c 132
 440 338 366 432 272 432 c 132
 178 432 104 338 104 240 c 132
35 240 m 132
 35 374 146 496 272 496 c 132
 398 496 496 378 496 240 c 4
 496 106 406 -16 274 -16 c 132
 144 -16 35 106 35 240 c 132
482 303 m 5
 875 303 l 5
 875 240 l 5
 482 240 l 5
 482 303 l 5
845 240 m 5
 845 355 756 432 677 432 c 132
 583 432 509 338 509 240 c 5
 509 142 583 47 677 47 c 4
 776 47 807 72 844 134 c 5
 900 97 l 5
 852 23 798 -16 679 -16 c 4
 553 -16 454 102 454 240 c 132
 454 376 551 496 677 496 c 132
 802 496 915 376 915 240 c 5
 845 240 l 5
EndSplineSet
Fore
SplineSet
35 240 m 128,-1,1
 35 341 35 341 106.5 418.5 c 128,-1,2
 178 496 178 496 272 496 c 128,-1,3
 366 496 366 496 431 420 c 0,4,5
 459 387 459 387 475 350 c 1,6,7
 491 388 491 388 519 420 c 0,8,9
 584 496 584 496 677.5 496 c 128,-1,10
 771 496 771 496 843 419 c 128,-1,11
 915 342 915 342 915 240 c 1,12,-1
 509 240 l 1,13,14
 509 165 509 165 558.5 106 c 128,-1,15
 608 47 608 47 678 47 c 128,-1,16
 748 47 748 47 781.5 66 c 128,-1,17
 815 85 815 85 844 134 c 1,18,-1
 900 97 l 1,19,20
 862 38 862 38 813 11 c 128,-1,21
 764 -16 764 -16 675 -16 c 128,-1,22
 586 -16 586 -16 520 60 c 0,23,24
 492 93 492 93 475 130 c 1,25,26
 460 92 460 92 433 60 c 0,27,28
 370 -16 370 -16 273.5 -16 c 128,-1,29
 177 -16 177 -16 106 61.5 c 128,-1,0
 35 139 35 139 35 240 c 128,-1,1
104 240 m 128,-1,31
 104 165 104 165 153.5 106 c 128,-1,32
 203 47 203 47 272 47 c 128,-1,33
 341 47 341 47 390.5 106 c 128,-1,34
 440 165 440 165 440 240 c 128,-1,35
 440 315 440 315 390.5 373.5 c 128,-1,36
 341 432 341 432 272 432 c 128,-1,37
 203 432 203 432 153.5 373.5 c 128,-1,30
 104 315 104 315 104 240 c 128,-1,31
836 303 m 1,38,39
 822 345 822 345 792 377 c 0,40,41
 740 432 740 432 674 432 c 128,-1,42
 608 432 608 432 558 374 c 0,43,44
 530 341 530 341 519 303 c 1,45,-1
 836 303 l 1,38,39
EndSplineSet
Validated: 1
EndChar

StartChar: Scedilla
Encoding: 541 350 285
Width: 565
GlyphClass: 2
UnlinkRmOvrlpSave: 1
Flags: HMW
LayerCount: 2
Back
SplineSet
286 314 m 0
 212 334 155.667 360 117 392 c 128
 78.3333 424 59 468 59 524 c 0
 59 585.333 78.6667 632.333 118 665 c 128
 157.333 697.667 212.667 714 284 714 c 0
 371.334 714 445.667 674 507 594 c 1
 450 546 l 1
 401.333 611.333 346 644 284 644 c 0
 232 644 194.5 634.333 171.5 615 c 128
 148.5 595.666 137 565.332 137 524 c 0
 137 508 139.5 493.833 144.5 481.5 c 128
 149.5 469.167 155 459.333 161 452 c 128
 167 444.667 176.833 437.5 190.5 430.5 c 128
 204.167 423.5 215 418.5 223 415.5 c 128
 231 412.5 244.333 408.167 263 402.5 c 128
 281.667 396.83 294.667 392.664 302 390 c 0
 370.667 366.667 415.333 349 436 337 c 0
 496.667 302.333 527 248 527 174 c 0
 527 117.333 507.167 72.8333 467.5 40.5 c 128
 427.833 8.16668 373 -10.3333 303 -15 c 1
 276 -70 l 1
 312.667 -70 340.167 -76 358.5 -88 c 128
 376.833 -100 386 -113.333 386 -128 c 0
 386 -179.333 316 -205 176 -205 c 1
 176 -177 l 1
 210 -177 242.333 -173.167 273 -165.5 c 128
 303.667 -157.833 319 -147.333 319 -134 c 0
 319 -127.333 316.667 -122 312 -118 c 128
 307.333 -114 296.833 -110.833 280.5 -108.5 c 128
 264.167 -106.167 240.333 -105 209 -105 c 1
 251 -15 l 1
 209 -11.6667 168.667 2.83333 130 28.5 c 128
 91.3333 54.1667 59 87.3333 33 128 c 1
 93 171 l 1
 113.667 136.333 139.833 108.167 171.5 86.5 c 128
 203.167 64.8333 236 54 270 54 c 0
 331.333 54 376.667 63.6667 406 83 c 128
 435.333 102.333 450 132.667 450 174 c 0
 450 214 437.667 243.333 413 262 c 128
 388.333 280.667 346 298 286 314 c 0
EndSplineSet
Fore
Refer: 476 807 N 1 0 0 1 610 0 2
Refer: 54 83 N 1 0 0 1 0 0 2
EndChar

StartChar: scedilla
Encoding: 542 351 286
Width: 475
GlyphClass: 2
UnlinkRmOvrlpSave: 1
Flags: HMW
LayerCount: 2
Back
SplineSet
247 206 m 0
 245 206.667 237.5 208.167 224.5 210.5 c 128
 211.5 212.833 202.833 214.5 198.5 215.5 c 128
 192 217 192 217 172.5 221.5 c 128
 159.5 224.5 150.333 227.167 145 229.5 c 128
 139.667 231.833 131.5 235.333 120.5 240 c 128
 109.5 244.667 101.333 249.167 96 253.5 c 128
 90.6667 257.834 84.1667 263.168 76.5 269.5 c 128
 68.8333 275.834 63.1667 282.668 59.5 290 c 128
 55.8333 297.334 52.6667 305.668 50 315 c 128
 47.3333 324.333 46 334.333 46 345 c 0
 46 391.667 64.8333 428.5 102.5 455.5 c 128
 140.167 482.5 189 496 249 496 c 0
 337 496 397 458.333 429 383 c 1
 367 352 l 1
 345.667 405.333 306.333 432 249 432 c 0
 206.333 432 173.667 424.167 151 408.5 c 128
 128.333 392.833 117 371.667 117 345 c 0
 117 339 117.833 333.667 119.5 329 c 128
 121.167 324.333 123.833 320 127.5 316 c 128
 131.167 312 135 308.5 139 305.5 c 128
 143 302.5 148.167 299.833 154.5 297.5 c 128
 160.833 295.167 166.5 293.167 171.5 291.5 c 128
 176.5 289.829 183.167 288.162 191.5 286.5 c 128
 204 284 204 284 211.5 282.5 c 128
 216.5 281.5 223.667 280.333 233 279 c 128
 242.333 277.667 249 276.667 253 276 c 0
 278.333 272 300.333 267.333 319 262 c 128
 337.667 256.667 357.5 248.833 378.5 238.5 c 128
 399.5 228.166 415.667 214.333 427 197 c 128
 438.333 179.667 444 159 444 135 c 0
 444 92.3333 426 57.5 390 30.5 c 128
 354 3.5 308.333 -11.6667 253 -15 c 1
 226 -70 l 1
 262.667 -70 290.167 -76 308.5 -88 c 128
 326.833 -100 336 -113.333 336 -128 c 0
 336 -179.333 266 -205 126 -205 c 1
 126 -177 l 1
 160 -177 192.333 -173.167 223 -165.5 c 128
 253.667 -157.833 269 -147.333 269 -134 c 0
 269 -127.333 266.667 -122 262 -118 c 128
 257.333 -114 246.833 -110.833 230.5 -108.5 c 128
 214.166 -106.167 190.333 -105 159 -105 c 1
 201 -15 l 1
 161.667 -11.6667 127.167 -0.333334 97.5 19 c 128
 67.8333 38.3334 46 64.3334 32 97 c 1
 94 128 l 1
 104 104 120.667 84.6667 144 70 c 128
 167.333 55.3333 195 48 227 48 c 0
 270.333 48 305.833 56.3333 333.5 73 c 128
 361.167 89.6667 375 110.333 375 135 c 0
 375 142.333 373.833 149.167 371.5 155.5 c 128
 369.167 161.833 364.833 167.167 358.5 171.5 c 128
 352.167 175.833 346.667 179.5 342 182.5 c 128
 337.333 185.5 329.833 188.333 319.5 191 c 128
 309.167 193.667 301.5 195.667 296.5 197 c 128
 291.5 198.333 282.833 200 270.5 202 c 128
 258.167 204 250.333 205.333 247 206 c 0
EndSplineSet
Fore
Refer: 476 807 N 1 0 0 1 560 0 2
Refer: 86 115 N 1 0 0 1 0 0 2
EndChar

StartChar: Tbar
Encoding: 549 358 293
Width: 514
GlyphClass: 2
UnlinkRmOvrlpSave: 1
Flags: HMW
LayerCount: 2
Back
SplineSet
19 635 m 1
 19 698 l 1
 495 698 l 1
 495 635 l 1
 295 635 l 1
 295 479 l 1
 369 479 l 5
 369 434 l 5
 295 434 l 1
 295 0 l 1
 219 0 l 1
 219 434 l 1
 145 434 l 5
 145 479 l 5
 219 479 l 1
 219 635 l 1
 19 635 l 1
EndSplineSet
Fore
SplineSet
145 434 m 1
 145 479 l 1
 369 479 l 1
 369 434 l 1
 145 434 l 1
EndSplineSet
Refer: 55 84 N 1 0 0 1 0 0 2
EndChar

StartChar: tbar
Encoding: 550 359 294
Width: 282
GlyphClass: 2
UnlinkRmOvrlpSave: 1
Flags: HMW
LayerCount: 2
Back
SplineSet
29 416 m 1
 29 479 l 1
 90 479 l 1
 90 638 l 1
 160 638 l 1
 160 479 l 1
 270 479 l 1
 270 416 l 1
 160 416 l 1
 160 325 l 1
 253 325 l 5
 253 280 l 5
 160 280 l 1
 160 0 l 1
 90 0 l 1
 90 280 l 1
 29 280 l 5
 29 325 l 5
 90 325 l 1
 90 416 l 1
 29 416 l 1
EndSplineSet
Fore
SplineSet
29 280 m 1
 29 325 l 1
 253 325 l 1
 253 280 l 1
 29 280 l 1
EndSplineSet
Refer: 87 116 N 1 0 0 1 0 0 2
EndChar

StartChar: Uogonek
Encoding: 561 370 305
Width: 650
GlyphClass: 2
UnlinkRmOvrlpSave: 1
Flags: HMW
AnchorPoint: "above" 326 743 basechar 0
LayerCount: 2
Back
SplineSet
348 -84 m 0
 348 -130.667 383.333 -154 454 -154 c 0
 472 -154 490.333 -151.667 509 -147 c 1
 516 -174 l 1
 476 -184.667 440.667 -190 410 -190 c 0
 324 -190 281 -157.667 281 -93 c 0
 281 -60.3333 292 -34.6667 314 -16 c 1
 238.667 -13.3333 180 14.5 138 67.5 c 128
 96 120.5 75 194.667 75 290 c 2
 75 698 l 1
 157 698 l 1
 157 290 l 2
 157 220 170.667 163.167 198 119.5 c 128
 225.333 75.8333 268 54 326 54 c 128
 384 54 426.667 75.8333 454 119.5 c 128
 481.333 163.167 495 220 495 290 c 2
 495 698 l 1
 575 698 l 1
 575 290 l 2
 575 207.333 559 140.333 527 89 c 128
 495 37.6667 449.667 5 391 -9 c 1
 373.667 -16.3333 362.167 -25.5 356.5 -36.5 c 128
 350.833 -47.5 348 -63.3333 348 -84 c 0
EndSplineSet
Fore
Refer: 477 808 N 1 0 0 1 716 0 2
Refer: 56 85 N 1 0 0 1 0 0 2
EndChar

StartChar: uogonek
Encoding: 562 371 306
Width: 547
GlyphClass: 2
UnlinkRmOvrlpSave: 1
Flags: HMW
AnchorPoint: "above" 270 581 basechar 0
LayerCount: 2
Back
SplineSet
416 -84 m 0
 416 -130.667 451 -154 521 -154 c 0
 539.669 -154 558.335 -151.667 577 -147 c 1
 584 -174 l 1
 544 -184.667 508.333 -190 477 -190 c 0
 391 -190 348 -157.667 348 -93 c 0
 348 -48.3333 369.667 -15.6667 413 5 c 1
 413 42 l 1
 373.667 2.66667 326.333 -17 271 -17 c 0
 209.667 -17 159 0.166668 119 34.5 c 128
 79 68.8333 59 116 59 176 c 2
 59 479 l 1
 128 479 l 1
 128 176 l 2
 128 140 141.167 109.5 167.5 84.5 c 128
 193.833 59.5 228.333 47 271 47 c 128
 313.667 47 348 65.3333 374 102 c 128
 400 138.667 413 184.333 413 239 c 2
 413 479 l 1
 483 479 l 1
 483 0 l 1
 455 -8.66667 436.833 -18.6667 428.5 -30 c 128
 420.167 -41.3333 416 -59.3333 416 -84 c 0
EndSplineSet
Fore
Refer: 477 808 N 1 0 0 1 782 0 2
Refer: 88 117 N 1 0 0 1 0 0 2
EndChar

StartChar: uni0180
Encoding: 574 384 318
Width: 574
GlyphClass: 2
UnlinkRmOvrlpSave: 1
Flags: HMW
LayerCount: 2
Back
SplineSet
34 581 m 5
 34 630 l 5
 65 630 l 1
 65 743 l 1
 134 743 l 1
 134 630 l 1
 312 630 l 5
 312 581 l 5
 134 581 l 1
 134 416 l 1
 182.667 469.333 238.667 496 302 496 c 0
 362.667 496 417.5 470.5 466.5 419.5 c 128
 515.5 368.5 540 308.667 540 240 c 0
 540 170.667 515.833 110.667 467.5 60 c 128
 419.167 9.33333 364.667 -16 304 -16 c 0
 240.667 -16 184 11 134 65 c 1
 134 0 l 1
 65 0 l 1
 65 581 l 1
 34 581 l 5
134 240 m 128
 134 187.333 150.833 142 184.5 104 c 128
 218.167 66 257.333 47 302 47 c 128
 346.667 47 385.833 66 419.5 104 c 128
 453.167 142 470 187.333 470 240 c 128
 470 292.667 453.167 337.833 419.5 375.5 c 128
 385.833 413.167 346.666 432 302 432 c 128
 257.333 432 218.167 413.167 184.5 375.5 c 128
 150.833 337.833 134 292.667 134 240 c 128
EndSplineSet
Fore
SplineSet
34 581 m 1
 34 630 l 1
 312 630 l 1
 312 581 l 1
 34 581 l 1
EndSplineSet
Refer: 69 98 N 1 0 0 1 0 0 2
EndChar

StartChar: uni0181
Encoding: 575 385 319
Width: 714
GlyphClass: 2
UnlinkRmOvrlpSave: 1
Flags: HMW
LayerCount: 2
Back
SplineSet
180 629 m 6
 132.968 629 92 593.865 92 547 c 6
 92 436 l 5
 28 436 l 5
 28 547 l 6
 28 630.349 96.6797 698 180 698 c 6
 414 698 l 6
 525.561 698 628 631.311 628 523 c 0
 628 465.667 602.667 420 552 386 c 1
 621.468 356.751 676 299.617 676 205 c 0
 676 139 651.833 88.3333 603.5 53 c 128
 555.167 17.6667 498.333 1.90735e-06 433 0 c 2
 208 0 l 1
 208 629 l 5
 180 629 l 6
592 205 m 128
 592 296.5 522.657 346 431 346 c 2
 284 346 l 1
 284 63 l 1
 431 63 l 2
 521.84 63 592 114.004 592 205 c 128
414 411 m 2
 487.195 411 544 454.846 544 523 c 0
 544 552.333 532.667 578.167 510 600.5 c 128
 487.333 622.833 455.333 634 414 634 c 2
 284 634 l 1
 284 411 l 1
 414 411 l 2
EndSplineSet
Fore
SplineSet
262 629 m 1
 180 629 l 2
 143 629 143 629 117.5 605.5 c 0
 92 582 92 582 92 547 c 2
 92 436 l 1
 28 436 l 1
 28 547 l 2
 28 610 28 610 72 654 c 0
 116 698 116 698 180 698 c 2
 262 698 l 1
 262 629 l 1
EndSplineSet
Refer: 37 66 N 1 0 0 1 126 0 2
EndChar

StartChar: uni0186
Encoding: 576 390 320
Width: 585
GlyphClass: 2
Flags: HMW
AnchorPoint: "above" 254 743 basechar 0
LayerCount: 2
Fore
SplineSet
27 550 m 1,0,1
 122 714 122 714 259 714 c 0,2,3
 376 714 376 714 458.5 606 c 128,-1,4
 541 498 541 498 541 349 c 128,-1,5
 541 200 541 200 458.5 92 c 128,-1,6
 376 -16 376 -16 259 -16 c 0,7,8
 131 -16 131 -16 39 127 c 1,9,-1
 99 170 l 1,10,11
 170 53 170 53 259 53 c 128,-1,12
 348 53 348 53 405.5 141 c 128,-1,13
 463 229 463 229 463 349 c 128,-1,14
 463 469 463 469 406 556 c 128,-1,15
 349 643 349 643 259 643 c 0,16,17
 163 643 163 643 93 514 c 1,18,-1
 27 550 l 1,0,1
EndSplineSet
Validated: 1
EndChar

StartChar: uni0187
Encoding: 577 391 321
Width: 586
GlyphClass: 2
UnlinkRmOvrlpSave: 1
Flags: HMW
LayerCount: 2
Back
SplineSet
559 147 m 1
 496.333 38.3333 419 -16 327 -16 c 0
 249 -16 182.5 19.8333 127.5 91.5 c 128
 72.5 163.167 45 248.667 45 348 c 128
 45 447.333 72.5 533.167 127.5 605.5 c 128
 182.5 677.833 249 714 327 714 c 0
 383 714 434.667 692 482 648 c 1
 482 681 l 2
 482 723 497 758.833 527 788.5 c 128
 557 818.167 593 833 635 833 c 2
 663 833 l 1
 663 763 l 1
 635 763 l 2
 611 763 590.333 755.167 573 739.5 c 128
 555.667 723.833 547 704.333 547 681 c 2
 547 570 l 1
 486 527 l 1
 438.667 605 385.667 644 327 644 c 0
 267.667 644 218.833 614.667 180.5 556 c 128
 142.167 497.333 123 428 123 348 c 128
 123 268 142 199 180 141 c 128
 218 83 267 54 327 54 c 0
 391 54 446.333 97 493 183 c 1
 559 147 l 1
EndSplineSet
Fore
SplineSet
635 709 m 17
 598 709 598 709 573 685 c 0
 547 660 547 660 547 627 c 2
 547 570 l 1
 483 568 l 1
 483 627 l 2
 483 690 483 690 527 734 c 0
 571 778 571 778 635 778 c 9
 635 709 l 17
EndSplineSet
Refer: 38 67 N 1 0 0 1 0 0 2
EndChar

StartChar: uni0188
Encoding: 578 392 322
Width: 488
GlyphClass: 2
UnlinkRmOvrlpSave: 1
Flags: HMW
LayerCount: 2
Back
SplineSet
465 76 m 1
 440.333 45.3333 413.333 22.3333 384 7 c 128
 354.667 -8.33333 318 -16 274 -16 c 0
 213.333 -16 158.333 9.5 109 60.5 c 128
 59.6667 111.5 35 171.333 35 240 c 128
 35 308.667 59.3333 368.5 108 419.5 c 128
 156.667 470.5 211.333 496 272 496 c 0
 313.333 496 352.333 483.667 389 459 c 1
 389 510 l 2
 389 552 404 587.833 434 617.5 c 128
 464 647.167 500 662 542 662 c 2
 569 662 l 1
 569 592 l 1
 542 592 l 2
 518 592 497.333 584.167 480 568.5 c 128
 462.667 552.833 454 533.333 454 510 c 2
 454 399 l 1
 402 359 l 1
 367.333 407.667 324 432 272 432 c 0
 227.333 432 188.167 413.167 154.5 375.5 c 128
 120.833 337.833 104 292.667 104 240 c 128
 104 187.333 120.833 142 154.5 104 c 128
 188.167 66 227.333 47 272 47 c 0
 307.333 47 334.833 52.3333 354.5 63 c 128
 374.167 73.6667 393 90.6667 411 114 c 1
 465 76 l 1
EndSplineSet
Fore
SplineSet
542 538 m 17
 505 538 505 538 480 514 c 0
 454 489 454 489 454 456 c 2
 454 399 l 1
 390 397 l 1
 390 456 l 2
 390 519 390 519 434 563 c 0
 478 607 478 607 542 607 c 9
 542 538 l 17
EndSplineSet
Refer: 70 99 N 1 0 0 1 0 0 2
EndChar

StartChar: uni018A
Encoding: 580 394 324
Width: 750
GlyphClass: 2
UnlinkRmOvrlpSave: 1
Flags: HMW
LayerCount: 2
Back
SplineSet
92 436 m 1
 28 436 l 1
 28 547 l 2
 28 589 42.8333 624.667 72.5 654 c 128
 102.167 683.333 138 698 180 698 c 2
 360 698 l 2
 405.334 698 448.167 691 488.5 677 c 128
 528.833 663 565.333 642.333 598 615 c 128
 630.667 587.667 656.667 551 676 505 c 128
 695.333 459 705 406.667 705 348 c 128
 705 289.333 695.333 237.167 676 191.5 c 128
 656.667 145.833 630.667 109.333 598 82 c 128
 565.333 54.6667 528.833 34.1667 488.5 20.5 c 128
 448.167 6.83333 405.333 0 360 0 c 2
 208 0 l 1
 208 629 l 1
 180 629 l 2
 156 629 135.333 621.167 118 605.5 c 128
 100.667 589.833 92 570.333 92 547 c 2
 92 436 l 1
284 628 m 1
 284 70 l 1
 338 70 l 2
 429.333 70 499.833 92.6667 549.5 138 c 128
 599.167 183.333 624 253.333 624 348 c 128
 624 442.667 599.167 513 549.5 559 c 128
 499.833 605 429.333 628 338 628 c 2
 284 628 l 1
EndSplineSet
Fore
SplineSet
262 629 m 1
 180 629 l 2
 143 629 143 629 117.5 605.5 c 0
 92 582 92 582 92 547 c 2
 92 436 l 1
 28 436 l 1
 28 547 l 2
 28 610 28 610 72 654 c 0
 116 698 116 698 180 698 c 2
 262 698 l 1
 262 629 l 1
EndSplineSet
Refer: 39 68 N 1 0 0 1 126 0 2
EndChar

StartChar: uni018E
Encoding: 581 398 325
Width: 515
GlyphClass: 2
Flags: HMW
AnchorPoint: "above" 223 743 basechar 0
LayerCount: 2
Fore
SplineSet
434 0 m 1,0,-1
 40 0 l 1,1,-1
 40 63 l 1,2,-1
 358 63 l 1,3,-1
 358 348 l 1,4,-1
 113 348 l 1,5,-1
 113 411 l 1,6,-1
 358 411 l 1,7,-1
 358 634 l 1,8,-1
 43 634 l 1,9,-1
 43 698 l 1,10,-1
 434 698 l 1,11,-1
 434 0 l 1,0,-1
EndSplineSet
Validated: 1
EndChar

StartChar: uni0190
Encoding: 583 400 327
Width: 528
GlyphClass: 2
Flags: HMW
AnchorPoint: "above" 272 743 basechar 0
LayerCount: 2
Fore
SplineSet
151 374 m 1,0,1
 71 425 71 425 71 523 c 0,2,3
 71 618 71 618 128 666 c 128,-1,4
 185 714 185 714 273 714 c 0,5,6
 326 714 326 714 384 695.5 c 128,-1,7
 442 677 442 677 477 640 c 1,8,-1
 426 592 l 1,9,10
 402 620 402 620 358.5 632.5 c 128,-1,11
 315 645 315 645 273 645 c 0,12,13
 217 645 217 645 182 608.5 c 128,-1,14
 147 572 147 572 147 523 c 0,15,16
 147 471 147 471 186 437 c 128,-1,17
 225 403 225 403 311 403 c 1,18,-1
 311 335 l 1,19,20
 223 335 223 335 173.5 294.5 c 128,-1,21
 124 254 124 254 124 190 c 0,22,23
 124 134 124 134 171.5 93.5 c 128,-1,24
 219 53 219 53 289 53 c 0,25,26
 414 53 414 53 464 124 c 1,27,-1
 518 81 l 1,28,29
 480 33 480 33 428 8.5 c 128,-1,30
 376 -16 376 -16 289 -16 c 0,31,32
 181 -16 181 -16 114 42.5 c 128,-1,33
 47 101 47 101 47 207 c 0,34,35
 47 326 47 326 151 374 c 1,0,1
EndSplineSet
Validated: 1
EndChar

StartChar: uni0191
Encoding: 584 401 328
Width: 490
GlyphClass: 2
Flags: HMW
LayerCount: 2
Fore
SplineSet
81 698 m 1,0,-1
 472 698 l 1,1,-1
 472 634 l 1,2,-1
 158 634 l 1,3,-1
 158 411 l 1,4,-1
 403 411 l 1,5,-1
 403 348 l 1,6,-1
 158 348 l 1,7,-1
 158 -53 l 2,8,9
 158 -115 158 -115 107.5 -160 c 128,-1,10
 57 -205 57 -205 -7 -205 c 2,11,-1
 -35 -205 l 1,12,-1
 -35 -135 l 1,13,-1
 -7 -135 l 2,14,15
 29 -135 29 -135 55 -111.5 c 128,-1,16
 81 -88 81 -88 81 -53 c 2,17,-1
 81 698 l 1,0,-1
EndSplineSet
Validated: 1
EndChar

StartChar: florin
Encoding: 585 402 329
Width: 282
GlyphClass: 2
Flags: HMW
LayerCount: 2
Fore
SplineSet
160 -53 m 2,0,1
 160 -115 160 -115 113 -160 c 128,-1,2
 66 -205 66 -205 2 -205 c 2,3,-1
 -26 -205 l 1,4,-1
 -26 -135 l 1,5,-1
 2 -135 l 2,6,7
 38 -135 38 -135 64 -111.5 c 128,-1,8
 90 -88 90 -88 90 -53 c 2,9,-1
 90 416 l 1,10,-1
 29 416 l 1,11,-1
 29 479 l 1,12,-1
 90 479 l 1,13,-1
 90 608 l 2,14,15
 90 671 90 671 134.5 715.5 c 128,-1,16
 179 760 179 760 242 760 c 2,17,-1
 270 760 l 1,18,-1
 270 696 l 1,19,-1
 242 696 l 2,20,21
 207 696 207 696 183.5 670 c 128,-1,22
 160 644 160 644 160 608 c 2,23,-1
 160 479 l 1,24,-1
 270 479 l 1,25,-1
 270 416 l 1,26,-1
 160 416 l 1,27,-1
 160 -53 l 2,0,1
EndSplineSet
Validated: 1
EndChar

StartChar: uni0193
Encoding: 586 403 330
Width: 621
GlyphClass: 2
UnlinkRmOvrlpSave: 1
Flags: HMW
LayerCount: 2
Back
SplineSet
337 298 m 1
 337 361 l 1
 578 361 l 1
 578 298 l 2
 578 188 555.167 108.167 509.5 58.5 c 128
 463.833 8.83333 398 -16 312 -16 c 0
 234.667 -16 170.833 19.5 120.5 90.5 c 128
 70.1667 161.5 45 247.333 45 348 c 128
 45 448.667 72 534.833 126 606.5 c 128
 180 678.167 248.667 714 332 714 c 0
 396.667 714 450.333 693.333 493 652 c 1
 493 681 l 2
 493 723 507.833 758.833 537.5 788.5 c 128
 567.167 818.167 603 833 645 833 c 2
 673 833 l 1
 673 763 l 1
 645 763 l 2
 621 763 600.333 755.167 583 739.5 c 128
 565.667 723.833 557 704.333 557 681 c 2
 557 570 l 1
 496 527 l 1
 472.667 565.668 449 594.834 425 614.5 c 128
 401 634.167 370 644 332 644 c 0
 269.333 644 218.833 614.833 180.5 556.5 c 128
 142.167 498.167 123 428.667 123 348 c 0
 123 266.667 139.833 197.333 173.5 140 c 128
 207.167 82.6667 253.333 54 312 54 c 0
 342.667 54 368.167 56.8333 388.5 62.5 c 128
 408.833 68.1667 428.333 79.1667 447 95.5 c 128
 465.667 111.833 479.5 136.667 488.5 170 c 128
 497.5 203.333 502 246 502 298 c 1
 337 298 l 1
EndSplineSet
Fore
SplineSet
645 709 m 17
 608 709 608 709 583 685 c 0
 557 660 557 660 557 627 c 2
 557 570 l 1
 493 568 l 1
 493 627 l 2
 493 690 493 690 537 734 c 0
 581 778 581 778 645 778 c 9
 645 709 l 17
EndSplineSet
Refer: 42 71 N 1 0 0 1 0 0 2
EndChar

StartChar: uni0194
Encoding: 587 404 331
Width: 540
GlyphClass: 2
Flags: HMW
LayerCount: 2
Fore
SplineSet
270 -141 m 0,0,1
 287 -141 287 -141 287 -109 c 0,2,3
 287 -95 287 -95 270 -46 c 1,4,5
 254 -92 254 -92 254 -109 c 0,6,7
 254 -141 254 -141 270 -141 c 0,0,1
229 67 m 1,8,-1
 0 698 l 1,9,-1
 81 698 l 1,10,-1
 270 178 l 1,11,-1
 460 698 l 1,12,-1
 541 698 l 1,13,-1
 311 67 l 1,14,15
 358 -65 358 -65 358 -98 c 0,16,17
 358 -147 358 -147 336 -176 c 128,-1,18
 314 -205 314 -205 270 -205 c 128,-1,19
 226 -205 226 -205 204 -176 c 128,-1,20
 182 -147 182 -147 182 -98 c 0,21,22
 182 -65 182 -65 229 67 c 1,8,-1
EndSplineSet
Validated: 1
EndChar

StartChar: uni0196
Encoding: 588 406 332
Width: 270
GlyphClass: 2
Flags: HMW
AnchorPoint: "above" 116 743 basechar 0
LayerCount: 2
Fore
SplineSet
242 0 m 1,0,1
 174 0 174 0 125.5 39 c 128,-1,2
 77 78 77 78 77 152 c 2,3,-1
 77 698 l 1,4,-1
 154 698 l 1,5,-1
 154 152 l 2,6,7
 154 70 154 70 242 70 c 1,8,-1
 242 0 l 1,0,1
EndSplineSet
Validated: 1
EndChar

StartChar: uni0197
Encoding: 589 407 333
Width: 304
GlyphClass: 2
Flags: HMW
AnchorPoint: "above" 153 743 basechar 0
LayerCount: 2
Fore
SplineSet
114 336 m 1,0,-1
 22 336 l 1,1,-1
 22 379 l 1,2,-1
 114 379 l 1,3,-1
 114 631 l 1,4,-1
 77 631 l 1,5,-1
 77 698 l 1,6,-1
 227 698 l 1,7,-1
 227 631 l 1,8,-1
 190 631 l 1,9,-1
 190 379 l 1,10,-1
 282 379 l 1,11,-1
 282 336 l 1,12,-1
 190 336 l 1,13,-1
 190 68 l 1,14,-1
 227 68 l 1,15,-1
 227 0 l 1,16,-1
 77 0 l 1,17,-1
 77 68 l 1,18,-1
 114 68 l 1,19,-1
 114 336 l 1,0,-1
EndSplineSet
Validated: 1
EndChar

StartChar: uni0198
Encoding: 590 408 334
Width: 662
GlyphClass: 2
Flags: MW
LayerCount: 2
Back
SplineSet
577 579 m 4
 577 611 546 639 515 639 c 4
 483 639 459 608 443 590 c 6
 272 388 l 5
 544 0 l 5
 451 0 l 5
 221 327 l 5
 158 251 l 5
 158 0 l 5
 81 0 l 5
 81 698 l 5
 158 698 l 5
 158 369 l 5
 378 632 l 6
 410 670 446 705 503 705 c 4
 579 705 646 657 646 582 c 4
 646 530 624 503 584 474 c 5
 537 517 l 5
 562 537 577 553 577 579 c 4
EndSplineSet
Fore
SplineSet
537 517 m 1,0,1
 577 549 577 549 577 576 c 128,-1,2
 577 603 577 603 558 621 c 128,-1,3
 539 639 539 639 512.5 639 c 128,-1,4
 486 639 486 639 443 590 c 1,5,-1
 272 388 l 1,6,-1
 544 0 l 1,7,-1
 451 0 l 1,8,-1
 221 327 l 1,9,-1
 158 251 l 1,10,-1
 158 0 l 1,11,-1
 81 0 l 1,12,-1
 81 698 l 1,13,-1
 158 698 l 1,14,-1
 158 369 l 1,15,-1
 378 632 l 2,16,17
 439 705 439 705 500.5 705 c 128,-1,18
 562 705 562 705 604 671 c 128,-1,19
 646 637 646 637 646 582 c 0,20,21
 646 545 646 545 631 521 c 128,-1,22
 616 497 616 497 584 474 c 1,23,-1
 537 517 l 1,0,1
EndSplineSet
Validated: 1
EndChar

StartChar: uni0199
Encoding: 591 409 335
Width: 445
GlyphClass: 2
Flags: HMW
LayerCount: 2
Fore
SplineSet
133 0 m 1,0,-1
 63 0 l 1,1,-1
 65 608 l 2,2,3
 65 671 65 671 108.5 715 c 128,-1,4
 152 759 152 759 215 759 c 2,5,-1
 287 759 l 1,6,-1
 287 690 l 1,7,-1
 215 690 l 2,8,9
 180 690 180 690 157 666.5 c 128,-1,10
 134 643 134 643 134 608 c 2,11,-1
 133 290 l 1,12,-1
 323 479 l 1,13,-1
 423 479 l 1,14,-1
 239 295 l 1,15,-1
 437 0 l 1,16,-1
 352 0 l 1,17,-1
 188 245 l 1,18,-1
 133 190 l 1,19,-1
 133 0 l 1,0,-1
EndSplineSet
Validated: 1
EndChar

StartChar: uni019B
Encoding: 592 411 336
Width: 468
GlyphClass: 2
Flags: HMW
LayerCount: 2
Fore
SplineSet
234 389 m 1,0,-1
 78 0 l 1,1,-1
 2 0 l 1,2,-1
 197 480 l 1,3,-1
 169 550 l 1,4,-1
 80 508 l 1,5,-1
 53 565 l 1,6,-1
 145 608 l 1,7,-1
 110 698 l 1,8,-1
 183 698 l 1,9,-1
 208 637 l 1,10,-1
 289 675 l 1,11,-1
 315 617 l 1,12,-1
 231 579 l 1,13,-1
 467 0 l 1,14,-1
 391 0 l 1,15,-1
 234 389 l 1,0,-1
EndSplineSet
Validated: 1
EndChar

StartChar: uni019D
Encoding: 593 413 337
Width: 644
GlyphClass: 2
Flags: HMW
LayerCount: 2
Fore
SplineSet
158 -53 m 2,0,1
 158 -115 158 -115 107.5 -160 c 128,-1,2
 57 -205 57 -205 -7 -205 c 2,3,-1
 -35 -205 l 1,4,-1
 -35 -135 l 1,5,-1
 -7 -135 l 2,6,7
 29 -135 29 -135 55 -111.5 c 128,-1,8
 81 -88 81 -88 81 -53 c 2,9,-1
 81 698 l 1,10,-1
 158 698 l 1,11,-1
 487 126 l 1,12,-1
 487 698 l 1,13,-1
 563 698 l 1,14,-1
 563 0 l 1,15,-1
 487 0 l 1,16,-1
 158 570 l 1,17,-1
 158 -53 l 2,0,1
EndSplineSet
Validated: 1
EndChar

StartChar: uni019E
Encoding: 594 414 338
Width: 547
GlyphClass: 2
Flags: MW
AnchorPoint: "above" 281 581 basechar 0
AnchorPoint: "below" 277 0 basechar 0
LayerCount: 2
Back
SplineSet
419 -205 m 1
 419 303 l 2
 419 339 405.833 369.5 379.5 394.5 c 128
 353.167 419.5 318.667 432 276 432 c 128
 233.333 432 199 413.667 173 377 c 128
 147 340.333 134 294.667 134 240 c 2
 134 0 l 1
 65 0 l 1
 65 479 l 1
 134 479 l 1
 134 435 l 1
 173.333 475.667 220.667 496 276 496 c 0
 337.333 496 388 478.833 428 444.5 c 128
 468 410.167 488 363 488 303 c 2
 488 -205 l 1
 419 -205 l 1
EndSplineSet
Fore
SplineSet
134 421 m 1,0,1
 199 496 199 496 276 496 c 0,2,3
 369 496 369 496 428.5 444 c 128,-1,4
 488 392 488 392 488 303 c 2,5,-1
 488 -205 l 1,6,-1
 419 -205 l 1,7,-1
 419 303 l 2,8,9
 419 360 419 360 377.5 396 c 128,-1,10
 336 432 336 432 273 432 c 128,-1,11
 210 432 210 432 172 375.5 c 128,-1,12
 134 319 134 319 134 240 c 2,13,-1
 134 0 l 1,14,-1
 65 0 l 1,15,-1
 65 479 l 1,16,-1
 134 479 l 1,17,-1
 134 421 l 1,0,1
EndSplineSet
Validated: 1
EndChar

StartChar: uni01A4
Encoding: 596 420 340
Width: 697
GlyphClass: 2
Flags: HMW
LayerCount: 2
Fore
SplineSet
285 634 m 1,0,-1
 285 352 l 1,1,-1
 431 352 l 2,2,3
 501 352 501 352 546.5 388.5 c 128,-1,4
 592 425 592 425 592 493 c 128,-1,5
 592 561 592 561 546.5 597.5 c 128,-1,6
 501 634 501 634 431 634 c 2,7,-1
 285 634 l 1,0,-1
92 436 m 1,8,-1
 28 436 l 1,9,-1
 28 547 l 2,10,11
 28 610 28 610 72.5 654 c 128,-1,12
 117 698 117 698 180 698 c 2,13,-1
 431 698 l 2,14,15
 529 698 529 698 602.5 645 c 128,-1,16
 676 592 676 592 676 493 c 128,-1,17
 676 394 676 394 603.5 341 c 128,-1,18
 531 288 531 288 433 288 c 2,19,-1
 285 288 l 1,20,-1
 285 0 l 1,21,-1
 208 0 l 1,22,-1
 208 629 l 1,23,-1
 180 629 l 2,24,25
 144 629 144 629 118 605.5 c 128,-1,26
 92 582 92 582 92 547 c 2,27,-1
 92 436 l 1,8,-1
EndSplineSet
Validated: 1
EndChar

StartChar: uni01A5
Encoding: 597 421 341
Width: 574
GlyphClass: 2
Flags: MW
LayerCount: 2
Back
SplineSet
303 -17 m 4
 172 -17 86 106 86 239 c 132
 86 369 164 495 301 495 c 4
 427 495 540 378 540 239 c 132
 540 102 429 -17 303 -17 c 4
135 -205 m 5
 65 -205 l 5
 65 499 l 6
 65 541 79.5 576.5 108.5 605.5 c 132
 137.5 634.5 173 649 215 649 c 6
 287 649 l 5
 287 581 l 5
 215 581 l 6
 191.666 581 172.333 573.167 157 557.5 c 132
 141.667 541.833 134 522.333 134 499 c 6
 135 -205 l 5
471 239 m 132
 471 337 397 432 303 432 c 132
 209 432 135 337 135 239 c 132
 135 141 209 47 303 47 c 132
 397 47 471 141 471 239 c 132
EndSplineSet
Fore
SplineSet
471 239 m 128,-1,1
 471 314 471 314 421.5 373 c 128,-1,2
 372 432 372 432 303 432 c 128,-1,3
 234 432 234 432 184.5 373 c 128,-1,4
 135 314 135 314 135 239 c 128,-1,5
 135 164 135 164 184.5 105.5 c 128,-1,6
 234 47 234 47 303 47 c 128,-1,7
 372 47 372 47 421.5 105.5 c 128,-1,0
 471 164 471 164 471 239 c 128,-1,1
469 59.5 m 128,-1,9
 398 -17 398 -17 298 -17 c 128,-1,10
 198 -17 198 -17 135 76 c 1,11,-1
 135 -205 l 1,12,-1
 65 -205 l 1,13,-1
 65 499 l 2,14,15
 65 562 65 562 108.5 605.5 c 128,-1,16
 152 649 152 649 215 649 c 2,17,-1
 287 649 l 1,18,-1
 287 581 l 1,19,-1
 215 581 l 2,20,21
 180 581 180 581 157 557.5 c 128,-1,22
 134 534 134 534 134 499 c 2,23,-1
 134 405 l 1,24,25
 195 495 195 495 295.5 495 c 128,-1,26
 396 495 396 495 468 419 c 128,-1,27
 540 343 540 343 540 239.5 c 128,-1,8
 540 136 540 136 469 59.5 c 128,-1,9
EndSplineSet
Validated: 1
EndChar

StartChar: uni01A9
Encoding: 598 425 342
Width: 510
GlyphClass: 2
Flags: HMW
LayerCount: 2
Fore
SplineSet
306 344 m 1,0,-1
 131 63 l 1,1,-1
 480 63 l 1,2,-1
 480 0 l 1,3,-1
 44 0 l 1,4,-1
 44 65 l 1,5,-1
 218 344 l 1,6,-1
 44 622 l 1,7,-1
 44 698 l 1,8,-1
 480 698 l 1,9,-1
 480 635 l 1,10,-1
 125 635 l 1,11,-1
 306 344 l 1,0,-1
EndSplineSet
Validated: 1
EndChar

StartChar: uni01AC
Encoding: 599 428 343
Width: 579
GlyphClass: 2
Flags: HMW
LayerCount: 2
Fore
SplineSet
16 581 m 128,-1,1
 16 626 16 626 55.5 662 c 128,-1,2
 95 698 95 698 158 698 c 2,3,-1
 558 698 l 1,4,-1
 558 635 l 1,5,-1
 358 635 l 1,6,-1
 358 0 l 1,7,-1
 283 0 l 1,8,-1
 283 635 l 1,9,-1
 158 635 l 2,10,11
 125 635 125 635 104.5 618.5 c 128,-1,12
 84 602 84 602 84 581 c 0,13,14
 84 561 84 561 104.5 545.5 c 128,-1,15
 125 530 125 530 158 530 c 1,16,-1
 158 467 l 1,17,18
 95 467 95 467 55.5 501.5 c 128,-1,0
 16 536 16 536 16 581 c 128,-1,1
EndSplineSet
Validated: 1
EndChar

StartChar: uni01AD
Encoding: 600 429 344
Width: 306
GlyphClass: 2
Flags: HMW
LayerCount: 2
Fore
SplineSet
160 152 m 2,0,1
 160 117 160 117 186 93.5 c 128,-1,2
 212 70 212 70 248 70 c 2,3,-1
 275 70 l 1,4,-1
 275 0 l 1,5,-1
 248 0 l 2,6,7
 184 0 184 0 137 45 c 128,-1,8
 90 90 90 90 90 152 c 2,9,-1
 90 416 l 1,10,-1
 29 416 l 1,11,-1
 29 479 l 1,12,-1
 90 479 l 1,13,-1
 90 592 l 2,14,15
 90 657 90 657 132 700 c 128,-1,16
 174 743 174 743 248 743 c 1,17,-1
 248 684 l 1,18,19
 200 684 200 684 180 662 c 128,-1,20
 160 640 160 640 160 592 c 2,21,-1
 160 479 l 1,22,-1
 270 479 l 1,23,-1
 270 416 l 1,24,-1
 160 416 l 1,25,-1
 160 152 l 2,0,1
EndSplineSet
Validated: 1
EndChar

StartChar: uni01AE
Encoding: 601 430 345
Width: 518
GlyphClass: 2
Flags: HMW
LayerCount: 2
Fore
SplineSet
221 635 m 1,0,-1
 22 635 l 1,1,-1
 22 698 l 1,2,-1
 497 698 l 1,3,-1
 497 635 l 1,4,-1
 297 635 l 1,5,-1
 297 -53 l 2,6,7
 297 -88 297 -88 323 -111.5 c 128,-1,8
 349 -135 349 -135 385 -135 c 2,9,-1
 413 -135 l 1,10,-1
 413 -205 l 1,11,-1
 385 -205 l 2,12,13
 321 -205 321 -205 271 -160 c 128,-1,14
 221 -115 221 -115 221 -53 c 2,15,-1
 221 635 l 1,0,-1
EndSplineSet
Validated: 1
EndChar

StartChar: uni01B1
Encoding: 602 433 346
Width: 700
GlyphClass: 2
Flags: HMW
AnchorPoint: "above" 350 743 basechar 0
LayerCount: 2
Fore
SplineSet
142 642 m 1,0,-1
 71 642 l 1,1,-1
 71 698 l 1,2,-1
 232 698 l 1,3,4
 232 653 232 653 216 614.5 c 128,-1,5
 200 576 200 576 181.5 550.5 c 128,-1,6
 163 525 163 525 147 472 c 128,-1,7
 131 419 131 419 131 348 c 0,8,9
 131 231 131 231 195 142.5 c 128,-1,10
 259 54 259 54 350 54 c 128,-1,11
 441 54 441 54 505 142.5 c 128,-1,12
 569 231 569 231 569 348 c 0,13,14
 569 419 569 419 553 472 c 128,-1,15
 537 525 537 525 518.5 550.5 c 128,-1,16
 500 576 500 576 484 614.5 c 128,-1,17
 468 653 468 653 468 698 c 1,18,-1
 630 698 l 1,19,-1
 630 642 l 1,20,-1
 558 642 l 1,21,22
 565 621 565 621 591 575.5 c 128,-1,23
 617 530 617 530 633.5 476 c 128,-1,24
 650 422 650 422 650 348 c 0,25,26
 650 201 650 201 559.5 92.5 c 128,-1,27
 469 -16 469 -16 350 -16 c 128,-1,28
 231 -16 231 -16 140.5 92.5 c 128,-1,29
 50 201 50 201 50 348 c 0,30,31
 50 422 50 422 66.5 476 c 128,-1,32
 83 530 83 530 109 575.5 c 128,-1,33
 135 621 135 621 142 642 c 1,0,-1
EndSplineSet
Validated: 1
EndChar

StartChar: uni01B2
Encoding: 603 434 347
Width: 656
GlyphClass: 2
Flags: HMW
AnchorPoint: "above" 338 743 basechar 0
LayerCount: 2
Fore
SplineSet
469 698 m 1,0,1
 475 692 475 692 484.5 681 c 128,-1,2
 494 670 494 670 518 634 c 128,-1,3
 542 598 542 598 561 559.5 c 128,-1,4
 580 521 580 521 595 463 c 128,-1,5
 610 405 610 405 610 348 c 0,6,7
 610 198 610 198 532 91 c 128,-1,8
 454 -16 454 -16 338 -16 c 0,9,10
 223 -16 223 -16 148.5 90.5 c 128,-1,11
 74 197 74 197 74 348 c 2,12,-1
 74 698 l 1,13,-1
 155 698 l 1,14,-1
 155 348 l 2,15,16
 155 227 155 227 205 140.5 c 128,-1,17
 255 54 255 54 338 54 c 0,18,19
 423 54 423 54 476 141 c 128,-1,20
 529 228 529 228 529 348 c 0,21,22
 529 407 529 407 511 465 c 128,-1,23
 493 523 493 523 467.5 563 c 128,-1,24
 442 603 442 603 416 635 c 0,25,26
 391 666 391 666 373 682 c 2,27,-1
 355 698 l 1,28,-1
 469 698 l 1,0,1
EndSplineSet
Validated: 1
EndChar

StartChar: uni01B3
Encoding: 604 435 348
Width: 656
GlyphClass: 2
Flags: HMW
LayerCount: 2
Fore
SplineSet
562 579 m 0,0,1
 562 604 562 604 544.5 619.5 c 128,-1,2
 527 635 527 635 501 635 c 0,3,4
 450 635 450 635 429 599 c 2,5,-1
 283 355 l 1,6,-1
 283 0 l 1,7,-1
 207 0 l 1,8,-1
 207 358 l 1,9,-1
 3 698 l 1,10,-1
 92 698 l 1,11,-1
 246 442 l 1,12,-1
 361 635 l 1,13,14
 410 714 410 714 505 714 c 0,15,16
 560 714 560 714 596 684.5 c 128,-1,17
 632 655 632 655 640 611 c 0,18,19
 642 599 642 599 642 592 c 0,20,21
 642 533 642 533 593 488 c 1,22,-1
 540 530 l 1,23,24
 562 552 562 552 562 579 c 0,0,1
EndSplineSet
Validated: 1
EndChar

StartChar: uni01B4
Encoding: 605 436 349
Width: 636
GlyphClass: 2
Flags: HMW
LayerCount: 2
Fore
SplineSet
556 375 m 4,0,1
 556 399 556 399 535.5 415.5 c 132,-1,2
 515 432 515 432 492 432 c 4,3,4
 466 432 466 432 447.5 412 c 132,-1,5
 429 392 429 392 420 367 c 5,6,-1
 188 -205 l 1,7,-1
 114 -205 l 1,8,-1
 196 -2 l 1,9,-1
 1 479 l 1,10,-1
 77 479 l 1,11,-1
 233 90 l 1,12,-1
 354 390 l 6,13,14
 375 441 375 441 406.5 468.5 c 132,-1,15
 438 496 438 496 496 496 c 4,16,17
 550 496 550 496 587 462.5 c 132,-1,18
 624 429 624 429 624 375 c 4,19,20
 624 334 624 334 588 289 c 5,21,-1
 531 318 l 5,22,23
 556 352 556 352 556 375 c 4,0,1
EndSplineSet
Validated: 1
EndChar

StartChar: uni01C2
Encoding: 607 450 351
Width: 322
GlyphClass: 2
Flags: HMW
LayerCount: 2
Fore
SplineSet
184 385 m 1,0,-1
 184 329 l 1,1,-1
 299 329 l 1,2,-1
 299 272 l 1,3,-1
 184 272 l 1,4,-1
 184 -70 l 1,5,-1
 142 -70 l 1,6,-1
 142 272 l 1,7,-1
 24 272 l 1,8,-1
 24 329 l 1,9,-1
 142 329 l 1,10,-1
 142 385 l 1,11,-1
 24 385 l 1,12,-1
 24 440 l 1,13,-1
 142 440 l 1,14,-1
 142 768 l 1,15,-1
 184 768 l 1,16,-1
 184 440 l 1,17,-1
 299 440 l 1,18,-1
 299 385 l 1,19,-1
 184 385 l 1,0,-1
EndSplineSet
Validated: 1
EndChar

StartChar: uni01DD
Encoding: 616 477 360
Width: 539
GlyphClass: 2
Flags: HMW
AnchorPoint: "above" 267 581 basechar 0
LayerCount: 2
Fore
SplineSet
436 240 m 1,0,1
 436 319 436 319 385.5 376 c 128,-1,2
 335 433 335 433 268 433 c 0,3,4
 195 433 195 433 161.5 412.5 c 128,-1,5
 128 392 128 392 101 346 c 1,6,-1
 45 383 l 1,7,8
 82 440 82 440 131 468 c 128,-1,9
 180 496 180 496 266 496 c 0,10,11
 357 496 357 496 431 419.5 c 128,-1,12
 505 343 505 343 505 240 c 128,-1,13
 505 137 505 137 432 60.5 c 128,-1,14
 359 -16 359 -16 268 -16 c 128,-1,15
 177 -16 177 -16 103.5 60.5 c 128,-1,16
 30 137 30 137 30 240 c 1,17,-1
 436 240 l 1,0,1
427 177 m 1,18,-1
 110 177 l 1,19,20
 128 120 128 120 172 84 c 128,-1,21
 216 48 216 48 268 48 c 128,-1,22
 320 48 320 48 364.5 84 c 128,-1,23
 409 120 409 120 427 177 c 1,18,-1
EndSplineSet
Validated: 1
EndChar

StartChar: uni01EA
Encoding: 621 490 365
Width: 690
GlyphClass: 2
Flags: HMW
LayerCount: 2
Fore
SplineSet
359 -84 m 0,0,1
 359 -154 359 -154 465 -154 c 0,2,3
 492 -154 492 -154 520 -147 c 1,4,-1
 527 -174 l 1,5,6
 467 -190 467 -190 421 -190 c 0,7,8
 292 -190 292 -190 292 -93 c 0,9,10
 292 -43 292 -43 326 -15 c 1,11,12
 214 -5 214 -5 129.5 102 c 128,-1,13
 45 209 45 209 45 348 c 0,14,15
 45 495 45 495 135.5 604.5 c 128,-1,16
 226 714 226 714 345 714 c 128,-1,17
 464 714 464 714 554.5 604.5 c 128,-1,18
 645 495 645 495 645 348 c 0,19,20
 645 221 645 221 574.5 119.5 c 128,-1,21
 504 18 504 18 403 -9 c 1,22,23
 376 -21 376 -21 367.5 -36.5 c 128,-1,24
 359 -52 359 -52 359 -84 c 0,0,1
126 348 m 0,25,26
 126 231 126 231 190 142.5 c 128,-1,27
 254 54 254 54 345 54 c 128,-1,28
 436 54 436 54 500 142.5 c 128,-1,29
 564 231 564 231 564 348 c 0,30,31
 564 466 564 466 500 555 c 128,-1,32
 436 644 436 644 345 644 c 128,-1,33
 254 644 254 644 190 555 c 128,-1,34
 126 466 126 466 126 348 c 0,25,26
EndSplineSet
Validated: 1
EndChar

StartChar: uni01EB
Encoding: 622 491 366
Width: 546
GlyphClass: 2
Flags: HMW
LayerCount: 2
Fore
SplineSet
285 -84 m 0,0,1
 285 -154 285 -154 390 -154 c 0,2,3
 417 -154 417 -154 445 -147 c 1,4,-1
 453 -174 l 1,5,6
 393 -190 393 -190 346 -190 c 0,7,8
 217 -190 217 -190 217 -93 c 0,9,10
 217 -44 217 -44 252 -15 c 1,11,12
 167 -4 167 -4 101.5 70 c 128,-1,13
 36 144 36 144 36 240 c 0,14,15
 36 343 36 343 109 419.5 c 128,-1,16
 182 496 182 496 273 496 c 128,-1,17
 364 496 364 496 437.5 419.5 c 128,-1,18
 511 343 511 343 511 240 c 0,19,20
 511 153 511 153 457.5 83 c 128,-1,21
 404 13 404 13 328 -9 c 1,22,23
 302 -20 302 -20 293.5 -36 c 128,-1,24
 285 -52 285 -52 285 -84 c 0,0,1
105 240 m 128,-1,26
 105 161 105 161 155.5 104 c 128,-1,27
 206 47 206 47 273 47 c 128,-1,28
 340 47 340 47 390.5 104 c 128,-1,29
 441 161 441 161 441 240 c 128,-1,30
 441 319 441 319 390.5 375.5 c 128,-1,31
 340 432 340 432 273 432 c 128,-1,32
 206 432 206 432 155.5 375.5 c 128,-1,25
 105 319 105 319 105 240 c 128,-1,26
EndSplineSet
Validated: 1
EndChar

StartChar: uni021C
Encoding: 636 540 380
Width: 476
GlyphClass: 2
Flags: HMW
LayerCount: 2
Fore
SplineSet
123 307 m 1,0,-1
 123 386 l 1,1,2
 152 399 152 399 194.5 426.5 c 128,-1,3
 237 454 237 454 281 497.5 c 128,-1,4
 325 541 325 541 325 574 c 0,5,6
 325 608 325 608 298 628 c 128,-1,7
 271 648 271 648 247 648 c 0,8,9
 211 648 211 648 181 638.5 c 128,-1,10
 151 629 151 629 133.5 616 c 128,-1,11
 116 603 116 603 104 590 c 0,12,13
 92 578 92 578 88 568 c 2,14,-1
 84 558 l 1,15,-1
 29 604 l 1,16,17
 31 608 31 608 35.5 615.5 c 128,-1,18
 40 623 40 623 58 642 c 128,-1,19
 76 661 76 661 98.5 675 c 128,-1,20
 121 689 121 689 161 701 c 128,-1,21
 201 713 201 713 247 713 c 0,22,23
 317 713 317 713 358.5 673.5 c 128,-1,24
 400 634 400 634 400 571 c 0,25,26
 400 516 400 516 315 438 c 1,27,28
 374 412 374 412 407 368 c 128,-1,29
 440 324 440 324 440 274 c 0,30,31
 440 211 440 211 401 156 c 128,-1,32
 362 101 362 101 306.5 67 c 128,-1,33
 251 33 251 33 190 7.5 c 128,-1,34
 129 -18 129 -18 86.5 -28.5 c 128,-1,35
 44 -39 44 -39 29 -39 c 1,36,-1
 29 38 l 1,37,38
 39 39 39 39 71.5 46 c 128,-1,39
 104 53 104 53 155.5 71.5 c 128,-1,40
 207 90 207 90 252.5 116 c 128,-1,41
 298 142 298 142 331.5 185 c 128,-1,42
 365 228 365 228 365 278 c 0,43,44
 365 308 365 308 334 341.5 c 128,-1,45
 303 375 303 375 265 396 c 1,46,47
 175 328 175 328 123 307 c 1,0,-1
EndSplineSet
Validated: 1
EndChar

StartChar: uni021D
Encoding: 637 541 381
Width: 422
GlyphClass: 2
Flags: HMW
LayerCount: 2
Fore
SplineSet
97 92 m 1,0,-1
 97 177 l 1,1,2
 104 179 104 179 116.5 183 c 128,-1,3
 129 187 129 187 160.5 201.5 c 128,-1,4
 192 216 192 216 216 232.5 c 128,-1,5
 240 249 240 249 260 277 c 128,-1,6
 280 305 280 305 280 335 c 0,7,8
 280 370 280 370 257 400.5 c 128,-1,9
 234 431 234 431 214 431 c 0,10,11
 178 431 178 431 149 421.5 c 128,-1,12
 120 412 120 412 104.5 399 c 128,-1,13
 89 386 89 386 79 373 c 128,-1,14
 69 360 69 360 66 350 c 2,15,-1
 63 341 l 1,16,-1
 8 387 l 1,17,18
 10 391 10 391 13.5 398.5 c 128,-1,19
 17 406 17 406 33 425 c 128,-1,20
 49 444 49 444 69.5 458 c 128,-1,21
 90 472 90 472 129 484 c 128,-1,22
 168 496 168 496 214 496 c 0,23,24
 281 496 281 496 318 447.5 c 128,-1,25
 355 399 355 399 355 332 c 0,26,27
 355 270 355 270 305 215 c 1,28,29
 344 198 344 198 365.5 164.5 c 128,-1,30
 387 131 387 131 387 89 c 0,31,32
 387 22 387 22 347.5 -34 c 128,-1,33
 308 -90 308 -90 252 -122.5 c 128,-1,34
 196 -155 196 -155 140 -178 c 0,35,36
 84 -200 84 -200 44 -208 c 2,37,-1
 4 -216 l 1,38,-1
 4 -125 l 1,39,40
 10 -124 10 -124 21.5 -122.5 c 128,-1,41
 33 -121 33 -121 64.5 -114 c 128,-1,42
 96 -107 96 -107 125 -97.5 c 128,-1,43
 154 -88 154 -88 189.5 -70.5 c 128,-1,44
 225 -53 225 -53 250.5 -31.5 c 128,-1,45
 276 -10 276 -10 293.5 22 c 128,-1,46
 311 54 311 54 311 92 c 0,47,48
 311 121 311 121 290.5 139.5 c 128,-1,49
 270 158 270 158 245 164 c 1,50,51
 214 143 214 143 177 125 c 0,52,53
 140 108 140 108 118 100 c 2,54,-1
 97 92 l 1,0,-1
EndSplineSet
Validated: 1
EndChar

StartChar: uni0220
Encoding: 640 544 384
Width: 635
GlyphClass: 2
Flags: MW
LayerCount: 2
Back
SplineSet
501 -205 m 1
 501 408 l 2
 501 478 487.333 534.834 460 578.5 c 128
 432.667 622.167 390 644 332 644 c 128
 274 644 231.333 622.167 204 578.5 c 128
 176.667 534.833 163 478 163 408 c 2
 163 0 l 1
 81 0 l 1
 81 698 l 1
 158 698 l 1
 158 646 l 1
 201.333 691.333 259.333 714 332 714 c 0
 410.667 714 472 687.5 516 634.5 c 128
 560 581.5 582 506 582 408 c 2
 582 -205 l 1
 501 -205 l 1
EndSplineSet
Fore
SplineSet
501 -205 m 9,0,-1
 501 408 l 2,1,2
 501 512.996 501 512.996 460 578.5 c 128,-1,3
 419 644 419 644 332 644 c 0,4,5
 219 644 219 644 163 547 c 1,6,-1
 163 0 l 1,7,-1
 81 0 l 1,8,-1
 81 698 l 1,9,-1
 163 698 l 1,10,-1
 163 644 l 1,11,12
 237 714 237 714 332 714 c 0,13,14
 456 714 456 714 519 631 c 0,15,16
 582 547.669 582 547.669 582 408 c 2,17,-1
 582 -205 l 17,18,-1
 501 -205 l 9,0,-1
EndSplineSet
Validated: 1
EndChar

StartChar: uni0222
Encoding: 641 546 385
Width: 575
GlyphClass: 2
Flags: HMW
AnchorPoint: "above" 305 743 basechar 0
LayerCount: 2
Fore
SplineSet
288 400 m 1,0,1
 367 424 367 424 390 439 c 0,2,3
 436 468 436 468 436 524 c 0,4,5
 436 538 436 538 430 556 c 1,6,7
 422 574 422 574 416 585 c 2,8,-1
 410 596 l 1,9,-1
 480 629 l 1,10,11
 514 571 514 571 514 524 c 0,12,13
 514 420 514 420 400 361 c 1,14,15
 465 334 465 334 500 292.5 c 128,-1,16
 535 251 535 251 535 174 c 0,17,18
 535 86 535 86 461.5 35 c 128,-1,19
 388 -16 388 -16 288 -16 c 128,-1,20
 188 -16 188 -16 114.5 35 c 128,-1,21
 41 86 41 86 41 174 c 0,22,23
 41 252 41 252 75.5 293 c 128,-1,24
 110 334 110 334 175 361 c 1,25,26
 61 420 61 420 61 524 c 0,27,28
 61 615 61 615 126.5 664.5 c 128,-1,29
 192 714 192 714 301 714 c 1,30,-1
 301 644 l 1,31,32
 139 644 139 644 139 524 c 0,33,34
 139 495 139 495 148 475.5 c 128,-1,35
 157 456 157 456 183 441 c 128,-1,36
 209 426 209 426 220.5 421.5 c 128,-1,37
 232 417 232 417 273 405 c 0,38,39
 283 402 283 402 288 400 c 1,0,1
288 318 m 1,40,41
 192 291 192 291 155.5 264.5 c 128,-1,42
 119 238 119 238 119 174 c 0,43,44
 119 116 119 116 169.5 85 c 128,-1,45
 220 54 220 54 288 54 c 128,-1,46
 356 54 356 54 406.5 85 c 128,-1,47
 457 116 457 116 457 174 c 0,48,49
 457 238 457 238 420.5 264.5 c 128,-1,50
 384 291 384 291 288 318 c 1,40,41
EndSplineSet
Validated: 1
EndChar

StartChar: uni0223
Encoding: 642 547 386
Width: 532
GlyphClass: 2
Flags: HMW
AnchorPoint: "above" 266 698 basechar 0
LayerCount: 2
Fore
SplineSet
266 401 m 1,0,-1
 254 397 l 1,1,2
 181 370 181 370 147 321 c 128,-1,3
 113 272 113 272 113 215 c 0,4,5
 113 137 113 137 156.5 95.5 c 128,-1,6
 200 54 200 54 266 54 c 128,-1,7
 332 54 332 54 376 95.5 c 128,-1,8
 420 137 420 137 420 215 c 0,9,10
 420 272 420 272 386 321 c 128,-1,11
 352 370 352 370 279 397 c 1,12,-1
 266 401 l 1,0,-1
180 446 m 1,13,14
 55 532 55 532 55 668 c 1,15,-1
 133 668 l 1,16,17
 133 560 133 560 266 488 c 1,18,19
 399 560 399 560 399 668 c 1,20,-1
 477 668 l 1,21,22
 477 532 477 532 352 446 c 1,23,24
 422 408 422 408 460 355 c 128,-1,25
 498 302 498 302 498 215 c 0,26,27
 498 103 498 103 432 43.5 c 128,-1,28
 366 -16 366 -16 266 -16 c 128,-1,29
 166 -16 166 -16 100.5 43.5 c 128,-1,30
 35 103 35 103 35 215 c 0,31,32
 35 302 35 302 72.5 355 c 128,-1,33
 110 408 110 408 180 446 c 1,13,14
EndSplineSet
Validated: 1
EndChar

StartChar: uni0228
Encoding: 645 552 389
Width: 515
GlyphClass: 2
Flags: HMW
LayerCount: 2
Fore
SplineSet
81 0 m 1,0,-1
 81 698 l 1,1,-1
 472 698 l 1,2,-1
 472 634 l 1,3,-1
 158 634 l 1,4,-1
 158 411 l 1,5,-1
 403 411 l 1,6,-1
 403 348 l 1,7,-1
 158 348 l 1,8,-1
 158 63 l 1,9,-1
 475 63 l 1,10,-1
 475 0 l 1,11,-1
 304 0 l 1,12,-1
 270 -70 l 1,13,14
 325 -70 325 -70 352.5 -88 c 128,-1,15
 380 -106 380 -106 380 -128 c 0,16,17
 380 -205 380 -205 170 -205 c 1,18,-1
 170 -177 l 1,19,20
 221 -177 221 -177 267 -165.5 c 128,-1,21
 313 -154 313 -154 313 -134 c 0,22,23
 313 -124 313 -124 306 -118 c 128,-1,24
 299 -112 299 -112 274.5 -108.5 c 128,-1,25
 250 -105 250 -105 203 -105 c 1,26,-1
 252 0 l 1,27,-1
 81 0 l 1,0,-1
EndSplineSet
Validated: 1
EndChar

StartChar: uni0229
Encoding: 646 553 390
Width: 540
GlyphClass: 2
Flags: HMW
LayerCount: 2
Fore
SplineSet
116 303 m 1,0,-1
 431 303 l 1,1,2
 413 360 413 360 369 396 c 128,-1,3
 325 432 325 432 273 432 c 128,-1,4
 221 432 221 432 177.5 396 c 128,-1,5
 134 360 134 360 116 303 c 1,0,-1
105 240 m 1,6,7
 105 161 105 161 155.5 104 c 128,-1,8
 206 47 206 47 273 47 c 0,9,10
 346 47 346 47 379.5 67.5 c 128,-1,11
 413 88 413 88 440 134 c 1,12,-1
 496 97 l 1,13,14
 460 42 460 42 415.5 14.5 c 128,-1,15
 371 -13 371 -13 294 -16 c 1,16,-1
 267 -70 l 1,17,18
 322 -70 322 -70 350 -88 c 128,-1,19
 378 -106 378 -106 378 -128 c 0,20,21
 378 -205 378 -205 167 -205 c 1,22,-1
 167 -177 l 1,23,24
 218 -177 218 -177 264 -165.5 c 128,-1,25
 310 -154 310 -154 310 -134 c 0,26,27
 310 -124 310 -124 303 -118 c 128,-1,28
 296 -112 296 -112 271.5 -108.5 c 128,-1,29
 247 -105 247 -105 200 -105 c 1,30,-1
 243 -13 l 1,31,32
 161 1 161 1 98.5 74 c 128,-1,33
 36 147 36 147 36 240 c 0,34,35
 36 343 36 343 109 419.5 c 128,-1,36
 182 496 182 496 273 496 c 128,-1,37
 364 496 364 496 437.5 419.5 c 128,-1,38
 511 343 511 343 511 240 c 1,39,-1
 105 240 l 1,6,7
EndSplineSet
Validated: 1
EndChar

StartChar: uni0237
Encoding: 653 567 397
Width: 198
GlyphClass: 2
Flags: HMW
AnchorPoint: "above" 101 581 basechar 0
LayerCount: 2
Fore
SplineSet
-46 -141 m 1,0,-1
 -17 -141 l 2,1,2
 18 -141 18 -141 41.5 -115 c 128,-1,3
 65 -89 65 -89 65 -53 c 2,4,-1
 65 479 l 1,5,-1
 134 479 l 1,6,-1
 134 -53 l 2,7,8
 134 -116 134 -116 90 -160.5 c 128,-1,9
 46 -205 46 -205 -17 -205 c 2,10,-1
 -46 -205 l 1,11,-1
 -46 -141 l 1,0,-1
EndSplineSet
Validated: 1
EndChar

StartChar: uni023B
Encoding: 654 571 398
Width: 586
GlyphClass: 2
UnlinkRmOvrlpSave: 1
Flags: HMW
LayerCount: 2
Back
SplineSet
566 147 m 1
 503.333 38.3333 426 -16 334 -16 c 0
 267.333 -16 208.333 11.3333 157 66 c 1
 114 0 l 1
 58 0 l 1
 126 102 l 1
 76.6667 172.667 52 254.667 52 348 c 0
 52 447.333 79.5 533.167 134.5 605.5 c 128
 189.5 677.833 256 714 334 714 c 0
 390 714 441.333 692.667 488 650 c 1
 520 698 l 1
 577 698 l 1
 521 615 l 1
 533.667 600.333 544.667 585.333 554 570 c 1
 494 527 l 1
 488.667 535.667 483.333 543.667 478 551 c 1
 198 127 l 1
 236 78.3333 281.333 54 334 54 c 0
 398 54 453.333 97 500 183 c 1
 566 147 l 1
171 170 m 1
 447 589 l 1
 412.333 625.667 374.666 644 334 644 c 0
 274.667 644 225.833 614.667 187.5 556 c 128
 149.167 497.333 130 428 130 348 c 0
 130 282 143.667 222.667 171 170 c 1
EndSplineSet
Fore
SplineSet
470.4 748 m 1
 517.4 726 l 1
 157.4 -46 l 1
 110.4 -24 l 1
 470.4 748 l 1
EndSplineSet
Refer: 38 67 N 1 0 0 1 0 0 2
EndChar

StartChar: uni023C
Encoding: 655 572 399
Width: 488
GlyphClass: 2
UnlinkRmOvrlpSave: 1
Flags: HMW
LayerCount: 2
Back
SplineSet
56 -95 m 1
 -7 -95 l 1
 99 75 l 1
 59 122.333 39 177.333 39 240 c 0
 39 308.667 63.3333 368.5 112 419.5 c 128
 160.667 470.5 215.333 496 276 496 c 0
 298.667 496 324.333 490.333 353 479 c 1
 417 581 l 1
 481 581 l 1
 401 454 l 1
 421 440 440 421.667 458 399 c 1
 407 359 l 1
 395 375 382 388.667 368 400 c 1
 173 90 l 1
 205 61.3333 239.333 47 276 47 c 0
 311.333 47 338.833 52.3333 358.5 63 c 128
 378.167 73.6667 397 90.6667 415 114 c 1
 469 76 l 1
 444.333 45.3333 417.5 22.3333 388.5 7 c 128
 359.5 -8.33333 323 -16 279 -16 c 0
 229.667 -16 183 1.66667 139 37 c 1
 56 -95 l 1
137 134 m 1
 319 426 l 1
 306.333 430 292 432 276 432 c 0
 231.333 432 192.333 413.167 159 375.5 c 128
 125.667 337.833 109 292.667 109 240 c 0
 109 202 118.333 166.667 137 134 c 1
EndSplineSet
Fore
SplineSet
354.155 556.775 m 1
 401.283 534.8 l 1
 123.2 -61.5508 l 1
 76.0723 -39.5752 l 1
 354.155 556.775 l 1
EndSplineSet
Refer: 70 99 N 1 0 0 1 0 0 2
EndChar

StartChar: uni0241
Encoding: 656 577 400
Width: 471
GlyphClass: 2
Flags: HMW
LayerCount: 2
Fore
SplineSet
180 170 m 2,0,1
 180 217 180 217 193.5 253 c 128,-1,2
 207 289 207 289 227 309.5 c 128,-1,3
 247 330 247 330 271 352 c 128,-1,4
 295 374 295 374 315 392.5 c 128,-1,5
 335 411 335 411 348.5 443 c 128,-1,6
 362 475 362 475 362 516 c 0,7,8
 362 574 362 574 325 612 c 128,-1,9
 288 650 288 650 224 650 c 0,10,11
 178 650 178 650 143.5 624.5 c 128,-1,12
 109 599 109 599 94 552 c 1,13,-1
 30 572 l 1,14,15
 53 636 53 636 107 675 c 128,-1,16
 161 714 161 714 224 714 c 0,17,18
 312 714 312 714 372 657 c 128,-1,19
 432 600 432 600 432 516 c 0,20,21
 432 469 432 469 418.5 433 c 128,-1,22
 405 397 405 397 385 376.5 c 128,-1,23
 365 356 365 356 341 334 c 128,-1,24
 317 312 317 312 297 293.5 c 128,-1,25
 277 275 277 275 263.5 243 c 128,-1,26
 250 211 250 211 250 170 c 2,27,-1
 250 0 l 1,28,-1
 180 0 l 1,29,-1
 180 170 l 2,0,1
EndSplineSet
Validated: 1
EndChar

StartChar: uni0242
Encoding: 657 578 401
Width: 458
GlyphClass: 2
Flags: HMW
LayerCount: 2
Fore
SplineSet
172 66 m 2,0,1
 172 117 172 117 185.5 153 c 128,-1,2
 199 189 199 189 219 206 c 128,-1,3
 239 223 239 223 263 237.5 c 128,-1,4
 287 252 287 252 307 261.5 c 128,-1,5
 327 271 327 271 340.5 291 c 128,-1,6
 354 311 354 311 354 340 c 0,7,8
 354 383 354 383 318 407.5 c 128,-1,9
 282 432 282 432 216 432 c 0,10,11
 170 432 170 432 135.5 406.5 c 128,-1,12
 101 381 101 381 86 334 c 1,13,-1
 22 354 l 1,14,15
 45 418 45 418 99 457 c 128,-1,16
 153 496 153 496 216 496 c 0,17,18
 310 496 310 496 367 457.5 c 128,-1,19
 424 419 424 419 424 340 c 0,20,21
 424 295 424 295 410.5 266 c 128,-1,22
 397 237 397 237 377 225.5 c 128,-1,23
 357 214 357 214 333 202 c 128,-1,24
 309 190 309 190 289 178.5 c 128,-1,25
 269 167 269 167 255.5 138.5 c 128,-1,26
 242 110 242 110 242 66 c 2,27,-1
 242 0 l 1,28,-1
 172 0 l 1,29,-1
 172 66 l 2,0,1
EndSplineSet
Validated: 1
EndChar

StartChar: uni0243
Encoding: 658 579 402
Width: 588
GlyphClass: 2
Flags: HMW
LayerCount: 2
Fore
SplineSet
158 634 m 1,0,-1
 158 411 l 1,1,-1
 288 411 l 2,2,3
 350 411 350 411 384 444.5 c 128,-1,4
 418 478 418 478 418 523 c 0,5,6
 418 567 418 567 384 600.5 c 128,-1,7
 350 634 350 634 288 634 c 2,8,-1
 158 634 l 1,0,-1
158 188 m 1,9,-1
 158 63 l 1,10,-1
 304 63 l 2,11,12
 373 63 373 63 419 100 c 128,-1,13
 465 137 465 137 465 205 c 128,-1,14
 465 273 465 273 419.5 309.5 c 128,-1,15
 374 346 374 346 304 346 c 2,16,-1
 158 346 l 1,17,-1
 158 238 l 1,18,-1
 323 238 l 1,19,-1
 323 188 l 1,20,-1
 158 188 l 1,9,-1
81 188 m 1,21,-1
 44 188 l 1,22,-1
 44 238 l 1,23,-1
 81 238 l 1,24,-1
 81 698 l 1,25,-1
 288 698 l 2,26,27
 378 698 378 698 440 649 c 128,-1,28
 502 600 502 600 502 523 c 0,29,30
 502 437 502 437 425 386 c 1,31,32
 481 362 481 362 515 316.5 c 128,-1,33
 549 271 549 271 549 205 c 0,34,35
 549 106 549 106 476.5 53 c 128,-1,36
 404 0 404 0 306 0 c 2,37,-1
 81 0 l 1,38,-1
 81 188 l 1,21,-1
EndSplineSet
Validated: 1
EndChar

StartChar: uni0244
Encoding: 659 580 403
Width: 651
GlyphClass: 2
Flags: HMW
AnchorPoint: "above" 326 743 basechar 0
LayerCount: 2
Fore
SplineSet
38 430 m 1,0,-1
 38 479 l 1,1,-1
 75 479 l 1,2,-1
 75 698 l 1,3,-1
 157 698 l 1,4,-1
 157 479 l 1,5,-1
 495 479 l 1,6,-1
 495 698 l 1,7,-1
 575 698 l 1,8,-1
 575 479 l 1,9,-1
 624 479 l 1,10,-1
 624 430 l 1,11,-1
 575 430 l 1,12,-1
 575 290 l 2,13,14
 575 143 575 143 509.5 63.5 c 128,-1,15
 444 -16 444 -16 326 -16 c 0,16,17
 207 -16 207 -16 141 63.5 c 128,-1,18
 75 143 75 143 75 290 c 2,19,-1
 75 430 l 1,20,-1
 38 430 l 1,0,-1
495 430 m 1,21,-1
 157 430 l 1,22,-1
 157 290 l 2,23,24
 157 185 157 185 198 119.5 c 128,-1,25
 239 54 239 54 326 54 c 128,-1,26
 413 54 413 54 454 119.5 c 128,-1,27
 495 185 495 185 495 290 c 2,28,-1
 495 430 l 1,21,-1
EndSplineSet
Validated: 1
EndChar

StartChar: uni0248
Encoding: 661 584 405
Width: 508
GlyphClass: 2
Flags: HMW
LayerCount: 2
Fore
SplineSet
252 336 m 1,0,-1
 252 379 l 1,1,-1
 349 379 l 1,2,-1
 349 698 l 1,3,-1
 426 698 l 1,4,-1
 426 379 l 1,5,-1
 512 379 l 1,6,-1
 512 336 l 1,7,-1
 426 336 l 1,8,-1
 426 210 l 2,9,10
 426 107 426 107 364 45.5 c 128,-1,11
 302 -16 302 -16 210 -16 c 0,12,13
 147 -16 147 -16 93 24.5 c 128,-1,14
 39 65 39 65 12 130 c 1,15,-1
 77 161 l 1,16,17
 92 112 92 112 126.5 83.5 c 128,-1,18
 161 55 161 55 208 55 c 0,19,20
 276 55 276 55 312.5 93.5 c 128,-1,21
 349 132 349 132 349 210 c 2,22,-1
 349 336 l 1,23,-1
 252 336 l 1,0,-1
EndSplineSet
Validated: 1
EndChar

StartChar: uni0249
Encoding: 662 585 406
Width: 250
GlyphClass: 2
Flags: HMW
LayerCount: 2
Fore
SplineSet
-17 -141 m 1,0,-1
 11 -141 l 2,1,2
 46 -141 46 -141 69.5 -115 c 128,-1,3
 93 -89 93 -89 93 -53 c 2,4,-1
 93 242 l 1,5,-1
 19 242 l 1,6,-1
 19 285 l 1,7,-1
 93 285 l 1,8,-1
 93 479 l 1,9,-1
 163 479 l 1,10,-1
 163 285 l 1,11,-1
 224 285 l 1,12,-1
 224 242 l 1,13,-1
 163 242 l 1,14,-1
 163 -53 l 2,15,16
 163 -116 163 -116 118.5 -160.5 c 128,-1,17
 74 -205 74 -205 11 -205 c 2,18,-1
 -17 -205 l 1,19,-1
 -17 -141 l 1,0,-1
73 628 m 128,-1,21
 73 651 73 651 89 667 c 128,-1,22
 105 683 105 683 128 683 c 128,-1,23
 151 683 151 683 167 667 c 128,-1,24
 183 651 183 651 183 628 c 128,-1,25
 183 605 183 605 167 588.5 c 128,-1,26
 151 572 151 572 128 572 c 128,-1,27
 105 572 105 572 89 588.5 c 128,-1,20
 73 605 73 605 73 628 c 128,-1,21
EndSplineSet
Validated: 1
EndChar

StartChar: uni024A
Encoding: 663 586 407
Width: 723
GlyphClass: 2
Flags: MW
LayerCount: 2
Back
SplineSet
343 644 m 128
 210 644 124 487 124 348 c 0
 124 210 210 54 343 54 c 128
 474 54 567 220 567 348 c 1
 567 502 464 644 343 644 c 128
343 714 m 0
 172 714 43 526 43 348 c 128
 43 170 172 -16 343 -16 c 0
 518 -16 604 166 604 348 c 1
 604 564 502 714 343 714 c 0
567 698 m 1
 644 698 l 1
 643 -53 l 2
 643 -100 683 -135 730 -135 c 2
 758 -135 l 1
 758 -205 l 1
 730 -205 l 2
 647 -205 567 -136 567 -53 c 2
 567 698 l 1
EndSplineSet
Fore
SplineSet
567 698 m 1,0,-1
 644 698 l 1,1,-1
 643 -53 l 2,2,3
 643 -88 643 -88 668.5 -111.5 c 128,-1,4
 694 -135 694 -135 730 -135 c 2,5,-1
 758 -135 l 1,6,-1
 758 -205 l 1,7,-1
 730 -205 l 2,8,9
 667 -205 667 -205 617 -159.5 c 128,-1,10
 567 -114 567 -114 567 -53 c 2,11,-1
 567 149.252 l 1,12,13
 539.046 84.0079 539.046 84.0079 483.023 34.004 c 128,-1,14
 427 -16 427 -16 344 -16 c 128,-1,15
 261 -16 261 -16 190.5 38 c 128,-1,16
 120 92 120 92 81.5 175.5 c 128,-1,17
 43 259 43 259 43 348 c 128,-1,18
 43 437 43 437 81.5 521 c 128,-1,19
 120 605 120 605 190.5 659.5 c 128,-1,20
 261 714 261 714 343 714 c 0,21,22
 461 714 461 714 532.5 612.5 c 0,23,24
 552.566 584.015 552.566 584.015 567 550.687 c 1,25,-1
 567 698 l 1,0,-1
343 644 m 0,26,27
 279 644 279 644 228 598.5 c 128,-1,28
 177 553 177 553 150.5 486 c 128,-1,29
 124 419 124 419 124 348.5 c 128,-1,30
 124 278 124 278 150.5 211 c 128,-1,31
 177 144 177 144 228 99 c 128,-1,32
 279 54 279 54 342 54 c 128,-1,33
 405 54 405 54 458 101 c 128,-1,34
 511 148 511 148 539 215.5 c 128,-1,35
 567 283 567 283 567 348 c 0,36,37
 567 465 567 465 500 554.5 c 128,-1,38
 433 644 433 644 343 644 c 0,26,27
EndSplineSet
Validated: 1
EndChar

StartChar: uni024B
Encoding: 664 587 408
Width: 574
GlyphClass: 2
Flags: MW
LayerCount: 2
Back
SplineSet
273 -17 m 4
 147 -17 35 102 35 239 c 132
 35 378 149 495 275 495 c 4
 412 495 490 369 490 239 c 132
 490 106 404 -17 273 -17 c 4
105 239 m 132
 105 141 179 47 273 47 c 132
 367 47 441 141 441 239 c 132
 441 337 367 432 273 432 c 132
 179 432 105 337 105 239 c 132
510 -53 m 6
 510 -76.3333 518.667 -95.8333 536 -111.5 c 132
 553.333 -127.167 574 -135 598 -135 c 6
 626 -135 l 5
 626 -205 l 5
 598 -205 l 6
 555.333 -205 518.333 -190 487 -160 c 132
 455.667 -130 440 -94.3333 440 -53 c 6
 441 479 l 5
 510 479 l 5
 510 -53 l 6
EndSplineSet
Fore
SplineSet
107.5 418.5 m 128,-1,1
 180 495 180 495 280 495 c 128,-1,2
 380 495 380 495 441 406 c 1,3,-1
 441 479 l 1,4,-1
 510 479 l 1,5,-1
 510 -53 l 2,6,7
 510 -88 510 -88 536 -111.5 c 128,-1,8
 562 -135 562 -135 598 -135 c 2,9,-1
 626 -135 l 1,10,-1
 626 -205 l 1,11,-1
 598 -205 l 2,12,13
 534 -205 534 -205 487 -160 c 0,14,15
 440 -114 440 -114 440 -52 c 2,16,-1
 440 74 l 1,17,18
 376 -17 376 -17 277 -17 c 128,-1,19
 178 -17 178 -17 106.5 59.5 c 128,-1,20
 35 136 35 136 35 239 c 128,-1,0
 35 342 35 342 107.5 418.5 c 128,-1,1
105 239 m 128,-1,22
 105 164 105 164 154.5 105.5 c 128,-1,23
 204 47 204 47 273 47 c 128,-1,24
 342 47 342 47 389 102.5 c 128,-1,25
 436 158 436 158 441 224 c 1,26,-1
 441 253 l 1,27,28
 437 320 437 320 389.5 376 c 128,-1,29
 342 432 342 432 273 432 c 128,-1,30
 204 432 204 432 154.5 373 c 128,-1,21
 105 314 105 314 105 239 c 128,-1,22
EndSplineSet
Validated: 1
EndChar

StartChar: uni024C
Encoding: 665 588 409
Width: 676
GlyphClass: 2
Flags: HMW
LayerCount: 2
Fore
SplineSet
240 634 m 1,0,-1
 240 352 l 1,1,-1
 386 352 l 2,2,3
 456 352 456 352 501.5 388.5 c 128,-1,4
 547 425 547 425 547 493 c 128,-1,5
 547 561 547 561 501.5 597.5 c 128,-1,6
 456 634 456 634 386 634 c 2,7,-1
 240 634 l 1,0,-1
163 352 m 1,8,-1
 163 698 l 1,9,-1
 386 698 l 2,10,11
 484 698 484 698 557.5 645 c 128,-1,12
 631 592 631 592 631 493 c 0,13,14
 631 415 631 415 585.5 366 c 128,-1,15
 540 317 540 317 468 298 c 1,16,-1
 640 0 l 1,17,-1
 555 0 l 1,18,-1
 389 288 l 1,19,-1
 388 288 l 1,20,-1
 240 288 l 1,21,-1
 240 0 l 1,22,-1
 163 0 l 1,23,-1
 163 288 l 1,24,-1
 9 288 l 1,25,-1
 9 352 l 1,26,-1
 163 352 l 1,8,-1
EndSplineSet
Validated: 1
EndChar

StartChar: uni0251
Encoding: 666 593 410
Width: 567
GlyphClass: 2
Flags: HMW
AnchorPoint: "above" 264 581 basechar 0
LayerCount: 2
Fore
SplineSet
36 240 m 128,-1,1
 36 345 36 345 100 420.5 c 128,-1,2
 164 496 164 496 253 496 c 0,3,4
 470 496 470 496 470 339 c 2,5,-1
 470 151 l 2,6,7
 470 116 470 116 493 92.5 c 128,-1,8
 516 69 516 69 551 69 c 1,9,-1
 551 0 l 1,10,11
 510 0 510 0 476 19.5 c 128,-1,12
 442 39 442 39 422 73 c 1,13,14
 368 -16 368 -16 255 -16 c 0,15,16
 166 -16 166 -16 101 59.5 c 128,-1,0
 36 135 36 135 36 240 c 128,-1,1
105 240 m 0,17,18
 105 162 105 162 150 104.5 c 128,-1,19
 195 47 195 47 253 47 c 0,20,21
 283 47 283 47 306.5 58 c 128,-1,22
 330 69 330 69 345.5 85.5 c 128,-1,23
 361 102 361 102 372 129 c 128,-1,24
 383 156 383 156 388 179 c 128,-1,25
 393 202 393 202 396 235.5 c 128,-1,26
 399 269 399 269 399.5 289 c 128,-1,27
 400 309 400 309 400 339 c 0,28,29
 400 432 400 432 253 432 c 0,30,31
 194 432 194 432 149.5 375.5 c 128,-1,32
 105 319 105 319 105 240 c 0,17,18
EndSplineSet
Validated: 1
EndChar

StartChar: uni0253
Encoding: 667 595 411
Width: 574
GlyphClass: 2
Flags: HMW
LayerCount: 2
Fore
SplineSet
134 65 m 1,0,-1
 134 0 l 1,1,-1
 65 0 l 1,2,-1
 65 608 l 2,3,4
 65 671 65 671 108.5 715 c 128,-1,5
 152 759 152 759 215 759 c 2,6,-1
 287 759 l 1,7,-1
 287 690 l 1,8,-1
 215 690 l 2,9,10
 180 690 180 690 157 666.5 c 128,-1,11
 134 643 134 643 134 608 c 2,12,-1
 134 416 l 1,13,14
 207 496 207 496 302 496 c 0,15,16
 393 496 393 496 466.5 419.5 c 128,-1,17
 540 343 540 343 540 240 c 0,18,19
 540 136 540 136 467.5 60 c 128,-1,20
 395 -16 395 -16 304 -16 c 0,21,22
 209 -16 209 -16 134 65 c 1,0,-1
134 240 m 128,-1,24
 134 161 134 161 184.5 104 c 128,-1,25
 235 47 235 47 302 47 c 128,-1,26
 369 47 369 47 419.5 104 c 128,-1,27
 470 161 470 161 470 240 c 128,-1,28
 470 319 470 319 419.5 375.5 c 128,-1,29
 369 432 369 432 302 432 c 128,-1,30
 235 432 235 432 184.5 375.5 c 128,-1,23
 134 319 134 319 134 240 c 128,-1,24
EndSplineSet
Validated: 1
EndChar

StartChar: uni0254
Encoding: 668 596 412
Width: 487
GlyphClass: 2
Flags: HMW
AnchorPoint: "above" 215 581 basechar 0
LayerCount: 2
Fore
SplineSet
23 403 m 1,0,1
 60 449 60 449 103.5 472.5 c 128,-1,2
 147 496 147 496 213 496 c 0,3,4
 304 496 304 496 378.5 419.5 c 128,-1,5
 453 343 453 343 453 240 c 128,-1,6
 453 137 453 137 379.5 60.5 c 128,-1,7
 306 -16 306 -16 215 -16 c 0,8,9
 165 -16 165 -16 117 10 c 128,-1,10
 69 36 69 36 34 80 c 1,11,-1
 85 120 l 1,12,13
 137 47 137 47 215 47 c 0,14,15
 282 47 282 47 332.5 104 c 128,-1,16
 383 161 383 161 383 240 c 128,-1,17
 383 319 383 319 332.5 375.5 c 128,-1,18
 282 432 282 432 215 432 c 0,19,20
 161 432 161 432 132.5 416.5 c 128,-1,21
 104 401 104 401 77 366 c 1,22,-1
 23 403 l 1,0,1
EndSplineSet
Validated: 1
EndChar

StartChar: uni0256
Encoding: 669 598 413
Width: 574
GlyphClass: 2
Flags: HMW
LayerCount: 2
Fore
SplineSet
510 -54 m 2,0,1
 510 -89 510 -89 533 -112.5 c 128,-1,2
 556 -136 556 -136 591 -136 c 2,3,-1
 664 -136 l 1,4,-1
 664 -205 l 1,5,-1
 591 -205 l 2,6,7
 528 -205 528 -205 484 -161 c 128,-1,8
 440 -117 440 -117 440 -54 c 2,9,-1
 440 62 l 1,10,11
 368 -16 368 -16 274 -16 c 0,12,13
 183 -16 183 -16 109 60.5 c 128,-1,14
 35 137 35 137 35 240 c 128,-1,15
 35 343 35 343 108 419.5 c 128,-1,16
 181 496 181 496 272 496 c 0,17,18
 367 496 367 496 440 416 c 1,19,-1
 440 743 l 1,20,-1
 510 743 l 1,21,-1
 510 -54 l 2,0,1
104 240 m 128,-1,23
 104 161 104 161 154.5 104 c 128,-1,24
 205 47 205 47 272 47 c 128,-1,25
 339 47 339 47 389.5 104 c 128,-1,26
 440 161 440 161 440 240 c 128,-1,27
 440 319 440 319 389.5 375.5 c 128,-1,28
 339 432 339 432 272 432 c 128,-1,29
 205 432 205 432 154.5 375.5 c 128,-1,22
 104 319 104 319 104 240 c 128,-1,23
EndSplineSet
Validated: 1
EndChar

StartChar: uni0257
Encoding: 670 599 414
Width: 574
GlyphClass: 2
Flags: HMW
LayerCount: 2
Fore
SplineSet
35 240 m 128,-1,1
 35 343 35 343 108 419.5 c 128,-1,2
 181 496 181 496 272 496 c 0,3,4
 367 496 367 496 440 416 c 1,5,-1
 440 608 l 2,6,7
 440 671 440 671 484 715 c 128,-1,8
 528 759 528 759 591 759 c 2,9,-1
 664 759 l 1,10,-1
 664 690 l 1,11,-1
 591 690 l 2,12,13
 556 690 556 690 533 666.5 c 128,-1,14
 510 643 510 643 510 608 c 2,15,-1
 510 0 l 1,16,-1
 440 0 l 1,17,-1
 440 62 l 1,18,19
 368 -16 368 -16 274 -16 c 0,20,21
 183 -16 183 -16 109 60.5 c 128,-1,0
 35 137 35 137 35 240 c 128,-1,1
104 240 m 128,-1,23
 104 161 104 161 154.5 104 c 128,-1,24
 205 47 205 47 272 47 c 128,-1,25
 339 47 339 47 389.5 104 c 128,-1,26
 440 161 440 161 440 240 c 128,-1,27
 440 319 440 319 389.5 375.5 c 128,-1,28
 339 432 339 432 272 432 c 128,-1,29
 205 432 205 432 154.5 375.5 c 128,-1,22
 104 319 104 319 104 240 c 128,-1,23
EndSplineSet
Validated: 1
EndChar

StartChar: uni0260
Encoding: 673 608 417
Width: 575
GlyphClass: 2
Flags: HMW
LayerCount: 2
Fore
SplineSet
510 18 m 2,0,1
 510 -94 510 -94 452.5 -149.5 c 128,-1,2
 395 -205 395 -205 299 -205 c 2,3,-1
 141 -205 l 1,4,-1
 141 -141 l 1,5,-1
 299 -141 l 2,6,7
 366 -141 366 -141 403 -100.5 c 128,-1,8
 440 -60 440 -60 440 18 c 2,9,-1
 440 62 l 1,10,11
 368 -16 368 -16 274 -16 c 0,12,13
 183 -16 183 -16 109 60.5 c 128,-1,14
 35 137 35 137 35 240 c 128,-1,15
 35 343 35 343 108 419.5 c 128,-1,16
 181 496 181 496 272 496 c 0,17,18
 367 496 367 496 440 416 c 1,19,-1
 440 430 l 2,20,21
 440 493 440 493 484 537 c 128,-1,22
 528 581 528 581 591 581 c 2,23,-1
 663 581 l 1,24,-1
 663 512 l 1,25,-1
 591 512 l 2,26,27
 556 512 556 512 533 488.5 c 128,-1,28
 510 465 510 465 510 430 c 2,29,-1
 510 18 l 2,0,1
104 240 m 128,-1,31
 104 161 104 161 154.5 104 c 128,-1,32
 205 47 205 47 272 47 c 128,-1,33
 339 47 339 47 389.5 104 c 128,-1,34
 440 161 440 161 440 240 c 128,-1,35
 440 319 440 319 389.5 375.5 c 128,-1,36
 339 432 339 432 272 432 c 128,-1,37
 205 432 205 432 154.5 375.5 c 128,-1,30
 104 319 104 319 104 240 c 128,-1,31
EndSplineSet
Validated: 1
EndChar

StartChar: uni0263
Encoding: 674 611 418
Width: 407
GlyphClass: 2
Flags: HMW
LayerCount: 2
Fore
SplineSet
78 479 m 1,0,-1
 204 175 l 1,1,-1
 330 479 l 1,2,-1
 407 479 l 1,3,-1
 243 80 l 1,4,-1
 248 69 l 1,5,6
 266 26 266 26 279 -23.5 c 128,-1,7
 292 -73 292 -73 292 -98 c 0,8,9
 292 -147 292 -147 270 -176 c 128,-1,10
 248 -205 248 -205 204 -205 c 128,-1,11
 160 -205 160 -205 138 -176 c 128,-1,12
 116 -147 116 -147 116 -98 c 0,13,14
 116 -73 116 -73 129 -23 c 128,-1,15
 142 27 142 27 160 69 c 2,16,-1
 165 80 l 1,17,-1
 1 479 l 1,18,-1
 78 479 l 1,0,-1
204 -22 m 1,19,20
 183 -87 183 -87 183 -109 c 0,21,22
 183 -141 183 -141 204 -141 c 0,23,24
 224 -141 224 -141 224 -109 c 0,25,26
 224 -84 224 -84 204 -22 c 1,19,20
EndSplineSet
Validated: 1
EndChar

StartChar: uni0265
Encoding: 675 613 419
Width: 547
GlyphClass: 2
Flags: HMW
AnchorPoint: "above" 270 581 basechar 0
LayerCount: 2
Fore
SplineSet
59 176 m 2,0,-1
 59 479 l 1,1,-1
 129 479 l 1,2,-1
 129 176 l 2,3,4
 129 122 129 122 168 84.5 c 128,-1,5
 207 47 207 47 271 47 c 128,-1,6
 335 47 335 47 374.5 102.5 c 128,-1,7
 414 158 414 158 414 240 c 2,8,-1
 414 479 l 1,9,-1
 483 479 l 1,10,-1
 480 -204 l 1,11,-1
 410 -204 l 1,12,-1
 414 44 l 1,13,14
 356 -16 356 -16 271 -16 c 0,15,16
 179 -16 179 -16 119 35.5 c 128,-1,17
 59 87 59 87 59 176 c 2,0,-1
EndSplineSet
Validated: 1
EndChar

StartChar: uni0266
Encoding: 676 614 420
Width: 547
GlyphClass: 2
Flags: HMW
LayerCount: 2
Fore
SplineSet
134 435 m 1,0,1
 193 496 193 496 276 496 c 0,2,3
 368 496 368 496 428 444.5 c 128,-1,4
 488 393 488 393 488 303 c 2,5,-1
 488 0 l 1,6,-1
 419 0 l 1,7,-1
 419 303 l 2,8,9
 419 357 419 357 379.5 394.5 c 128,-1,10
 340 432 340 432 276 432 c 128,-1,11
 212 432 212 432 173 377 c 128,-1,12
 134 322 134 322 134 240 c 2,13,-1
 134 0 l 1,14,-1
 65 0 l 1,15,-1
 65 593 l 2,16,17
 65 656 65 656 108.5 699.5 c 128,-1,18
 152 743 152 743 215 743 c 2,19,-1
 287 743 l 1,20,-1
 287 675 l 1,21,-1
 215 675 l 2,22,23
 180 675 180 675 157 651.5 c 128,-1,24
 134 628 134 628 134 593 c 2,25,-1
 134 435 l 1,0,1
EndSplineSet
Validated: 1
EndChar

StartChar: uni0268
Encoding: 677 616 421
Width: 256
GlyphClass: 2
Flags: HMW
LayerCount: 2
Fore
SplineSet
73 628 m 128,-1,1
 73 651 73 651 89 667 c 128,-1,2
 105 683 105 683 128 683 c 128,-1,3
 151 683 151 683 167 667 c 128,-1,4
 183 651 183 651 183 628 c 128,-1,5
 183 605 183 605 167 588.5 c 128,-1,6
 151 572 151 572 128 572 c 128,-1,7
 105 572 105 572 89 588.5 c 128,-1,0
 73 605 73 605 73 628 c 128,-1,1
163 242 m 1,8,-1
 163 0 l 1,9,-1
 93 0 l 1,10,-1
 93 242 l 1,11,-1
 26 242 l 1,12,-1
 26 285 l 1,13,-1
 93 285 l 1,14,-1
 93 479 l 1,15,-1
 163 479 l 1,16,-1
 163 285 l 1,17,-1
 230 285 l 1,18,-1
 230 242 l 1,19,-1
 163 242 l 1,8,-1
EndSplineSet
Validated: 1
EndChar

StartChar: uni0269
Encoding: 678 617 422
Width: 235
GlyphClass: 2
Flags: HMW
AnchorPoint: "above" 96 581 basechar 0
LayerCount: 2
Fore
SplineSet
222 0 m 1,0,1
 154 0 154 0 107 39 c 128,-1,2
 60 78 60 78 60 152 c 2,3,-1
 60 479 l 1,4,-1
 130 479 l 1,5,-1
 130 152 l 2,6,7
 130 70 130 70 222 70 c 1,8,-1
 222 0 l 1,0,1
EndSplineSet
Validated: 1
EndChar

StartChar: uni026A
Encoding: 679 618 423
Width: 232
GlyphClass: 2
Flags: HMW
AnchorPoint: "above" 117 581 basechar 0
LayerCount: 2
Fore
SplineSet
190 0 m 1,0,-1
 42 0 l 1,1,-1
 42 49 l 1,2,-1
 78 49 l 1,3,-1
 78 430 l 1,4,-1
 42 430 l 1,5,-1
 42 479 l 1,6,-1
 190 479 l 1,7,-1
 190 430 l 1,8,-1
 155 430 l 1,9,-1
 155 49 l 1,10,-1
 190 49 l 1,11,-1
 190 0 l 1,0,-1
EndSplineSet
Validated: 1
EndChar

StartChar: uni026C
Encoding: 680 620 424
Width: 368
GlyphClass: 2
Flags: HMW
AnchorPoint: "above" 178 783 basechar 0
LayerCount: 2
Fore
SplineSet
212 250 m 1,0,1
 252 266 252 266 279 303.5 c 128,-1,2
 306 341 306 341 306 395 c 1,3,-1
 343 395 l 1,4,5
 343 327 343 327 305 278 c 128,-1,6
 267 229 267 229 212 211 c 1,7,-1
 212 0 l 1,8,-1
 142 0 l 1,9,-1
 142 205 l 1,10,11
 78 210 78 210 44 244.5 c 128,-1,12
 10 279 10 279 10 334 c 0,13,14
 10 367 10 367 32.5 393.5 c 128,-1,15
 55 420 55 420 96 420 c 0,16,17
 122 420 122 420 142 406 c 1,18,-1
 142 743 l 1,19,-1
 212 743 l 1,20,-1
 212 250 l 1,0,1
142 242 m 1,21,-1
 142 334 l 2,22,23
 142 355 142 355 128.5 369 c 128,-1,24
 115 383 115 383 96 383 c 0,25,26
 47 383 47 383 47 334 c 0,27,28
 47 298 47 298 72 272.5 c 128,-1,29
 97 247 97 247 142 242 c 1,21,-1
EndSplineSet
Validated: 1
EndChar

StartChar: uni0272
Encoding: 681 626 425
Width: 547
GlyphClass: 2
Flags: HMW
LayerCount: 2
Fore
SplineSet
-44 -174 m 1,0,-1
 -44 -110 l 1,1,-1
 -17 -110 l 2,2,3
 18 -110 18 -110 41.5 -84 c 128,-1,4
 65 -58 65 -58 65 -22 c 2,5,-1
 65 479 l 1,6,-1
 134 479 l 1,7,-1
 134 435 l 1,8,9
 193 496 193 496 276 496 c 0,10,11
 368 496 368 496 428 444.5 c 128,-1,12
 488 393 488 393 488 303 c 2,13,-1
 488 0 l 1,14,-1
 419 0 l 1,15,-1
 419 303 l 2,16,17
 419 357 419 357 379.5 394.5 c 128,-1,18
 340 432 340 432 276 432 c 128,-1,19
 212 432 212 432 173 377 c 128,-1,20
 134 322 134 322 134 240 c 2,21,-1
 134 -22 l 2,22,23
 134 -85 134 -85 90 -129.5 c 128,-1,24
 46 -174 46 -174 -17 -174 c 2,25,-1
 -44 -174 l 1,0,-1
EndSplineSet
Validated: 1
EndChar

StartChar: uni0279
Encoding: 683 633 427
Width: 483
GlyphClass: 2
Flags: HMW
LayerCount: 2
Fore
SplineSet
349 254 m 1,0,-1
 261 254 l 2,1,2
 118 254 118 254 118 159 c 0,3,4
 118 111 118 111 155.5 87 c 128,-1,5
 193 63 193 63 261 63 c 2,6,-1
 349 63 l 1,7,-1
 349 254 l 1,0,-1
419 0 m 1,8,-1
 259 0 l 2,9,10
 159 0 159 0 99.5 41 c 128,-1,11
 40 82 40 82 40 159 c 0,12,13
 40 269 40 269 164 305 c 1,14,-1
 42 479 l 1,15,-1
 127 479 l 1,16,-1
 241 317 l 1,17,-1
 261 317 l 1,18,-1
 349 317 l 1,19,-1
 349 479 l 1,20,-1
 419 479 l 1,21,-1
 419 0 l 1,8,-1
EndSplineSet
Validated: 1
EndChar

StartChar: uni027D
Encoding: 684 637 428
Width: 471
GlyphClass: 2
Flags: HMW
LayerCount: 2
Fore
SplineSet
139 -54 m 2,0,1
 139 -89 139 -89 162 -112.5 c 128,-1,2
 185 -136 185 -136 220 -136 c 2,3,-1
 293 -136 l 1,4,-1
 293 -205 l 1,5,-1
 220 -205 l 2,6,7
 157 -205 157 -205 113.5 -161 c 128,-1,8
 70 -117 70 -117 70 -54 c 2,9,-1
 70 479 l 1,10,-1
 139 479 l 1,11,-1
 139 441 l 1,12,13
 194 496 194 496 271 496 c 0,14,15
 405 496 405 496 453 383 c 1,16,-1
 389 352 l 1,17,18
 357 432 357 432 271 432 c 0,19,20
 208 432 208 432 173.5 378 c 128,-1,21
 139 324 139 324 139 240 c 2,22,-1
 139 -54 l 2,0,1
EndSplineSet
Validated: 1
EndChar

StartChar: uni027E
Encoding: 685 638 429
Width: 439
GlyphClass: 2
Flags: HMW
LayerCount: 2
Fore
SplineSet
378 352 m 1,0,1
 346 432 346 432 260 432 c 0,2,3
 197 432 197 432 162.5 378 c 128,-1,4
 128 324 128 324 128 240 c 2,5,-1
 128 0 l 1,6,-1
 58 0 l 1,7,-1
 58 240 l 2,8,9
 58 357 58 357 114 426.5 c 128,-1,10
 170 496 170 496 260 496 c 0,11,12
 393 496 393 496 441 383 c 1,13,-1
 378 352 l 1,0,1
EndSplineSet
Validated: 1
EndChar

StartChar: uni0283
Encoding: 686 643 430
Width: 198
GlyphClass: 2
Flags: HMW
LayerCount: 2
Fore
SplineSet
134 -53 m 2,0,1
 134 -115 134 -115 87 -160 c 128,-1,2
 40 -205 40 -205 -24 -205 c 2,3,-1
 -51 -205 l 1,4,-1
 -51 -135 l 1,5,-1
 -24 -135 l 2,6,7
 12 -135 12 -135 38.5 -111.5 c 128,-1,8
 65 -88 65 -88 65 -53 c 2,9,-1
 65 608 l 2,10,11
 65 671 65 671 109 715.5 c 128,-1,12
 153 760 153 760 216 760 c 2,13,-1
 245 760 l 1,14,-1
 245 696 l 1,15,-1
 216 696 l 2,16,17
 181 696 181 696 157.5 670 c 128,-1,18
 134 644 134 644 134 608 c 2,19,-1
 134 -53 l 2,0,1
EndSplineSet
Validated: 1
EndChar

StartChar: uni0288
Encoding: 687 648 431
Width: 275
GlyphClass: 2
Flags: HMW
LayerCount: 2
Fore
SplineSet
157 416 m 1,0,-1
 157 -54 l 2,1,2
 157 -89 157 -89 180 -112.5 c 128,-1,3
 203 -136 203 -136 238 -136 c 2,4,-1
 310 -136 l 1,5,-1
 310 -205 l 1,6,-1
 238 -205 l 2,7,8
 175 -205 175 -205 131 -161 c 128,-1,9
 87 -117 87 -117 87 -54 c 2,10,-1
 87 416 l 1,11,-1
 26 416 l 1,12,-1
 26 479 l 1,13,-1
 87 479 l 1,14,-1
 87 638 l 1,15,-1
 157 638 l 1,16,-1
 157 479 l 1,17,-1
 267 479 l 1,18,-1
 267 416 l 1,19,-1
 157 416 l 1,0,-1
EndSplineSet
Validated: 1
EndChar

